<svg width="123" height="119" viewBox="0 0 123 119" fill="none" xmlns="http://www.w3.org/2000/svg">
<g clip-path="url(#clip0_270_8)">
<path fill-rule="evenodd" clip-rule="evenodd" d="M103.91 75.4699L79.13 88.2799L77.39 84.9999L95.1 75.8599L95.33 75.7499C95.7392 75.5354 96.1017 75.2418 96.3965 74.8861C96.6913 74.5304 96.9126 74.1197 97.0475 73.6779C97.1824 73.236 97.2282 72.7718 97.1823 72.3121C97.1363 71.8524 96.9996 71.4064 96.78 70.9999L95.94 69.4199H96L91.93 61.8999L76.12 32.1099L79.85 30.1699L103.91 75.4699V75.4699ZM111.09 84.1299H121.83C121.966 84.1297 122.1 84.1572 122.225 84.2105C122.349 84.2639 122.462 84.342 122.555 84.4402C122.649 84.5385 122.722 84.6547 122.769 84.7818C122.816 84.909 122.837 85.0444 122.83 85.1799V111.24C122.828 111.51 122.724 111.77 122.538 111.966C122.353 112.163 122.1 112.282 121.83 112.3H111.09C110.81 112.297 110.542 112.185 110.343 111.987C110.145 111.788 110.033 111.52 110.03 111.24V85.1799C110.033 84.9005 110.145 84.6335 110.344 84.4368C110.542 84.2402 110.811 84.1299 111.09 84.1299V84.1299ZM106.59 110V86.4699H96C91.51 87.2799 87 89.7099 82.53 92.5399H74.31C70.58 92.7599 68.63 96.5399 72.25 99.0199C75.14 101.13 78.94 101.02 82.84 100.66C85.53 100.53 85.65 104.14 82.84 104.15C81.84 104.23 80.84 104 79.84 104C74.97 104 70.97 103.06 68.52 99.2199L67.28 96.3399L55.09 90.2799C48.97 88.2799 44.62 94.6699 49.09 99.1199C57.6219 105.336 66.746 110.695 76.33 115.12C83.08 119.23 89.84 119.12 96.58 115.12L106.58 109.97L106.59 110ZM14.49 9.4999C14.4608 9.08318 14.5698 8.66846 14.8 8.3199C15.45 7.4499 17 7.6999 18 7.6999C19.0323 7.72988 20.0648 7.64943 21.08 7.4599C22.5767 7.06886 24.0464 6.58117 25.48 5.9999C29.21 4.6599 32.56 3.6699 36.12 2.3799C44.12 -0.490103 41.72 -1.1101 49.93 2.3799C53.4746 3.87911 56.9184 5.60605 60.24 7.5499C60.7143 7.8072 61.1544 8.123 61.55 8.4899C61.941 8.88312 62.2773 9.32709 62.55 9.8099C65.69 14.3799 68.38 19.0099 70.96 23.6399C71.83 25.2699 72.19 26.8099 71.6 27.7799C69.17 31.7799 64.8 26.0899 60.1 22.3199C58.1 20.7299 55.43 19.3199 53.1 17.7099C50.1 16.4699 48.74 15.2899 45.55 14.6199C40.66 14.1999 40.26 21.2199 46.69 21.4799C51 21.6499 60 25.6099 62.56 29.2499C64.92 32.6499 63.62 35.9899 58.82 35.8699L54.82 35.1199C48.43 33.9199 48.61 33.6799 41.96 34.9199C38.39 35.5799 34.65 36.2699 30.96 35.5799C28.72 35.1699 27.54 34.2699 25.54 32.7399C24.564 31.8863 23.4977 31.1419 22.36 30.5199C21.4458 29.9792 20.4639 29.5622 19.44 29.2799C17.91 28.9099 15.75 29.4299 14.86 28.1099C14.6128 27.7181 14.4843 27.2631 14.49 26.7999V9.4999V9.4999ZM1 5.1599H11C11.2652 5.1599 11.5196 5.26525 11.7071 5.45279C11.8946 5.64033 12 5.89468 12 6.1599V30.4399C12 30.7051 11.8946 30.9595 11.7071 31.147C11.5196 31.3345 11.2652 31.4399 11 31.4399H1C0.734784 31.4399 0.48043 31.3345 0.292893 31.147C0.105357 30.9595 0 30.7051 0 30.4399V6.1499C0 5.88468 0.105357 5.63033 0.292893 5.44279C0.48043 5.25525 0.734784 5.1499 1 5.1499V5.1599ZM69 50.7499C70.3438 50.7479 71.6579 51.1447 72.7761 51.89C73.8942 52.6354 74.7661 53.6957 75.2812 54.9369C75.7964 56.178 75.9317 57.544 75.67 58.8621C75.4083 60.1802 74.7614 61.3909 73.8112 62.3411C72.861 63.2913 71.6503 63.9382 70.3322 64.1999C69.0141 64.4616 67.6481 64.3263 66.407 63.8111C65.1658 63.296 64.1055 62.4241 63.3602 61.306C62.6148 60.1878 62.218 58.8737 62.22 57.5299C62.2226 55.7325 62.9378 54.0096 64.2087 52.7386C65.4797 51.4677 67.2026 50.7525 69 50.7499V50.7499ZM72.12 31.7499L94 72.9999L67.6 86.6599L43.89 42.0699L52.22 37.7599L52.51 37.8199L58.26 38.8899C58.423 38.9051 58.587 38.9051 58.75 38.8899C59.8017 38.9307 60.8535 38.8127 61.87 38.5399L54.31 42.4999C54.8467 43.5356 54.9502 44.7421 54.5977 45.8541C54.2451 46.9661 53.4654 47.8926 52.43 48.4299L67.34 75.9999C68.3757 75.4632 69.5822 75.3597 70.6942 75.7122C71.8062 76.0648 72.7327 76.8445 73.27 77.8799L83.71 72.4699C83.4445 71.9578 83.2824 71.3984 83.2332 70.8236C83.184 70.2489 83.2485 69.6701 83.4231 69.1203C83.5977 68.5705 83.8789 68.0605 84.2508 67.6194C84.6226 67.1784 85.0776 66.815 85.59 66.5499L70.69 38.9999C70.1766 39.2653 69.6159 39.4269 69.0399 39.4756C68.464 39.5242 67.8841 39.4589 67.3335 39.2834C66.7828 39.1079 66.2721 38.8256 65.8305 38.4527C65.3889 38.0797 65.0252 37.6235 64.76 37.1099L64.62 37.1899C65.2144 36.6925 65.7068 36.0846 66.07 35.3999C66.5165 34.5363 66.7593 33.5819 66.78 32.6099C66.8038 32.277 66.8038 31.9428 66.78 31.6099C68.78 32.6099 70.53 32.7899 72.13 31.7599L72.12 31.7499Z" fill="#364DCE"/>
</g>
<defs>
<clipPath id="clip0_270_8">
<rect width="122.88" height="118.19" fill="white"/>
</clipPath>
</defs>
</svg>
