<svg width="332" height="257" viewBox="0 0 332 257" fill="none" xmlns="http://www.w3.org/2000/svg">
<g clip-path="url(#clip0_1872_2)">
<path d="M1.81033 76.2263L54.9011 3.02958C55.5773 2.09154 56.4663 1.32772 57.495 0.801006C58.5237 0.274293 59.6627 -0.000244392 60.8181 1.63242e-07H271.02C272.294 0.00436239 273.545 0.337791 274.653 0.968036C275.76 1.59828 276.687 2.50401 277.342 3.59762L330.028 76.064C331.293 77.4118 331.998 79.1914 332 81.0411C331.999 82.907 331.294 84.7037 330.028 86.0724L173.052 254.674C172.397 255.379 171.61 255.948 170.736 256.349C169.862 256.749 168.917 256.974 167.956 257.009C166.995 257.044 166.037 256.889 165.136 256.554C164.235 256.218 163.408 255.708 162.704 255.052L162.272 254.593L2.02647 86.1265C1.71601 85.7912 1.43573 85.4292 1.18891 85.0445C0.356663 83.7095 -0.0243788 82.1418 0.102128 80.5733C0.228636 79.0047 0.855976 77.5185 1.89138 76.3345L1.81033 76.2263ZM121.717 88.3716L167.513 226.001L212.444 88.3716H121.717ZM227.818 88.3716L184.724 220.699L308.008 88.3716H227.818ZM150.6 221.105L106.344 88.3716H24.3165L150.6 221.105ZM74.7325 14.661L111.802 68.463L151.437 14.661H74.7325ZM180.752 14.661L222.063 68.463L257.484 14.661H180.752ZM271.317 20.0709L236.193 73.6295H310.413L271.317 20.1521V20.0709ZM207.689 73.7107L166.054 19.4758L126.067 73.7107H207.689ZM97.671 73.7107L60.683 19.9898L21.6147 73.7107H97.671Z" fill="#F70000"/>
</g>
<defs>
<clipPath id="clip0_1872_2">
<rect width="332" height="257" fill="white"/>
</clipPath>
</defs>
</svg>
