<svg width="512" height="512" viewBox="0 0 512 512" fill="none" xmlns="http://www.w3.org/2000/svg">
<g clip-path="url(#clip0_1_4)">
<path d="M256 0C326.69 0 390.69 28.66 437.02 74.98C483.34 121.3 512 185.31 512 256C512 326.69 483.34 390.69 437.02 437.02C390.69 483.35 326.69 512 256 512C185.31 512 121.3 483.35 74.98 437.02C28.66 390.69 0 326.69 0 256C0 185.31 28.66 121.3 74.98 74.98C121.3 28.66 185.31 0 256 0ZM166.47 236.97C184.47 247.33 196.17 255.96 210.08 271.31C246.26 213.12 285.51 180.83 336.56 135.05L341.54 133.14H397.39C322.5 216.33 264.45 284.89 212.43 385.22C185.38 327.3 161.24 287.38 107.27 250.35L166.47 236.97V236.97ZM411.39 100.61C371.62 60.85 316.68 36.25 256 36.25C195.31 36.25 140.37 60.85 100.61 100.61C60.85 140.38 36.25 195.31 36.25 256C36.25 316.68 60.85 371.62 100.61 411.39C140.37 451.15 195.31 475.75 256 475.75C316.68 475.75 371.62 451.15 411.39 411.39C451.15 371.62 475.75 316.68 475.75 256C475.75 195.31 451.15 140.38 411.39 100.61V100.61Z" fill="#4DC7ED"/>
</g>
<defs>
<clipPath id="clip0_1_4">
<rect width="512" height="512" fill="white"/>
</clipPath>
</defs>
</svg>
