<svg width="267" height="513" viewBox="0 0 267 513" fill="none" xmlns="http://www.w3.org/2000/svg">
<g clip-path="url(#clip0_109_4)">
<path d="M263.78 18.9C268.06 14.6 268.08 7.58999 263.82 3.25999C262.812 2.23119 261.609 1.41317 260.282 0.853499C258.954 0.293832 257.529 0.00369746 256.088 -2.47595e-05C254.648 -0.00374698 253.221 0.279017 251.891 0.831817C250.561 1.38462 249.354 2.19642 248.34 3.21999L3.21998 248.38C-1.06002 252.68 -1.08002 259.69 3.17998 264.02L248.34 509.22C252.62 513.52 259.56 513.5 263.82 509.17C268.08 504.84 268.06 497.84 263.78 493.54L26.5 256.22L263.78 18.9Z" fill="#ACEB2F"/>
</g>
<defs>
<clipPath id="clip0_109_4">
<rect width="267" height="512.43" fill="white"/>
</clipPath>
</defs>
</svg>
