<svg width="123" height="123" viewBox="0 0 123 123" fill="none" xmlns="http://www.w3.org/2000/svg">
<g clip-path="url(#clip0_1003_2)">
<path d="M61.44 1.79967e-06C73.5925 -0.00293913 85.4728 3.59863 95.5779 10.3491C105.683 17.0995 113.559 26.6955 118.209 37.923C122.86 49.1505 124.075 61.5051 121.703 73.4237C119.33 85.3423 113.476 96.2894 104.88 104.88C99.2509 110.686 92.4929 115.278 85.0221 118.374C77.5513 121.469 69.5258 123.003 61.44 122.88C45.1451 122.88 29.5176 116.407 17.9954 104.885C6.47312 93.3624 0 77.7349 0 61.44C0 45.1451 6.47312 29.5176 17.9954 17.9954C29.5176 6.47313 45.1451 1.79967e-06 61.44 1.79967e-06ZM29.44 36.5C43.84 20.63 60.44 12 72.88 26.12C76.0955 26.1918 79.1703 27.4531 81.51 29.66C87.42 35.2 87.51 46.31 83.83 53.75V55.65C84.6133 56.0636 85.2595 56.6959 85.69 57.47L85.76 57.58C86.3492 58.6905 86.7096 59.9078 86.82 61.16C86.9579 62.4682 86.931 63.7885 86.74 65.09V65.15C86.24 68.35 84.74 71.38 82.08 72.37L81.88 72.57C79.11 75.46 73.5 81.3 72.68 85.35C72.38 86.83 73.08 88.06 75.68 88.59C79.21 89.3 82.43 89.79 85.2 90.21C94.82 91.65 99.38 92.34 100.95 99.58C108.441 91.8258 113.483 82.0384 115.449 71.4379C117.415 60.8374 116.218 49.8927 112.006 39.9681C107.794 30.0436 100.754 21.5782 91.7642 15.6272C82.7741 9.67627 72.2313 6.50301 61.45 6.50301C50.6687 6.50301 40.1259 9.67627 31.1358 15.6272C22.1457 21.5782 15.1059 30.0436 10.8941 39.9681C6.68236 49.8927 5.48484 60.8374 7.45085 71.4379C9.41686 82.0384 14.4594 91.8258 21.95 99.58C23.5 92.43 28 91.73 37.44 90.29C39.77 89.93 42.44 89.52 45.44 88.93C49.44 88.14 50.63 86.66 50.29 84.93C49.63 81.52 45.1 76.84 41.66 73.28L40.79 72.39C37.98 71.39 36.27 68.7 35.61 65.73C35.3215 64.3937 35.2405 63.0209 35.37 61.66C35.4716 60.3521 35.85 59.0807 36.48 57.93C36.7629 57.4286 37.1166 56.9706 37.53 56.57L36 55.65C35.44 49.4 37.08 38.55 29.47 36.5H29.44ZM71.77 37C64.39 41.64 60.69 40.54 54.61 41.54C49.61 42.37 45.41 44.12 42.87 47.2C42.87 47.52 42.87 47.8533 42.87 48.2V57.14C42.87 57.6439 42.6698 58.1272 42.3135 58.4835C41.9572 58.8398 41.4739 59.04 40.97 59.04H40.8C40.5833 59.0736 40.3784 59.1607 40.2038 59.2934C40.0292 59.4261 39.8904 59.6002 39.8 59.8C39.4317 60.4804 39.207 61.2292 39.14 62C39.0502 62.9673 39.1143 63.9428 39.33 64.89C39.72 66.67 40.61 68.27 41.98 68.76C42.424 68.807 42.836 69.013 43.14 69.34L44.39 70.63C48.17 74.54 53.14 79.63 54.02 84.18C54.79 88.12 52.97 91.32 46.17 92.65C43.05 93.26 40.34 93.65 37.98 94.04C29.82 95.29 26.28 95.83 25.34 102.82C35.3437 111.543 48.1674 116.348 61.44 116.348C74.7126 116.348 87.5363 111.543 97.54 102.82C96.54 95.76 92.98 95.21 84.64 93.96C81.95 93.55 78.8 93.08 74.94 92.29C69.59 91.2 68.23 88.29 68.94 84.59C70 79.46 76.13 73.1 79.16 70L79.74 69.39C80.0424 69.0846 80.4351 68.8847 80.86 68.82C81.97 68.35 82.69 66.57 82.99 64.62C83.1372 63.6469 83.1607 62.659 83.06 61.68C83.0066 60.9443 82.8059 60.2267 82.47 59.57V59.49C82.34 59.28 82.22 59.16 82.12 59.16C81.625 59.1904 81.1379 59.0249 80.7638 58.6994C80.3896 58.3739 80.1584 57.9144 80.12 57.42V48.23C80.12 43.06 77.7 41.28 73.23 38.01L72.98 37.83C72.61 37.55 72.23 37.29 71.85 37.04L71.77 37Z" fill="#858585"/>
</g>
<defs>
<clipPath id="clip0_1003_2">
<rect width="122.88" height="122.88" fill="white"/>
</clipPath>
</defs>
</svg>
