<svg width="123" height="121" viewBox="0 0 123 121" fill="none" xmlns="http://www.w3.org/2000/svg">
<g clip-path="url(#clip0_5529_8)">
<path d="M31.4 21.63H92.08V7.68C92.08 7.6 92.06 7.52 92.04 7.46C92.01 7.39 91.96 7.32 91.91 7.27L91.9 7.26C91.85 7.2 91.78 7.16 91.71 7.13C91.64 7.1 91.56 7.09 91.48 7.09H7.68C7.6 7.09 7.52 7.11 7.46 7.13C7.39 7.15 7.32 7.2 7.25 7.26L7.23 7.28C7.19 7.33 7.15 7.39 7.12 7.46C7.09 7.53 7.08 7.6 7.08 7.68V91.48C7.08 91.56 7.1 91.64 7.13 91.7L7.14 91.73C7.17 91.79 7.21 91.86 7.26 91.91C7.32 91.97 7.39 92.01 7.46 92.04L7.48 92.05C7.54 92.07 7.61 92.09 7.68 92.09H23.72V29.31C23.72 28.28 23.93 27.28 24.3 26.38C24.69 25.44 25.26 24.59 25.97 23.88L26.01 23.84C26.71 23.15 27.55 22.59 28.47 22.21C29.38 21.84 30.37 21.63 31.4 21.63ZM51.99 75.95C51.04 75.09 50.52 73.92 50.46 72.72C50.4 71.53 50.8 70.32 51.66 69.37C52.52 68.42 53.7 67.9 54.89 67.84C56.07 67.78 57.29 68.18 58.24 69.04L67.33 77.29L88.11 55.41C89 54.48 90.18 53.99 91.38 53.96C92.57 53.93 93.78 54.36 94.71 55.24C95.64 56.13 96.13 57.31 96.16 58.51C96.19 59.7 95.76 60.91 94.88 61.84L69.84 88.19L69.59 88C69.01 88.28 68.38 88.43 67.74 88.46C66.57 88.5 65.38 88.11 64.45 87.26L51.99 75.95ZM99.15 21.63H115.19C116.22 21.63 117.22 21.84 118.12 22.22C119.06 22.61 119.91 23.18 120.62 23.89L120.66 23.93C121.35 24.63 121.91 25.46 122.29 26.38C122.67 27.29 122.87 28.28 122.87 29.32V113.12C122.87 114.16 122.66 115.15 122.29 116.05C121.9 116.99 121.33 117.84 120.62 118.55C119.91 119.26 119.07 119.83 118.12 120.22C117.21 120.6 116.22 120.81 115.19 120.81H31.4C30.37 120.81 29.38 120.6 28.47 120.23C27.53 119.84 26.68 119.27 25.97 118.56C25.26 117.85 24.69 117 24.3 116.06C23.92 115.15 23.72 114.16 23.72 113.13V99.16H7.68C6.65 99.16 5.65 98.95 4.75 98.57C3.81 98.18 2.96 97.61 2.25 96.9C1.54 96.19 0.97 95.34 0.58 94.4C0.21 93.5 0 92.51 0 91.48V7.68C0 6.64 0.21 5.65 0.58 4.75C0.97 3.81 1.54 2.96 2.25 2.25C2.96 1.54 3.8 0.97 4.75 0.58C5.66 0.21 6.65 0 7.68 0H91.47C92.51 0 93.5 0.21 94.4 0.58C95.34 0.97 96.19 1.54 96.9 2.25C98.3 3.65 99.16 5.56 99.16 7.68V21.63H99.15ZM115.2 28.7H31.4C31.32 28.7 31.25 28.72 31.18 28.74C31.1 28.77 31.03 28.82 30.98 28.88L30.97 28.89C30.91 28.94 30.87 29.01 30.84 29.08C30.81 29.15 30.8 29.22 30.8 29.3V113.1C30.8 113.18 30.82 113.26 30.84 113.32C30.87 113.39 30.92 113.46 30.98 113.52L31 113.54C31.05 113.59 31.12 113.63 31.18 113.65C31.25 113.68 31.32 113.69 31.4 113.69H115.19C115.27 113.69 115.35 113.67 115.41 113.65L115.43 113.64C115.5 113.61 115.56 113.57 115.61 113.51C115.66 113.45 115.71 113.39 115.74 113.32L115.75 113.3C115.77 113.24 115.78 113.17 115.78 113.09V29.29C115.78 29.21 115.76 29.14 115.74 29.07L115.73 29.05C115.7 28.99 115.66 28.93 115.61 28.88C115.55 28.82 115.48 28.77 115.41 28.74C115.35 28.72 115.28 28.7 115.2 28.7Z" fill="#6D6C6C"/>
</g>
<defs>
<clipPath id="clip0_5529_8">
<rect width="122.88" height="120.79" fill="white"/>
</clipPath>
</defs>
</svg>
