<svg width="123" height="102" viewBox="0 0 123 102" fill="none" xmlns="http://www.w3.org/2000/svg">
<g clip-path="url(#clip0_5530_13)">
<path d="M4.42998 63.63C1.56098 60.875 0.0779757 57.21 0.00297569 53.52C-0.0710243 49.831 1.26398 46.108 4.01798 43.239C6.76998 40.372 10.435 38.888 14.124 38.814C17.815 38.738 21.536 40.069 24.407 42.826L49.194 66.677L98.543 3.98903L100.311 5.33803L98.541 3.98303C98.682 3.80003 98.842 3.64403 99.02 3.51703C101.956 0.974028 105.641 -0.173972 109.243 0.0220281V0.0180281L109.419 0.0340281C113.042 0.274028 116.581 1.88403 119.194 4.80003C121.852 7.76503 123.057 11.531 122.856 15.212H122.86L122.844 15.388C122.608 18.946 121.053 22.423 118.235 25.02L59.011 97.11L59.015 97.114C58.904 97.255 58.779 97.376 58.643 97.482C55.87 99.917 52.368 101.111 48.886 101.051C45.375 100.99 41.871 99.655 39.145 97.035L4.42998 63.63Z" fill="#6D6C6C"/>
</g>
<defs>
<clipPath id="clip0_5530_13">
<rect width="122.877" height="101.052" fill="white"/>
</clipPath>
</defs>
</svg>
