<svg width="59" height="59" viewBox="0 0 59 59" fill="none" xmlns="http://www.w3.org/2000/svg">
<g clip-path="url(#clip0_1_34)">
<mask id="mask0_1_34" style="mask-type:luminance" maskUnits="userSpaceOnUse" x="0" y="0" width="59" height="59">
<path d="M59 0H0V59H59V0Z" fill="white"/>
</mask>
<g mask="url(#mask0_1_34)">
<path fill-rule="evenodd" clip-rule="evenodd" d="M29.5 0C45.7924 0 59 13.2076 59 29.4999C59 45.7924 45.7924 59 29.5 59C13.2076 59 0 45.7924 0 29.4999C0 13.2076 13.2076 0 29.5 0ZM39.2502 23.2335C38.8031 19.6215 35.8371 18.5936 32.0297 18.3117L31.9702 15.1192L29.0217 15.1281L29.1407 18.2181L26.7215 18.2589L26.6834 15.1472L23.6539 15.1778L23.8164 18.4297L21.9266 18.5021L17.8602 18.5502L17.9936 21.639L20.0671 21.604C21.2875 21.6242 21.7475 22.3688 21.7375 22.9792C21.8714 27.7522 21.9422 31.1101 22.0394 36.09C21.9859 36.5384 21.7921 37.1109 20.9171 37.0852L18.8436 37.12L18.3133 40.647L24.1885 40.5481L24.3724 43.8811L27.2182 43.8128L27.1586 40.62L29.394 40.5418L29.5348 43.7128L32.4833 43.7039L32.4019 40.4301C37.3372 40.0624 40.7915 38.703 41.1209 34.1016C41.3432 30.3968 39.6079 28.779 36.7504 28.156C38.4234 27.2739 39.4745 25.6902 39.2502 23.2335ZM35.3583 33.6495C35.3574 37.2081 29.1525 37.0481 27.1598 37.0614L27.0711 30.5761C29.0636 30.5629 35.2946 29.8481 35.3583 33.6495ZM33.7005 24.5468C33.8178 27.9004 28.7091 27.6202 26.981 27.6492L26.8821 21.7742C28.6103 21.745 33.745 21.1502 33.7005 24.5468ZM29.5002 5.5877C42.7066 5.5877 53.4125 16.2936 53.4125 29.5003C53.4125 42.7066 42.7066 53.4124 29.5002 53.4124C16.2937 53.4124 5.58772 42.7066 5.58772 29.5003C5.58772 16.2936 16.2937 5.5877 29.5002 5.5877Z" fill="#E74D8A"/>
</g>
</g>
<defs>
<clipPath id="clip0_1_34">
<rect width="59" height="59" fill="white"/>
</clipPath>
</defs>
</svg>
