<svg width="102" height="93" viewBox="0 0 102 93" fill="none" xmlns="http://www.w3.org/2000/svg">
<g clip-path="url(#clip0_2_82)">
<path d="M46.2606 0C52.5101 0 58.4926 1.24298 63.9532 3.49143L64.1345 3.57258C69.7186 5.90021 74.7449 9.28476 78.9524 13.467C83.2316 17.7224 86.6681 22.7814 89.007 28.3867C91.2701 33.8119 92.5212 39.7556 92.5212 45.9607C92.5212 47.4886 92.4455 48.9988 92.2961 50.4892C90.1462 49.5046 87.8651 48.8321 85.5226 48.4921C85.5764 47.6549 85.6043 46.8117 85.6043 45.9607C85.6043 40.6542 84.5484 35.6051 82.632 31.0152C80.6508 26.2685 77.7489 21.9555 74.0914 18.3221C70.4955 14.7456 66.2203 11.8657 61.4789 9.88844L61.3076 9.82312C56.6877 7.92104 51.6056 6.87005 46.2606 6.87005C40.9155 6.87005 35.8335 7.92104 31.2136 9.82312C26.3925 11.8004 22.0655 14.706 18.4417 18.3102C14.8418 21.8828 11.9432 26.1284 9.95297 30.839L9.88723 31.0112C7.97273 35.6011 6.91488 40.6503 6.91488 45.9607C6.91488 51.271 7.97273 56.3202 9.88723 60.9101C11.1027 63.8306 12.6721 66.593 14.5609 69.1359C18.4457 66.549 28.5839 65.025 32.7237 63.7206C36.7778 62.444 37.1702 62.1333 38.3118 58.7626C36.8455 57.5196 35.4311 55.5759 35.196 53.0088L35.0027 53.0128C34.5565 53.0069 34.1282 52.9059 33.7257 52.6783C33.0823 52.3141 32.63 51.6906 32.3232 50.986C31.2933 48.9592 30.08 44.0685 32.7934 44.5118L32.4547 43.8804C32.391 43.0966 32.375 42.1525 32.3591 41.157C32.3013 37.5032 32.2256 33.0756 29.2692 32.1889L28.0002 31.8089C34.417 23.9017 46.0494 12.4219 55.3908 23.7216C64.8218 24.632 67.83 38.6987 61.3614 44.9077C61.7479 44.9215 62.1144 45.0126 62.4391 45.1848C63.6703 45.8399 63.7102 47.261 63.3854 48.4565C63.0667 49.4541 62.6603 50.61 62.2758 51.5818C61.8096 52.896 61.1283 53.1395 59.8095 52.997C59.7517 55.8352 57.895 57.191 56.0741 58.7626C57.4029 60.6607 57.9348 61.6008 59.3094 62.446C57.7854 65.6524 56.9347 69.229 56.9347 73.0074C56.9347 79.056 59.1182 84.602 62.7459 88.9049C57.6161 90.8525 52.0519 91.9213 46.2606 91.9213C40.0151 91.9213 34.0305 90.6783 28.568 88.4299L28.3867 88.3487C22.8026 86.0211 17.7763 82.6365 13.5668 78.4524C9.29754 74.2128 5.86301 69.1557 3.5182 63.5366C1.25109 58.1134 0 52.1696 0 45.9607C0 39.7497 1.25109 33.8059 3.51422 28.3827L3.5959 28.2026C5.93871 22.6547 9.34535 17.661 13.5568 13.4788C17.8261 9.23726 22.9161 5.82499 28.57 3.49539C34.0266 1.24298 40.0091 0 46.2606 0ZM78.783 64.9854C78.7751 64.0789 78.6914 63.4297 79.823 63.4455L83.4926 63.4891C84.6759 63.4831 84.9907 63.8552 84.9768 64.9577V69.9316H89.9532C90.8657 69.9237 91.5191 69.8386 91.5012 70.9648L91.4573 74.6126C91.4633 75.7863 91.0908 76.099 89.9791 76.0852H84.9768V81.0551C84.9907 82.1576 84.6759 82.5297 83.4926 82.5237L79.823 82.5673C78.6914 82.5831 78.7751 81.9339 78.783 81.0274V76.0852H73.7787C72.667 76.099 72.2925 75.7863 72.2985 74.6126L72.2566 70.9648C72.2387 69.8386 72.8921 69.9237 73.8046 69.9316H78.783V64.9854ZM81.8769 53.0167C87.4351 53.0167 92.4674 55.2553 96.1071 58.8714L96.1948 58.9664C99.7847 62.5786 102 67.5446 102 73.0074C102 78.5295 99.7468 83.5292 96.1071 87.1453C92.4674 90.7614 87.4351 93 81.8769 93C76.3287 93 71.2924 90.7614 67.6527 87.1414C64.009 83.5292 61.7558 78.5295 61.7558 73.0074C61.7558 67.4931 64.009 62.4935 67.6527 58.8774C71.2884 55.2553 76.3227 53.0167 81.8769 53.0167ZM93.9555 61.009C90.8657 57.9392 86.5944 56.0391 81.8769 56.0391C77.1614 56.0391 72.8882 57.9392 69.8003 61.009C66.7084 64.071 64.7979 68.3165 64.7979 73.0074C64.7979 77.6943 66.7104 81.9398 69.8003 85.0077C72.8822 88.0795 77.1534 89.9777 81.8769 89.9777C86.5944 89.9777 90.8657 88.0776 93.9555 85.0077C97.0454 81.9398 98.9579 77.6943 98.9579 73.0074C98.9579 68.3581 97.0793 64.1442 94.0392 61.0882L93.9555 61.009Z" fill="#E74D8A"/>
</g>
<defs>
<clipPath id="clip0_2_82">
<rect width="102" height="93" fill="white"/>
</clipPath>
</defs>
</svg>
