<svg width="65" height="43" viewBox="0 0 65 43" fill="none" xmlns="http://www.w3.org/2000/svg">
<g clip-path="url(#clip0_1_46)">
<mask id="mask0_1_46" style="mask-type:luminance" maskUnits="userSpaceOnUse" x="0" y="0" width="65" height="43">
<path d="M65 0H0V43H65V0Z" fill="white"/>
</mask>
<g mask="url(#mask0_1_46)">
<path d="M31.9922 28.7418C33.5182 28.6148 34.563 27.7473 35.2739 26.4961L35.279 26.4871C35.9988 25.218 36.381 23.5498 36.5727 21.8534C36.6729 20.9564 36.7326 20.0183 36.7936 19.0688C37.0919 14.3772 37.4156 9.31354 42.6867 7.15898C43.4851 6.8332 44.3257 6.62532 45.1826 6.54175C47.0044 6.36209 48.8643 6.74065 50.4689 7.66971C52.0749 8.59878 53.427 10.0784 54.2344 12.0944C54.6051 13.0221 54.8603 14.0628 54.972 15.2152V15.2357C54.9567 18.0653 55.4049 22.0394 56.6211 24.955C57.4971 27.0518 58.7691 28.5955 60.5478 28.7418C60.6201 28.7469 60.6747 28.8124 60.6696 28.8855L60.662 28.9202C60.3319 29.8621 58.8085 30.5871 56.9867 30.94C59.6959 31.606 61.5761 32.4093 62.8494 33.8273C64.416 35.5712 65 38.1685 65 42.4827C65 42.7676 64.7715 42.9986 64.4896 42.9986H43.2593C43.2948 42.8215 43.3151 42.638 43.3151 42.4493V40.6541C43.3151 39.0821 42.9178 37.5602 42.231 36.1692C43.5208 36.703 44.8157 36.9981 46.1119 37.0379C49.4863 37.1406 52.9344 35.5122 56.4649 31.8703C55.952 31.7484 55.4062 31.6304 54.8285 31.5136L54.746 31.4956C54.2521 31.3968 53.5564 31.2569 52.8392 31.0555C52.5916 31.017 52.3517 30.9708 52.1206 30.913C51.402 30.7372 50.7686 30.4665 50.295 30.0905C49.5714 29.5182 49.2121 28.7097 49.4533 27.6279C47.2875 28.9946 45.0125 28.9895 42.8581 27.5817L42.7197 27.5035C42.7083 28.1451 42.3059 30.0443 41.6914 30.4228C40.757 30.9964 39.2907 31.2646 38.1456 31.4546C36.7313 30.4562 35.1355 29.744 33.4978 29.4245C32.9773 29.3231 32.4543 29.2204 31.9528 29.1011C31.9236 29.0421 31.897 28.9818 31.8754 28.9202C31.8513 28.8496 31.8881 28.7726 31.9566 28.7482L31.9922 28.7418ZM24.865 26.0072C24.8917 25.9751 24.9209 25.9469 24.9539 25.9212L25.1418 25.7416C26.5319 24.4224 27.5564 23.4497 27.3584 21.0783C27.3521 20.9602 27.38 20.8383 27.4485 20.7331C27.5275 20.6122 27.6507 20.5278 27.7911 20.4984C27.9314 20.4691 28.0776 20.4972 28.1976 20.5766C28.294 20.6407 28.3918 20.692 28.4908 20.728C28.5721 20.7588 28.6508 20.7767 28.7231 20.7806C28.8641 20.7883 28.9364 20.7883 28.9555 20.7832C28.9745 20.7678 29.0101 20.6728 29.0608 20.5265L29.7515 18.5503C29.8378 18.2154 29.8454 17.9767 29.7946 17.8176C29.773 17.7483 29.7362 17.697 29.6893 17.6662L29.6689 17.6546C29.5852 17.6097 29.4658 17.5943 29.3287 17.6059C29.0253 17.629 28.6711 17.7765 28.3563 18.0178C28.242 18.105 28.0922 18.1474 27.9386 18.1204C27.7968 18.0958 27.6704 18.0154 27.5872 17.8969C27.5039 17.7783 27.4705 17.6312 27.4942 17.4878C28.0059 14.4722 27.7723 12.5088 27.1362 11.1691C26.5802 9.99494 25.6915 9.28274 24.7292 8.75148C22.5926 10.4069 21.0882 10.5955 19.5889 10.7829C18.3473 10.9369 17.1082 11.0934 15.468 12.2394C14.6872 12.786 14.1692 13.4456 13.9039 14.2143C13.6373 14.9881 13.617 15.8863 13.8328 16.9026C13.8658 17.013 13.8646 17.1336 13.8227 17.2491C13.7198 17.534 13.4075 17.679 13.1257 17.5751C12.9632 17.5147 12.7943 17.4455 12.6306 17.3928C11.9895 17.167 11.535 17.0618 11.3598 17.4698C11.3458 17.5994 11.3369 17.8009 11.3306 18.0088V18.0126C11.3229 18.3078 11.3229 18.617 11.3306 18.7775V18.7852C11.3496 19.165 11.4321 19.668 11.6124 20.0902C11.7254 20.3571 11.8752 20.5817 12.0618 20.6895C12.1545 20.7421 12.2599 20.7665 12.369 20.7678C12.5036 20.7703 12.6534 20.7421 12.8108 20.6946C12.8914 20.6666 12.9774 20.6582 13.0617 20.6701C13.1461 20.6819 13.2265 20.7137 13.2965 20.7628C13.3665 20.8119 13.424 20.877 13.4645 20.9527C13.5049 21.0285 13.5272 21.1128 13.5294 21.1989C13.5878 23.682 14.6783 24.6316 16.0037 25.7852L16.556 26.2703C17.4269 27.0531 18.3282 27.5894 19.2321 27.8653C19.9278 28.0116 20.6553 28.027 21.3535 27.9359C21.8397 27.8718 22.3082 27.7563 22.7424 27.5984C23.3695 27.2994 23.9853 26.8619 24.5807 26.2805L24.865 26.0072ZM25.8921 26.5333C27.0334 30.3831 30.0904 30.9836 33.0916 31.5688C37.163 32.3644 41.1506 36.2513 41.1506 40.6541V42.4493C41.1506 42.7522 40.9056 42.9998 40.6072 42.9998H0.543359C0.24375 42.9998 0 42.7522 0 42.4493V40.826C0 35.534 4.23389 32.408 8.51221 31.8293C11.634 31.4084 14.7837 30.9798 15.8958 27.1454L15.8349 27.0903L15.294 26.6129C13.8849 25.3861 12.7055 24.3595 12.4808 21.8611L12.3563 21.8624C12.0682 21.8585 11.7889 21.7918 11.5273 21.6416C11.1071 21.4004 10.8126 20.9885 10.6146 20.5239C10.3784 19.9709 10.273 19.3267 10.2477 18.8403V18.8301C10.24 18.6517 10.24 18.3104 10.2477 17.9831V17.978C10.2565 17.6944 10.2705 17.4185 10.2921 17.262C10.2984 17.2145 10.3111 17.1708 10.3276 17.1285C10.6234 16.297 11.0754 16.0275 11.6721 16.0442L11.2798 15.7811C11.0665 13.0901 11.6898 8.42169 8.79912 7.53882C14.2683 0.706865 20.5715 -3.00811 25.3056 3.06802C31.0083 3.37087 33.2947 12.5307 28.7473 16.3868L28.7206 16.6126C28.8996 16.5587 29.0773 16.5241 29.2475 16.5113C29.5852 16.4843 29.9063 16.5395 30.178 16.6845L30.2301 16.7166C30.5043 16.8795 30.715 17.1336 30.8268 17.4827C30.9397 17.8381 30.9436 18.2937 30.795 18.8506L30.0841 20.8909C29.9698 21.2207 29.8645 21.453 29.6334 21.6391L29.589 21.6712C29.3605 21.8354 29.0824 21.897 28.6686 21.8752L28.4705 21.8534C28.4248 24.1221 27.3279 25.1693 25.8921 26.5333ZM25.0771 27.3995C23.4152 29.7196 18.5656 29.7697 16.754 27.9282C16.3021 29.8313 15.129 31.1466 13.3936 32.0025C18.3701 35.0694 23.2743 34.9783 28.1011 31.3596C26.245 30.5088 25.3068 29.1499 25.0771 27.3995ZM50.3179 25.6736C52.6246 23.0943 53.2391 21.3555 52.9344 17.8805C52.8849 17.3248 52.8036 16.7602 52.6906 16.1879C50.8092 15.3063 49.5777 13.3686 48.948 10.4569C48.1952 16.0005 41.4604 15.7618 39.7668 16.7705C39.7668 17.2376 39.7554 17.6777 39.7452 18.1012C39.6678 20.9538 39.8772 22.4719 41.2979 24.7496C41.5353 25.1308 41.7676 25.4991 42.0481 25.8045C44.3104 28.2708 48.1787 27.9629 50.3179 25.6736Z" fill="#E74D8A"/>
</g>
</g>
<defs>
<clipPath id="clip0_1_46">
<rect width="65" height="43" fill="white"/>
</clipPath>
</defs>
</svg>
