<svg width="72" height="84" viewBox="0 0 72 84" fill="none" xmlns="http://www.w3.org/2000/svg">
<g clip-path="url(#clip0_2_80)">
<path fill-rule="evenodd" clip-rule="evenodd" d="M53.04 45.898C58.2661 45.898 63.0008 48.0323 66.4327 51.4792C69.8759 54.9243 72 59.6902 72 64.9482C72 70.2078 69.8759 74.9736 66.4457 78.4188L66.2302 78.619C62.8147 81.9477 58.1633 84 53.04 84C47.8057 84 43.0645 81.8656 39.6359 78.4188C36.2057 74.9736 34.0816 70.2078 34.0816 64.9482C34.0816 59.6885 36.2057 54.9243 39.6359 51.4792C43.0645 48.0323 47.8057 45.898 53.04 45.898ZM39.6914 6.24726V15.1358C39.8531 17.2571 40.5894 18.9239 41.8824 20.0329C43.2212 21.1829 45.2229 21.8277 47.8727 21.8752L54.0637 21.8687L39.6914 6.24726ZM54.5829 26.0144L47.84 26.0078C44.1682 25.9504 41.2751 24.9579 39.2033 23.1795C37.0433 21.324 35.8269 18.6926 35.5804 15.4311L35.5624 15.1457V4.14898H10.2645C8.57633 4.14898 7.04 4.84294 5.9298 5.95852C4.81959 7.0741 4.12898 8.61787 4.12898 10.3142V65.5174C4.12898 67.2072 4.82286 68.751 5.93469 69.8682C7.0449 70.9838 8.58286 71.681 10.2645 71.681H29.76C30.1747 73.1231 30.7184 74.511 31.3796 75.83H10.2645C7.44326 75.83 4.87347 74.6685 3.01388 72.8015C1.15592 70.9329 0 68.3523 0 65.5174V10.3142C0 7.4826 1.15592 4.90364 3.01224 3.03668C4.88 1.16152 7.44653 0 10.2645 0H38.6531C39.3241 0 39.92 0.32155 40.2971 0.82028L58.1567 20.2347C58.5224 20.6333 58.702 21.1353 58.702 21.6374L58.7069 41.2782C57.3714 40.955 55.9935 40.745 54.5829 40.6564V26.0144ZM17.071 34.9538C15.9314 34.9538 15.0073 34.0252 15.0073 32.8801C15.0073 31.7334 15.9314 30.8048 17.071 30.8048H41.6408C42.7804 30.8048 43.7061 31.7334 43.7061 32.8801C43.7061 34.0252 42.7804 34.9538 41.6408 34.9538H17.071ZM17.071 46.815C15.9314 46.815 15.0073 45.8865 15.0073 44.7397C15.0073 43.5946 15.9314 42.6661 17.071 42.6661H40.3396C40.9453 42.6661 41.4906 42.9286 41.8694 43.3469C40.0699 44.2895 38.3949 45.4546 36.8833 46.815H17.071ZM17.071 58.6763C15.9314 58.6763 15.0073 57.7477 15.0073 56.601C15.0073 55.4559 15.9314 54.5273 17.071 54.5273H31.1445C30.5208 55.848 30.0098 57.2359 29.6278 58.6763H17.071ZM53.52 54.5388L56.0392 60.4645L62.4294 61.0387C62.7151 61.0617 62.9208 61.311 62.898 61.5981C62.8833 61.7376 62.8245 61.8557 62.7216 61.9443L57.8873 66.1835L59.3159 72.4718C59.3796 72.7523 59.2049 73.0246 58.9273 73.0903C58.7869 73.1198 58.6416 73.0903 58.5306 73.0164L53.0367 69.7189L47.5282 73.0312C47.2849 73.1789 46.9698 73.0985 46.8245 72.854C46.751 72.7359 46.7363 72.5981 46.7641 72.4718L48.1943 66.1835L43.3584 61.9443C43.1461 61.7606 43.1249 61.4292 43.3061 61.2159C43.4106 61.106 43.5412 61.0535 43.6735 61.0469L50.0473 60.4727L52.5682 54.5388C52.6776 54.2747 52.978 54.1566 53.2424 54.2648C53.3731 54.3173 53.4678 54.4207 53.52 54.5388Z" fill="#E74D8A"/>
</g>
<defs>
<clipPath id="clip0_2_80">
<rect width="72" height="84" fill="white"/>
</clipPath>
</defs>
</svg>
