<svg width="123" height="123" viewBox="0 0 123 123" fill="none" xmlns="http://www.w3.org/2000/svg">
<g clip-path="url(#clip0_15_6)">
<path d="M56.573 4.868C56.573 4.213 56.705 3.585 56.943 3.009C57.192 2.409 57.553 1.872 57.999 1.426C58.879 0.545 60.097 0 61.44 0C62.098 0 62.727 0.132 63.303 0.371C63.315 0.376 63.326 0.382 63.34 0.388C63.924 0.636 64.447 0.991 64.883 1.427C65.764 2.307 66.309 3.525 66.309 4.869C66.309 4.899 66.307 4.929 66.303 4.958V56.578H117.922C117.951 56.575 117.983 56.572 118.012 56.572C118.668 56.572 119.297 56.704 119.873 56.943C119.887 56.948 119.898 56.954 119.91 56.96C120.494 57.208 121.017 57.563 121.453 57.999C122.334 58.879 122.881 60.097 122.881 61.44C122.881 62.094 122.748 62.723 122.51 63.299C122.262 63.899 121.901 64.436 121.453 64.882C121.008 65.327 120.473 65.688 119.873 65.937V65.938C119.297 66.176 118.668 66.308 118.012 66.308C117.983 66.308 117.951 66.306 117.922 66.302L66.303 66.303V117.922C66.307 117.951 66.309 117.982 66.309 118.012C66.309 118.668 66.176 119.298 65.938 119.873C65.932 119.887 65.926 119.898 65.92 119.91C65.672 120.494 65.318 121.017 64.883 121.453C64 122.335 62.783 122.88 61.44 122.88C60.786 122.88 60.157 122.748 59.581 122.509C58.981 122.261 58.444 121.9 57.998 121.453C57.553 121.009 57.192 120.473 56.943 119.873H56.942C56.703 119.298 56.571 118.668 56.571 118.012C56.571 117.982 56.573 117.951 56.577 117.922V66.303H4.958C4.929 66.307 4.899 66.309 4.868 66.309C4.214 66.309 3.585 66.177 3.009 65.938C2.409 65.69 1.872 65.329 1.426 64.882C0.981 64.437 0.62 63.902 0.371 63.302V63.302C0.132 62.726 0 62.097 0 61.44C0 60.785 0.132 60.157 0.371 59.581C0.62 58.981 0.981 58.444 1.427 57.998C2.308 57.117 3.525 56.572 4.869 56.572C4.9 56.572 4.93 56.574 4.959 56.578H56.579V4.958C56.575 4.928 56.573 4.898 56.573 4.868Z" fill="#8761A8"/>
</g>
<defs>
<clipPath id="clip0_15_6">
<rect width="122.881" height="122.88" fill="white"/>
</clipPath>
</defs>
</svg>
