<svg width="117" height="123" viewBox="0 0 117 123" fill="none" xmlns="http://www.w3.org/2000/svg">
<g clip-path="url(#clip0_239_16)">
<path d="M56.3814 65.1697H31.7812C32.0613 62.7497 32.9212 60.4597 34.3512 58.3297C35.7812 56.1897 38.4614 53.6597 42.3814 50.7497C44.7814 48.9597 46.3213 47.6097 47.0013 46.6897C47.6713 45.7597 48.0112 44.8797 48.0112 44.0497C48.0112 43.1497 47.6812 42.3797 47.0212 41.7397C46.3512 41.0997 45.5212 40.7897 44.5112 40.7897C43.4712 40.7897 42.6112 41.1197 41.9412 41.7797C41.2712 42.4497 40.8312 43.6097 40.6012 45.2797L32.4013 44.6097C32.7213 42.2997 33.3112 40.4997 34.1712 39.1997C35.0312 37.8997 36.2413 36.9097 37.8013 36.2197C39.3713 35.5297 41.5314 35.1797 44.2914 35.1797C47.1714 35.1797 49.4112 35.5097 51.0212 36.1697C52.6212 36.8197 53.8813 37.8297 54.8013 39.1897C55.7213 40.5597 56.1812 42.0797 56.1812 43.7697C56.1812 45.5597 55.6512 47.2797 54.6012 48.9197C53.5512 50.5497 51.6312 52.3497 48.8512 54.3097C47.2012 55.4497 46.1014 56.2497 45.5414 56.7097C44.9814 57.1697 44.3313 57.7597 43.5813 58.4997H56.3814V65.1697ZM73.9614 59.6497H59.0513V52.9197L73.9614 35.1897H81.0913V53.2997H84.8013V59.6397H81.0913V65.1597H73.9614V59.6497ZM73.9614 53.2997V43.9997L66.0813 53.3097H73.9614V53.2997Z" fill="#EE4284"/>
<path d="M30.94 73.69H36.38V80.15H42.34V73.69H47.81V92.2H42.34V84.7H36.38V92.2H30.94V73.69ZM58.3 122.88C50.27 122.88 42.8 121.45 35.92 118.6C29.02 115.74 22.74 111.47 17.08 105.82C11.42 100.14 7.16 93.86 4.29 86.97C1.43 80.08 0 72.61 0 64.58C0 56.55 1.43 49.09 4.28 42.2C7.14 35.3 11.41 29.02 17.06 23.35C22.72 17.69 29 13.42 35.9 10.57C39.86 8.94 44 7.77 48.33 7.07V0H68.26V7.07C72.59 7.77 76.73 8.94 80.68 10.58C87.58 13.44 93.86 17.7 99.52 23.36C105.19 29.02 109.45 35.31 112.3 42.21C115.16 49.1 116.58 56.56 116.58 64.59C116.58 72.59 115.16 80.04 112.3 86.93C109.44 93.82 105.18 100.1 99.51 105.78C93.83 111.47 87.55 115.74 80.68 118.6C73.8 121.45 66.33 122.88 58.3 122.88ZM35.12 16.4L38.3 21.91C35.86 23.05 33.54 24.4 31.35 25.93L28.21 20.48C25.57 22.33 23.04 24.47 20.62 26.89C18.2 29.31 16.06 31.84 14.2 34.48L19.64 37.62C18.11 39.81 16.76 42.13 15.62 44.57L10.12 41.39C9.68 42.27 9.29 43.17 8.9 44.09C6.78 49.19 5.53 54.69 5.14 60.56H11.34C11.23 61.88 11.17 63.22 11.17 64.57C11.17 65.92 11.23 67.26 11.34 68.58H5.14C5.53 74.45 6.78 79.95 8.9 85.05C9.28 85.96 9.68 86.85 10.12 87.75L15.63 84.57C16.77 87.01 18.12 89.33 19.65 91.51L14.2 94.65C16.05 97.29 18.19 99.82 20.62 102.24C23.04 104.66 25.57 106.8 28.21 108.66L31.35 103.21C33.54 104.74 35.86 106.09 38.3 107.23L35.12 112.74C36 113.17 36.9 113.58 37.82 113.96C42.93 116.08 48.42 117.33 54.29 117.71V111.51C55.61 111.62 56.95 111.68 58.31 111.68C59.66 111.68 61 111.62 62.32 111.51V117.71C68.18 117.32 73.68 116.07 78.78 113.96C79.69 113.58 80.59 113.17 81.48 112.74L78.3 107.24C80.74 106.1 83.06 104.75 85.25 103.22L88.39 108.67C91.04 106.81 93.57 104.68 95.98 102.24C98.39 99.82 100.52 97.3 102.37 94.65L96.94 91.52C98.47 89.33 99.81 87.01 100.96 84.58L106.45 87.75C106.89 86.85 107.31 85.94 107.69 85.02C109.81 79.92 111.06 74.44 111.45 68.6H105.24C105.35 67.27 105.41 65.93 105.41 64.58C105.41 63.23 105.35 61.9 105.24 60.58H111.45C111.06 54.71 109.81 49.21 107.69 44.11C107.31 43.2 106.91 42.3 106.47 41.41L100.97 44.59C99.83 42.15 98.48 39.83 96.95 37.64L102.4 34.49C100.55 31.85 98.41 29.32 95.99 26.9C93.57 24.48 91.04 22.35 88.4 20.49L85.26 25.94C83.07 24.41 80.75 23.06 78.31 21.92L81.49 16.41C80.61 15.97 79.71 15.57 78.79 15.2C73.68 13.08 68.19 11.83 62.32 11.44V17.64C61 17.53 59.66 17.47 58.3 17.47C56.95 17.47 55.61 17.53 54.29 17.64V11.43C48.42 11.82 42.92 13.07 37.82 15.19C36.9 15.56 36 15.97 35.12 16.4ZM51.5 92.2V73.69H60.58C62.26 73.69 63.55 73.84 64.44 74.15C65.33 74.45 66.05 75.02 66.6 75.83C67.15 76.65 67.42 77.66 67.42 78.84C67.42 79.87 67.21 80.75 66.79 81.5C66.38 82.25 65.8 82.85 65.07 83.32C64.61 83.61 63.97 83.86 63.16 84.05C63.81 84.28 64.28 84.5 64.58 84.73C64.78 84.88 65.07 85.21 65.45 85.7C65.83 86.2 66.08 86.58 66.21 86.85L68.86 92.2H62.7L59.79 86.56C59.42 85.83 59.09 85.35 58.8 85.13C58.41 84.85 57.96 84.7 57.46 84.7H56.98V92.2H51.5ZM56.98 81.21H59.28C59.53 81.21 60.01 81.12 60.72 80.96C61.08 80.89 61.38 80.69 61.6 80.38C61.83 80.07 61.94 79.71 61.94 79.3C61.94 78.7 61.76 78.24 61.4 77.92C61.04 77.6 60.36 77.44 59.36 77.44H56.96V81.21H56.98ZM69.65 86.07L74.82 85.73C74.93 86.61 75.16 87.28 75.51 87.74C76.07 88.49 76.87 88.86 77.92 88.86C78.7 88.86 79.3 88.67 79.71 88.29C80.13 87.91 80.34 87.46 80.34 86.96C80.34 86.48 80.14 86.05 79.74 85.67C79.34 85.29 78.41 84.94 76.96 84.6C74.57 84.04 72.87 83.29 71.85 82.36C70.82 81.43 70.31 80.24 70.31 78.79C70.31 77.84 70.57 76.95 71.1 76.1C71.63 75.25 72.41 74.59 73.47 74.11C74.53 73.63 75.97 73.39 77.81 73.39C80.06 73.39 81.78 73.83 82.96 74.71C84.14 75.59 84.84 76.99 85.07 78.91L79.95 79.23C79.81 78.39 79.53 77.78 79.09 77.4C78.65 77.02 78.05 76.83 77.28 76.83C76.65 76.83 76.17 76.97 75.85 77.25C75.53 77.53 75.37 77.87 75.37 78.28C75.37 78.57 75.5 78.84 75.76 79.07C76.01 79.32 76.62 79.54 77.58 79.75C79.96 80.29 81.66 80.84 82.69 81.39C83.72 81.94 84.47 82.62 84.94 83.44C85.41 84.25 85.64 85.17 85.64 86.18C85.64 87.36 85.33 88.46 84.7 89.46C84.07 90.46 83.2 91.22 82.08 91.74C80.96 92.26 79.55 92.52 77.84 92.52C74.84 92.52 72.77 91.91 71.61 90.7C70.46 89.48 69.8 87.94 69.65 86.07Z" fill="#EE4284"/>
</g>
<defs>
<clipPath id="clip0_239_16">
<rect width="117" height="123" fill="white"/>
</clipPath>
</defs>
</svg>
