<svg width="46" height="47" viewBox="0 0 46 47" fill="none" xmlns="http://www.w3.org/2000/svg">
<g clip-path="url(#clip0_5515_21)">
<path fill-rule="evenodd" clip-rule="evenodd" d="M1.04668 24.1273L13.8888 14.3662V22.54H32.1112V14.3394L45.0653 24.1273H1.04668ZM28.9866 0V20.7193H17.0134V0H28.9866ZM26.5186 10.3654C26.5186 12.2931 24.9427 13.8537 22.9961 13.8537C21.0495 13.8537 19.4737 12.2931 19.4737 10.3654C19.4737 8.43766 21.0495 6.87712 22.9961 6.87712C24.9466 6.87329 26.5186 8.43384 26.5186 10.3654ZM27.1636 3.80957V16.8868C26.1903 16.8868 25.3946 17.6747 25.3946 18.6386H20.6633C20.6633 17.6747 19.8677 16.8868 18.8944 16.8868V3.80957C19.8677 3.80957 20.6633 3.02165 20.6633 2.05778H25.3946C25.3946 3.02547 26.1903 3.80957 27.1636 3.80957ZM0 44.5406H3.39882L3.8932 43.156H5.33384V29.7269H2.39076V26.5102H43.6092V29.7269H40.6662V43.156H42.1068L42.6012 44.5406H46V47H0V44.5406ZM15.3024 43.1598V29.7269H10.7565V43.156H12.1971H15.3024V43.1598ZM25.271 43.1598V29.7269H20.729V43.156C22.243 43.1598 23.757 43.1598 25.271 43.1598ZM35.2396 43.1598V29.7269H30.6976V43.156C32.2116 43.1598 33.7256 43.1598 35.2396 43.1598Z" fill="#797979"/>
</g>
<defs>
<clipPath id="clip0_5515_21">
<rect width="46" height="47" fill="white"/>
</clipPath>
</defs>
</svg>
