<svg width="438" height="513" viewBox="0 0 438 513" fill="none" xmlns="http://www.w3.org/2000/svg">
<g clip-path="url(#clip0_36_2)">
<path d="M107.62 54.52V25.03C107.62 18.13 110.44 11.87 114.96 7.34C119.49 2.82 125.75 0 132.65 0H324.11C327.33 0 330.21 1.45 332.14 3.74L435.01 109.14C436.98 111.17 437.97 113.8 437.97 116.43L438 432.82C438 439.64 435.18 445.89 430.64 450.44L430.6 450.49C426.03 455.03 419.78 457.85 412.97 457.85H330.38V487.34C330.38 494.18 327.57 500.43 323.03 504.98L322.99 505.02C318.42 509.56 312.19 512.37 305.35 512.37H25.03C18.13 512.37 11.87 509.55 7.34 505.03C2.82 500.5 0 494.24 0 487.34V79.56C0 72.65 2.82 66.39 7.34 61.87C11.87 57.34 18.13 54.52 25.03 54.52H107.62ZM417.03 130.55H338.18C329.64 130.55 321.87 127.04 316.23 121.41L316.19 121.37C310.55 115.73 307.05 107.96 307.05 99.42V20.97H132.65C131.55 20.97 130.53 21.43 129.79 22.17C129.06 22.91 128.59 23.93 128.59 25.03V54.52H186.27C189.48 54.52 192.36 55.97 194.28 58.25L327.35 193.81C329.35 195.84 330.35 198.5 330.35 201.14L330.38 436.87H412.97C414.08 436.87 415.09 436.42 415.81 435.7L415.85 435.66C416.57 434.94 417.03 433.93 417.03 432.82V130.55ZM405.34 109.58L328.02 30.81V99.42C328.02 102.22 329.16 104.77 330.99 106.61C332.83 108.44 335.38 109.58 338.18 109.58H405.34ZM309.41 216.85H203.01C192.77 216.85 183.46 212.66 176.72 205.93C169.99 199.2 165.8 189.88 165.8 179.64V75.5H25.03C23.93 75.5 22.91 75.96 22.17 76.7C21.44 77.43 20.97 78.45 20.97 79.56V487.34C20.97 488.44 21.44 489.46 22.17 490.2C22.91 490.94 23.93 491.4 25.03 491.4H305.35C306.48 491.4 307.49 490.95 308.2 490.24L308.25 490.19C308.96 489.48 309.41 488.47 309.41 487.34V216.85ZM297.27 195.88L186.77 83.31V179.64C186.77 184.09 188.61 188.16 191.55 191.1C194.5 194.05 198.56 195.88 203.01 195.88H297.27Z" fill="#797979"/>
</g>
<defs>
<clipPath id="clip0_36_2">
<rect width="438" height="512.37" fill="white"/>
</clipPath>
</defs>
</svg>
