<svg width="3554" height="3554" viewBox="0 0 3554 3554" fill="none" xmlns="http://www.w3.org/2000/svg">
<g clip-path="url(#clip0_243_33)">
<path d="M3419.04 1035.63C3484.25 986.935 3476.59 885.41 3419.04 827.858L2724.31 133.125C2666.76 75.5729 2574.09 75.5729 2516.54 133.125L1389.81 1257.9L264.596 2381.15C206.532 2741.37 146.95 3103.1 88.8828 3463.31L1166.97 3283.53C1749.79 2700.7 2025.2 2426.33 2303.18 2149.4C2581.16 1872.46 2854.56 1600.12 3419.04 1035.63V1035.63Z" stroke="#364DCE" stroke-width="35" stroke-miterlimit="6.2" stroke-linecap="round" stroke-linejoin="round"/>
<path d="M3070.95 1384.11L3083.21 1371.85C3121.29 1333.77 3121.29 1272.02 3083.21 1233.94L2307.84 458.572C2269.76 420.489 2208.02 420.489 2169.93 458.572L2157.68 470.831C2119.59 508.914 2119.59 570.659 2157.68 608.742L2933.04 1384.11C2971.12 1422.19 3032.86 1422.19 3070.95 1384.11Z" fill="#364DCE"/>
<path d="M733.142 3447.5L113.366 2827.72L88.8828 3463.31L733.142 3447.5Z" fill="#364DCE"/>
<path d="M1250.92 3192.67L1263.18 3180.41C1301.26 3142.32 1301.26 3080.58 1263.18 3042.5L487.817 2267.13C449.735 2229.04 387.99 2229.04 349.907 2267.13L337.649 2279.39C299.566 2317.47 299.566 2379.21 337.649 2417.3L1113.01 3192.67C1151.09 3230.75 1212.84 3230.75 1250.92 3192.67Z" fill="#364DCE"/>
</g>
<defs>
<clipPath id="clip0_243_33">
<rect width="3554" height="3554" fill="white"/>
</clipPath>
</defs>
</svg>
