<svg width="118" height="123" viewBox="0 0 118 123" fill="none" xmlns="http://www.w3.org/2000/svg">
<g clip-path="url(#clip0_6_2)">
<path fill-rule="evenodd" clip-rule="evenodd" d="M94.62 2C93.16 0.639996 91.48 -0.0900041 89.6 0.00999588C87.72 0.00999588 86.04 0.739996 84.68 2.21L73.59 13.72L104.66 43.75L115.85 32.03C117.21 30.67 117.73 28.89 117.73 27.01C117.73 25.13 117 23.35 115.64 22.09L94.62 2ZM41.44 109.58C37.36 110.94 33.18 112.2 29.09 113.56C25.01 114.92 20.93 116.28 16.74 117.64C7.01 120.78 1.67 122.56 0.520001 122.87C-0.629999 123.18 0.100001 118.69 2.51 109.27L10.25 79.66L10.89 79L41.45 109.56L41.44 109.58ZM22.2 67.25L65.19 22.43L96.26 52.35L52.75 97.8L22.2 67.25Z" fill="#797979"/>
</g>
<defs>
<clipPath id="clip0_6_2">
<rect width="117.74" height="122.88" fill="white"/>
</clipPath>
</defs>
</svg>
