<svg width="169" height="169" viewBox="0 0 169 169" fill="none" xmlns="http://www.w3.org/2000/svg">
<g clip-path="url(#clip0_12_5)">
<path d="M84.5254 0C107.85 0 128.994 9.48185 144.307 24.7441C159.62 40.057 169.051 61.1503 169.051 84.5254C169.051 107.85 159.569 128.994 144.307 144.307C128.994 159.62 107.9 169.051 84.5254 169.051C61.201 169.051 40.057 159.569 24.7441 144.307C9.43114 128.994 0 107.9 0 84.5254C0 61.201 9.48185 40.057 24.7441 24.7441C40.057 9.43114 61.1503 0 84.5254 0ZM93.703 57.6517H108.965V39.3471H93.703C81.9394 39.3471 72.3561 48.9304 72.3561 60.694V69.8716H60.1362V88.1761H72.3561V137.005H90.6607V88.1761H105.923L108.965 69.8716H90.6607V60.694C90.6607 59.0207 92.0804 57.6517 93.703 57.6517ZM139.997 29.1047C125.799 14.9073 106.227 6.13531 84.5761 6.13531C62.925 6.13531 43.3021 14.9073 29.1554 29.1047C14.958 43.3021 6.18602 62.8743 6.18602 84.5254C6.18602 106.176 14.958 125.799 29.1554 139.946C43.3528 154.143 62.925 162.915 84.5761 162.915C106.227 162.915 125.85 154.143 139.997 139.946C154.194 125.749 162.966 106.176 162.966 84.5254C162.966 62.8743 154.194 43.2514 139.997 29.1047Z" fill="#777777"/>
</g>
<defs>
<clipPath id="clip0_12_5">
<rect width="169" height="169" fill="white"/>
</clipPath>
</defs>
</svg>
