<svg width="64" height="64" viewBox="0 0 64 64" fill="none" xmlns="http://www.w3.org/2000/svg">
<g clip-path="url(#clip0_4_29)">
<path fill-rule="evenodd" clip-rule="evenodd" d="M31.9988 0.796933C14.3293 0.796933 0 15.1238 0 32.7956C0 46.9348 9.1678 58.9254 21.8826 63.1586C23.483 63.455 24.0712 62.4629 24.0712 61.6172C24.0712 60.8542 24.0393 58.3337 24.0263 55.662C15.1231 57.5979 13.2463 51.8848 13.2463 51.8848C11.7911 48.1855 9.6934 47.2017 9.6934 47.2017C6.7902 45.2138 9.9143 45.2575 9.9143 45.2575C13.1269 45.482 14.8183 48.5529 14.8183 48.5529C17.6743 53.4451 22.3066 52.0289 24.1314 51.2127C24.4196 49.1446 25.2464 47.732 26.1629 46.9324C19.0549 46.1257 11.5832 43.3808 11.5832 31.1184C11.5832 27.6258 12.8352 24.7699 14.8797 22.5304C14.5467 21.7226 13.4506 18.4698 15.188 14.063C15.188 14.063 17.875 13.202 23.9909 17.343C26.5421 16.6355 29.2787 16.2788 31.9965 16.267C34.7165 16.2788 37.4579 16.6343 40.0127 17.343C46.1203 13.2044 48.8049 14.063 48.8049 14.063C50.5447 18.471 49.4534 21.7261 49.1203 22.5305C51.1719 24.7699 52.4133 27.6258 52.4133 31.1184C52.4133 43.4091 44.925 46.1114 37.8016 46.904C38.9497 47.8961 39.9749 49.8438 39.9749 52.8273C39.9749 57.1065 39.9383 60.5553 39.9383 61.6077C39.9383 62.4593 40.5147 63.455 42.1375 63.1431C54.8451 58.9077 64.0012 46.9157 64.0012 32.7849C64.0012 15.1154 49.6743 0.786133 32.0012 0.786133L31.9989 0.796833L31.9988 0.796933Z" fill="#777777"/>
</g>
<defs>
<clipPath id="clip0_4_29">
<rect width="64" height="64" fill="white"/>
</clipPath>
</defs>
</svg>
