<svg width="105" height="104" viewBox="0 0 105 104" fill="none" xmlns="http://www.w3.org/2000/svg">
<g clip-path="url(#clip0_2_19)">
<path d="M52.5085 0C38.2471 0 36.4526 0.0592448 30.8557 0.313151C26.5013 0.400811 22.1934 1.21927 18.1152 2.73372C14.6101 4.0317 11.4362 6.07743 8.81836 8.72591C6.14682 11.3241 4.07682 14.4659 2.75146 17.9342C1.22186 21.976 0.398317 26.2462 0.316162 30.5619C0.0683594 36.1055 0 37.8743 0 52C0 66.1257 0.0598144 67.8861 0.316162 73.4381C0.404665 77.7511 1.231 82.018 2.76001 86.0573C4.07693 89.5258 6.14147 92.6682 8.80981 95.2656C11.4307 97.9145 14.6034 99.9652 18.1067 101.275C22.1884 102.786 26.499 103.601 30.8557 103.687C36.4526 103.941 38.2385 104 52.5 104C66.7615 104 68.5388 103.941 74.1443 103.687C78.501 103.601 82.8116 102.786 86.8933 101.275C90.385 99.9333 93.5561 97.8858 96.2044 95.2628C98.8526 92.6397 100.92 89.4988 102.274 86.0404C103.795 81.9988 104.621 77.7333 104.718 73.4212C104.966 67.8776 105.034 66.1087 105.034 51.9831C105.034 37.8574 104.966 36.0885 104.718 30.5449C104.621 26.2301 103.795 21.9618 102.274 17.9173C100.955 14.4478 98.8877 11.3052 96.2158 8.70898C93.5996 6.05856 90.4252 4.01254 86.9189 2.7168C82.826 1.20437 78.5035 0.391596 74.1357 0.313151C68.5303 0.0592448 66.7529 0 52.4915 0H52.5085ZM47.7917 9.36914H52.5085C66.5222 9.36914 68.1799 9.41992 73.717 9.67383C77.0463 9.71136 80.3442 10.3154 83.4668 11.4596C85.7466 12.2938 87.8082 13.6242 89.4995 15.3529C91.2412 17.031 92.5839 19.0721 93.4302 21.3281C94.5854 24.421 95.1953 27.6875 95.2332 30.985C95.4895 36.4609 95.5408 38.1113 95.5408 51.9915C95.5408 65.8717 95.4895 67.5137 95.2332 72.998C95.1961 76.2929 94.5862 79.5568 93.4302 82.6465C92.5556 84.8874 91.2174 86.9223 89.5015 88.6204C87.7856 90.3184 85.73 91.6422 83.4668 92.5065C80.3464 93.6595 77.0474 94.2666 73.717 94.3008C68.1885 94.5547 66.5222 94.6055 52.5085 94.6055C38.4949 94.6055 36.8286 94.5547 31.2915 94.3008C27.9618 94.2605 24.6638 93.6536 21.5417 92.5065C19.2597 91.676 17.1952 90.3484 15.5005 88.6217C13.7583 86.9456 12.4181 84.9037 11.5784 82.6465C10.4202 79.5541 9.80748 76.2876 9.76685 72.9896C9.51904 67.5052 9.46777 65.8633 9.46777 51.9746C9.46777 38.0859 9.51904 36.4525 9.76685 30.9681C9.80235 27.6696 10.4153 24.4022 11.5784 21.3112C12.4181 19.0539 13.7583 17.012 15.5005 15.3359C17.1965 13.6089 19.2605 12.2788 21.5417 11.4427C24.6648 10.2992 27.9621 9.69235 31.2915 9.64844C36.1365 9.43685 38.0078 9.36914 47.7917 9.36068V9.36914ZM80.5273 18.002C79.2797 18.002 78.0602 18.3685 77.0229 19.0552C75.9857 19.7419 75.1774 20.7179 74.7004 21.8597C74.2234 23.0015 74.099 24.2579 74.343 25.4697C74.587 26.6816 75.1885 27.7945 76.0713 28.6677C76.954 29.5409 78.0785 30.1351 79.3023 30.3752C80.5262 30.6152 81.7944 30.4903 82.9465 30.0163C84.0987 29.5422 85.083 28.7403 85.7749 27.712C86.4668 26.6838 86.8352 25.4753 86.8335 24.2396C86.8335 23.4197 86.6703 22.6079 86.3533 21.8506C86.0363 21.0933 85.5716 20.4052 84.9859 19.8259C84.4003 19.2466 83.705 18.7873 82.94 18.4743C82.1749 18.1614 81.3551 18.0008 80.5273 18.002ZM52.5085 25.2975C47.1765 25.2975 41.9642 26.8636 37.5308 29.7977C33.0974 32.7318 29.6419 36.9022 27.6015 41.7814C25.561 46.6606 25.0271 52.0296 26.0673 57.2094C27.1076 62.3892 29.6752 67.1471 33.4455 70.8815C37.2158 74.6159 42.0195 77.1591 47.2491 78.1894C52.4786 79.2197 57.8992 78.6909 62.8254 76.6699C67.7515 74.6488 71.962 71.2263 74.9243 66.8351C77.8866 62.4439 79.4678 57.2813 79.4678 52C79.4655 44.9188 76.6244 38.1282 71.5691 33.121C66.5138 28.1138 59.6579 25.2998 52.5085 25.2975ZM52.5085 34.6667C55.9708 34.6616 59.3568 35.674 62.238 37.5755C65.1192 39.4771 67.3662 42.1824 68.6947 45.3492C70.0232 48.516 70.3734 52.002 69.701 55.366C69.0287 58.73 67.364 61.8209 64.9176 64.2475C62.4712 66.6742 59.3531 68.3275 55.9577 68.9984C52.5623 69.6693 49.0424 69.3275 45.8432 68.0163C42.644 66.7052 39.9093 64.4835 37.9853 61.6325C36.0612 58.7815 35.0342 55.4293 35.0342 52C35.0432 47.4132 36.8874 43.0169 40.1628 39.7743C43.4382 36.5317 47.8776 34.7072 52.5085 34.7005V34.6667Z" fill="#777777"/>
</g>
<defs>
<clipPath id="clip0_2_19">
<rect width="105" height="104" fill="white"/>
</clipPath>
</defs>
</svg>
