<svg width="255" height="255" viewBox="0 0 255 255" fill="none" xmlns="http://www.w3.org/2000/svg">
<g clip-path="url(#clip0_111_13)">
<path fill-rule="evenodd" clip-rule="evenodd" d="M112.084 103.591H136.719V116.215H137.102C140.545 110.018 148.96 103.591 161.431 103.591C187.444 103.591 192.264 119.811 192.264 140.927V183.848H166.557V145.747C166.557 136.643 166.404 125.014 153.168 125.014C139.779 125.014 137.714 134.883 137.714 145.135V183.848H112.007V103.591H112.084ZM127.538 0C162.732 0 194.635 14.3069 217.741 37.3357C240.846 60.441 255.077 92.2682 255.077 127.538C255.077 162.732 240.77 194.635 217.741 217.741C194.635 240.846 162.808 255.077 127.538 255.077C92.3447 255.077 60.441 240.77 37.3357 217.741C14.2304 194.635 0 162.808 0 127.538C0 92.3447 14.3069 60.441 37.3357 37.3357C60.441 14.2304 92.2682 0 127.538 0ZM211.161 43.8389C189.739 22.4167 160.207 9.18092 127.538 9.18092C94.8695 9.18092 65.261 22.4167 43.9154 43.8389C22.4932 65.261 9.25743 94.793 9.25743 127.462C9.25743 160.131 22.4932 189.739 43.9154 211.085C65.3375 232.507 94.8695 245.743 127.538 245.743C160.207 245.743 189.815 232.507 211.161 211.085C232.583 189.662 245.819 160.131 245.819 127.462C245.819 94.793 232.583 65.1845 211.161 43.8389ZM94.2574 81.3276C94.2574 88.7489 88.2898 94.7165 80.8686 94.7165C73.4473 94.7165 67.4797 88.7489 67.4797 81.3276C67.4797 73.9064 73.4473 67.9388 80.8686 67.9388C88.2898 67.9388 94.2574 73.9064 94.2574 81.3276ZM67.4797 103.591H94.2574V183.848H67.4797V103.591Z" fill="#777777"/>
</g>
<defs>
<clipPath id="clip0_111_13">
<rect width="255" height="255" fill="white"/>
</clipPath>
</defs>
</svg>
