<svg width="123" height="109" viewBox="0 0 123 109" fill="none" xmlns="http://www.w3.org/2000/svg">
<g clip-path="url(#clip0_5656_2)">
<path fill-rule="evenodd" clip-rule="evenodd" d="M65.8401 64.4502L64.3401 57.5802C70.7701 58.7802 81.0901 71.8802 84.4301 77.8302C86.2292 81.0678 87.7062 84.4741 88.8401 88.0002C91.2701 97.0602 88.9301 105.54 79.1001 107.51C72.9501 108.75 61.4601 108.83 54.9901 108.51C47.9901 108.15 37.2501 108.16 34.4401 101.01C29.9001 89.4202 38.2201 75.6802 45.8101 67.2702C46.7869 66.1852 47.8182 65.1505 48.9001 64.1702C51.6601 61.7502 54.6401 58.8702 58.1901 57.6702L54.7601 64.0602L59.7601 57.4502H62.3801L65.8501 64.4502H65.8401ZM28.0001 87.2502C27.922 87.0966 27.8317 86.9494 27.7301 86.8102C27.2801 86.0702 26.8201 85.3302 26.3701 84.4902C25.9201 83.6502 25.4401 82.7302 25.0001 82.0002C24.5601 81.2702 24.2201 80.2402 23.8801 79.3302C23.5401 78.4202 23.2601 77.6402 22.8801 76.5702C22.6597 75.842 22.2155 75.2018 21.6105 74.7405C21.0056 74.2791 20.2706 74.0201 19.5101 74.0002H9.72012C9.41229 74.0096 9.10585 73.9551 8.82012 73.8402C8.56405 73.7181 8.33595 73.5445 8.15012 73.3302C7.94843 73.1329 7.77662 72.9072 7.64012 72.6602C7.51481 72.3738 7.45666 72.0625 7.47012 71.7502V59.4502C7.46758 59.1625 7.50803 58.876 7.59012 58.6002C7.73177 58.3052 7.92478 58.0377 8.16012 57.8102C8.34244 57.6043 8.5725 57.4464 8.83012 57.3502C9.11912 57.2345 9.42898 57.18 9.74012 57.1902H18.7401C19.5977 57.1871 20.4276 56.8863 21.0879 56.3391C21.7482 55.7919 22.1979 55.0323 22.3601 54.1902C22.5801 53.1902 22.8101 52.3202 23.0301 51.5202C23.2501 50.7202 23.6001 49.7702 23.9401 48.8602C24.2454 47.9747 24.5992 47.1067 25.0001 46.2602C25.4001 45.3602 25.8601 44.5702 26.2501 43.7802C26.6251 43.0944 26.7675 42.3054 26.6556 41.5318C26.5438 40.7582 26.184 40.0418 25.6301 39.4902L18.6301 32.4102C18.5801 32.4102 18.5801 32.4102 18.5101 32.4102C18.306 32.2174 18.1368 31.9907 18.0101 31.7402C17.9027 31.4916 17.8613 31.2195 17.8901 30.9502C17.8775 30.6573 17.9358 30.3657 18.0601 30.1002C18.1856 29.7958 18.3808 29.5252 18.6301 29.3102L27.2801 20.7102C27.5007 20.4671 27.7699 20.2729 28.0701 20.1402C28.3368 20.0195 28.6275 19.9613 28.9201 19.9702C29.2125 19.964 29.5026 20.0221 29.7701 20.1402C30.0405 20.273 30.2898 20.4448 30.5101 20.6502H30.5601L37.0001 27.0002C37.6039 27.6004 38.3994 27.9693 39.2475 28.0424C40.0957 28.1155 40.9426 27.8882 41.6401 27.4002C42.3801 26.9502 43.1101 26.5002 43.9501 26.0502L46.5001 24.7402C47.3501 24.3402 48.2601 23.9502 49.1601 23.6202C50.0601 23.2902 50.8601 23.0002 51.9301 22.6202C52.6544 22.3799 53.2841 21.9169 53.7295 21.2973C54.1749 20.6777 54.4131 19.9333 54.4101 19.1702V9.3902C54.3977 9.07795 54.4558 8.76691 54.5801 8.4802C54.7065 8.2486 54.8467 8.02486 55.0001 7.8102C55.1869 7.60726 55.4203 7.45282 55.6801 7.3602C55.9629 7.23468 56.271 7.17649 56.5801 7.1902H66.2701C66.579 7.17896 66.8866 7.23704 67.1701 7.3602C67.4293 7.44841 67.6604 7.60367 67.8401 7.8102C68.0102 8.02155 68.164 8.24553 68.3001 8.4802C68.417 8.76887 68.4715 9.07898 68.4601 9.3902V19.1702C68.4637 19.9413 68.7115 20.6914 69.1678 21.313C69.6241 21.9346 70.2655 22.3957 71.0001 22.6302C72.0701 22.9602 73.0001 23.3002 73.7601 23.5802C74.5201 23.8602 75.5701 24.3202 76.4301 24.7102C77.2901 25.1002 78.0701 25.5602 78.9701 26.0102C79.8701 26.4602 80.5501 26.9202 81.2901 27.3702C81.9863 27.862 82.834 28.0917 83.6832 28.0185C84.5325 27.9453 85.3284 27.5739 85.9301 26.9702L92.3201 20.5802C92.5336 20.3691 92.7846 20.1995 93.0601 20.0802C93.3248 19.9536 93.617 19.8951 93.9101 19.9102C94.2029 19.8984 94.4944 19.9567 94.7601 20.0802C95.0624 20.2094 95.3322 20.4041 95.5501 20.6502L104.2 29.2502C104.443 29.4708 104.637 29.7399 104.77 30.0402C104.898 30.3047 104.956 30.5971 104.94 30.8902C104.968 31.1595 104.927 31.4314 104.82 31.6802C104.689 31.928 104.52 32.154 104.32 32.3502C104.26 32.3502 104.26 32.3502 104.2 32.3502L97.2001 39.4202C96.644 39.9725 96.2827 40.6908 96.1709 41.4665C96.059 42.2422 96.2027 43.0333 96.5801 43.7202C96.9801 44.5002 97.4401 45.2902 97.8201 46.2002C98.2639 47.0602 98.6578 47.945 99.0001 48.8502C99.3301 49.7502 99.6201 50.6002 99.9001 51.5102C100.18 52.4202 100.36 53.2002 100.58 54.1702C100.741 55.0132 101.19 55.7738 101.85 56.3214C102.511 56.8689 103.342 57.1691 104.2 57.1702H113.2C113.512 57.1588 113.823 57.2169 114.11 57.3402C114.371 57.4248 114.603 57.5806 114.78 57.7902C115.006 58.0259 115.198 58.2918 115.35 58.5802C115.42 58.8617 115.457 59.1503 115.46 59.4402V71.7702C115.469 72.0813 115.415 72.391 115.3 72.6802C115.165 72.9282 114.993 73.1542 114.79 73.3502C114.607 73.5653 114.378 73.7362 114.12 73.8502C113.833 73.9745 113.522 74.0326 113.21 74.0202H103.43C102.655 74.0048 101.894 74.2369 101.26 74.6829C100.625 75.1288 100.149 75.7654 99.9001 76.5002C99.5701 77.5802 99.2301 78.5002 98.9001 79.2702C98.5701 80.0402 98.1601 81.0802 97.7701 81.9302C96.9201 83.6102 96.1101 85.2002 95.1101 86.7902C95.0101 86.9402 94.9201 87.0802 94.8401 87.2302H103.4C103.76 86.5102 104.12 85.7302 104.5 84.9302C104.95 83.9302 105.4 82.9302 105.8 81.8802C105.85 81.7102 105.97 81.4802 106.03 81.3102H113.28C114.535 81.3217 115.78 81.0943 116.95 80.6402C118.115 80.1564 119.172 79.446 120.06 78.5502C120.975 77.6725 121.691 76.6085 122.16 75.4302C122.608 74.2587 122.835 73.0144 122.83 71.7602V59.4402C122.818 58.1972 122.567 56.9681 122.09 55.8202C121.64 54.6741 120.959 53.6326 120.09 52.7602C119.238 51.8717 118.219 51.1613 117.09 50.6702C115.933 50.1649 114.682 49.9126 113.42 49.9302H107.25C107.242 49.7746 107.205 49.622 107.14 49.4802C106.8 48.4102 106.46 47.3302 106.06 46.3102C105.66 45.2902 105.21 44.2202 104.76 43.3102C104.673 43.1673 104.599 43.0167 104.54 42.8602L109.63 37.7102C110.556 36.8778 111.289 35.8542 111.78 34.7102C112.254 33.5443 112.502 32.2988 112.51 31.0402C112.527 29.7792 112.278 28.5289 111.78 27.3702C111.276 26.2317 110.564 25.1973 109.68 24.3202L101.03 15.7202C100.135 14.8253 99.0759 14.1122 97.9101 13.6202C96.7466 13.1382 95.4995 12.8902 94.2401 12.8902C92.9807 12.8902 91.7336 13.1382 90.5701 13.6202C89.3938 14.0927 88.3306 14.8083 87.4501 15.7202L82.9201 20.0002L82.5801 19.8302C81.6701 19.3202 80.6501 18.8302 79.5801 18.3502C78.5101 17.8702 77.5801 17.4502 76.5801 17.0502C76.4101 17.0002 76.1801 16.8802 76.0101 16.8102V9.5502C76.0216 8.29544 75.7942 7.04996 75.3401 5.8802C74.855 4.71358 74.141 3.65606 73.2401 2.7702C72.3331 1.87163 71.2598 1.15835 70.0801 0.670203C68.9059 0.219464 67.6578 -0.00777358 66.4001 0.00020293H56.4901C55.2358 -0.00676194 53.9911 0.220462 52.8201 0.670203C51.6577 1.16848 50.5993 1.88085 49.7001 2.7702C48.8022 3.65645 48.0915 4.71404 47.6101 5.8802C47.1487 7.04819 46.9178 8.29445 46.9301 9.5502V16.7902C46.7601 16.8502 46.5301 16.9602 46.3601 17.0302C45.3601 17.4302 44.3601 17.8802 43.3601 18.3302C42.3601 18.7802 41.2701 19.3302 40.3601 19.8102L40.0001 20.0002L35.5901 15.6402C34.7096 14.7283 33.6464 14.0127 32.4701 13.5402C31.3079 13.0539 30.06 12.8057 28.8001 12.8102C27.5391 12.7937 26.2888 13.0424 25.1301 13.5402C23.9618 14.024 22.8987 14.7305 22.0001 15.6202L13.3501 24.2202H13.3001C12.4229 25.1006 11.7146 26.1344 11.2101 27.2702C10.7086 28.4245 10.4564 29.6717 10.4701 30.9302C10.4769 32.1899 10.7282 33.4363 11.2101 34.6002C11.705 35.7393 12.4342 36.7614 13.3501 37.6002L18.4501 42.7402C18.3866 42.8981 18.3132 43.0517 18.2301 43.2002C17.7801 44.1502 17.3701 45.2002 16.9201 46.2002C16.4701 47.2002 16.1901 48.2902 15.8501 49.3702C15.7858 49.5126 15.7453 49.6647 15.7301 49.8202H9.56012C8.29579 49.8023 7.04188 50.0511 5.88012 50.5502C4.75439 51.0508 3.73578 51.7638 2.88012 52.6502H2.83012C1.96898 53.5059 1.28882 54.5262 0.830117 55.6502C0.299188 56.8441 0.0167914 58.1336 0.00011699 59.4402V71.7602C-0.00591392 73.0145 0.221279 74.259 0.670117 75.4302C1.13878 76.6085 1.85491 77.6725 2.77012 78.5502C3.65637 79.4481 4.71395 80.1588 5.88012 80.6402C7.05333 81.0944 8.3021 81.3218 9.56012 81.3102H16.7901C16.8501 81.4802 16.9601 81.7102 17.0301 81.8802C17.4301 82.8802 17.8801 83.8802 18.3301 84.9302C18.7201 85.7502 19.0701 86.5202 19.4301 87.2302H28.0001V87.2502ZM62.6301 69.9102V71.8402C63.7561 71.9423 64.8611 72.2084 65.9101 72.6302C66.8351 73.033 67.6534 73.6459 68.3001 74.4202C68.8046 74.9801 69.2256 75.61 69.5501 76.2902C69.8225 76.8421 69.9759 77.4452 70.0001 78.0602C70.0032 78.3492 69.9471 78.6358 69.8353 78.9024C69.7235 79.1689 69.5584 79.4098 69.3501 79.6102C69.146 79.8226 68.9004 79.9908 68.6287 80.1043C68.3569 80.2178 68.0646 80.2743 67.7701 80.2702C67.2237 80.2863 66.6903 80.102 66.2703 79.752C65.8503 79.402 65.5729 78.9106 65.4901 78.3702C65.3275 77.6622 64.9784 77.0106 64.479 76.4831C63.9796 75.9556 63.3481 75.5713 62.6501 75.3702V82.8002C64.1201 83.2102 65.3101 83.5802 66.1801 83.9102C67.0524 84.2378 67.8536 84.7301 68.5401 85.3602C69.273 86.0109 69.8564 86.8126 70.2501 87.7102C70.6533 88.6586 70.8575 89.6797 70.8501 90.7102C70.8442 92.0475 70.5002 93.3616 69.8501 94.5302C69.1918 95.7357 68.2167 96.7384 67.0301 97.4302C65.6836 98.2205 64.1688 98.6798 62.6101 98.7702V101.13C62.6379 101.649 62.5666 102.168 62.4001 102.66C62.3238 102.829 62.1947 102.968 62.0323 103.056C61.8698 103.145 61.683 103.178 61.5001 103.15C61.3292 103.168 61.1567 103.141 60.999 103.073C60.8414 103.005 60.704 102.897 60.6001 102.76C60.3981 102.387 60.3078 101.963 60.3401 101.54V98.8302C59.0754 98.7071 57.841 98.3689 56.6901 97.8302C55.7164 97.3885 54.8344 96.7678 54.0901 96.0002C53.4441 95.3198 52.9229 94.5312 52.5501 93.6702C52.229 92.9208 52.0591 92.1154 52.0501 91.3002C52.0522 91.0116 52.1126 90.7264 52.2277 90.4617C52.3429 90.1971 52.5104 89.9585 52.7201 89.7602C52.9349 89.535 53.1945 89.3573 53.4821 89.2385C53.7697 89.1196 54.079 89.0623 54.3901 89.0702C54.8703 89.054 55.3443 89.183 55.7501 89.4402C56.1185 89.6971 56.3897 90.0704 56.5201 90.5002C56.7532 91.2623 57.0303 92.0102 57.3501 92.7402C57.613 93.2828 57.9839 93.766 58.4401 94.1602C58.9962 94.6345 59.6527 94.9764 60.3601 95.1602V86.8202C58.9829 86.4546 57.6436 85.9591 56.3601 85.3402C55.2957 84.8089 54.3941 84.0006 53.7501 83.0002C52.9635 81.599 52.6368 79.986 52.8162 78.3891C52.9956 76.7922 53.6721 75.2919 54.7501 74.1002C56.3049 72.6889 58.3114 71.8771 60.4101 71.8102V69.9102C60.4101 68.9102 60.7901 68.4102 61.5401 68.4102C62.2901 68.4102 62.6801 68.9002 62.6801 69.8802L62.6301 69.9102ZM60.3601 82.1702V75.3302C59.4976 75.5437 58.6922 75.943 58.0001 76.5002C57.4778 77.1064 57.1906 77.88 57.1906 78.6802C57.1906 79.4804 57.4778 80.254 58.0001 80.8602C58.711 81.4433 59.5251 81.8877 60.4001 82.1702H60.3601ZM62.6301 87.4802V95.3102C63.6935 95.1443 64.6733 94.6351 65.4201 93.8602C66.065 93.1719 66.4227 92.2634 66.4201 91.3202C66.4441 90.8708 66.3667 90.4217 66.1936 90.0062C66.0205 89.5908 65.7562 89.2196 65.4201 88.9202C64.5951 88.248 63.6376 87.7574 62.6101 87.4802H62.6301ZM56.1001 47.7602C54.9701 44.4102 53.9401 41.0202 53.1001 37.5802C56.3201 34.0502 68.7501 34.5202 72.3301 37.5802L69.0001 45.4002C70.7801 43.0602 71.3801 42.1002 72.4401 40.8002C72.8825 41.1043 73.3035 41.4384 73.7001 41.8002C74.7246 42.5575 75.4361 43.6639 75.7001 44.9102C75.7521 45.3824 75.6993 45.8602 75.5454 46.3096C75.3916 46.759 75.1405 47.1689 74.8101 47.5102L67.2101 56.3602C66.2401 56.2031 65.2862 55.9588 64.3601 55.6302C64.7901 54.6302 65.3601 53.5102 65.7401 52.4902L62.9701 55.4902C60.4934 54.8668 57.8733 55.1876 55.6201 56.3902L47.8601 47.1002C47.4539 46.6443 47.2203 46.0605 47.2001 45.4502C47.2001 43.2102 50.5401 41.2802 52.2801 40.5502L56.1001 47.7602Z" fill="#E53B24"/>
</g>
<defs>
<clipPath id="clip0_5656_2">
<rect width="122.88" height="108.63" fill="white"/>
</clipPath>
</defs>
</svg>
