<svg width="114" height="123" viewBox="0 0 114 123" fill="none" xmlns="http://www.w3.org/2000/svg">
<g clip-path="url(#clip0_5610_9)">
<path d="M53.114 2.457C53.114 1.1 54.643 0 56.527 0C58.411 0 59.94 1.1 59.94 2.457V46.834C59.94 48.191 58.412 49.291 56.527 49.291C54.642 49.291 53.114 48.191 53.114 46.834V2.457ZM73.615 19.661C71.847 19.013 70.94 17.056 71.589 15.288C72.236 13.521 74.193 12.614 75.961 13.262C86.923 17.277 96.3 24.601 102.885 34.028C109.294 43.202 113.055 54.348 113.055 66.353C113.055 81.959 106.726 96.091 96.496 106.322C86.266 116.551 72.134 122.881 56.527 122.881C40.92 122.881 26.788 116.552 16.558 106.322C6.329 96.091 0 81.959 0 66.353C0 54.348 3.76 43.202 10.169 34.028C16.754 24.601 26.131 17.277 37.093 13.262C38.86 12.615 40.818 13.522 41.465 15.288C42.113 17.055 41.206 19.013 39.439 19.661C29.78 23.199 21.526 29.639 15.741 37.92C10.122 45.964 6.825 55.766 6.825 66.353C6.825 80.076 12.389 92.501 21.384 101.496C30.379 110.491 42.804 116.056 56.527 116.056C70.25 116.056 82.675 110.492 91.67 101.496C100.665 92.502 106.229 80.076 106.229 66.353C106.229 55.766 102.932 45.964 97.313 37.92C91.527 29.638 83.274 23.198 73.615 19.661Z" fill="#858585"/>
</g>
<defs>
<clipPath id="clip0_5610_9">
<rect width="113.055" height="122.88" fill="white"/>
</clipPath>
</defs>
</svg>
