<svg width="123" height="121" viewBox="0 0 123 121" fill="none" xmlns="http://www.w3.org/2000/svg">
<g clip-path="url(#clip0_239_20)">
<path d="M82.69 4.21C82.69 1.87 85 0 87.84 0C90.68 0 93 1.91 93 4.21V22.71C93 25.05 90.7 26.92 87.84 26.92C84.98 26.92 82.69 25.02 82.69 22.71V4.21ZM73.93 71.34H49.93V62.65H57.48V44.82L48.87 45.47V36.78L60.32 34H68.9V62.7H73.9V71.39L73.93 71.34ZM29.67 4.21C29.67 1.87 32 0 34.83 0C37.66 0 40 1.91 40 4.21V22.71C40 25.05 37.7 26.92 34.84 26.92C31.98 26.92 29.68 25.02 29.68 22.71V4.21H29.67ZM6.76 111.3C6.7578 111.999 7.03081 112.671 7.52 113.17C7.76476 113.415 8.05669 113.608 8.37812 113.737C8.69954 113.866 9.04378 113.928 9.39 113.92H113.39C114.084 113.923 114.752 113.654 115.25 113.17C115.495 112.925 115.688 112.633 115.817 112.312C115.946 111.99 116.008 111.646 116 111.3V20.3C116.003 19.9613 115.938 19.6254 115.81 19.3119C115.682 18.9983 115.493 18.7133 115.254 18.4733C115.015 18.2333 114.73 18.0432 114.417 17.9139C114.104 17.7846 113.769 17.7187 113.43 17.72H105.1C103.51 17.72 102.24 15.37 102.24 13.78C102.239 13.404 102.312 13.0316 102.455 12.684C102.598 12.3364 102.809 12.0206 103.075 11.7547C103.341 11.4889 103.656 11.2783 104.004 11.135C104.352 10.9918 104.724 10.9187 105.1 10.92H114.51C116.717 10.9357 118.829 11.8194 120.39 13.3801C121.951 14.9408 122.834 17.0529 122.85 19.26V112.46C122.839 114.669 121.957 116.784 120.396 118.346C118.834 119.907 116.719 120.789 114.51 120.8H8.34C7.24669 120.8 6.16418 120.584 5.15497 120.163C4.14575 119.743 3.22981 119.126 2.46 118.35C1.67987 117.572 1.06099 116.648 0.638841 115.63C0.216697 114.613 -0.00040012 113.522 5.53599e-07 112.42V19.22C0.00180426 18.1261 0.220101 17.0433 0.642307 16.0341C1.06451 15.025 1.68228 14.1093 2.46 13.34C4.01762 11.7748 6.13183 10.8902 8.34 10.88H18.43C18.806 10.8787 19.1784 10.9518 19.526 11.095C19.8736 11.2383 20.1894 11.4489 20.4553 11.7147C20.7211 11.9806 20.9317 12.2964 21.075 12.644C21.2182 12.9916 21.2913 13.364 21.29 13.74C21.29 15.33 20.02 17.68 18.43 17.68H9.43C8.73305 17.6783 8.06264 17.9472 7.56 18.43C7.3146 18.675 7.12088 18.9667 6.99033 19.2879C6.85978 19.6091 6.79506 19.9533 6.8 20.3C6.8 49.11 6.8 82.36 6.8 111.3H6.76ZM51.55 17.64C49.96 17.64 48.69 15.29 48.69 13.7C48.6887 13.324 48.7618 12.9516 48.905 12.604C49.0483 12.2564 49.2589 11.9406 49.5247 11.6747C49.7906 11.4089 50.1064 11.1983 50.454 11.055C50.8016 10.9118 51.174 10.8387 51.55 10.84H70.77C71.1455 10.8387 71.5175 10.9118 71.8645 11.0552C72.2116 11.1986 72.5267 11.4093 72.7918 11.6753C73.0568 11.9413 73.2665 12.2572 73.4086 12.6047C73.5508 12.9522 73.6226 13.3245 73.62 13.7C73.62 15.29 72.36 17.64 70.77 17.64H51.55Z" fill="#F79326"/>
<path d="M20.1813 103.31H13.7812L14.9412 84.1905H22.9413L25.3212 93.9205H25.5413L27.9313 84.1905H35.9313L37.0913 103.31H30.6712L30.3013 94.0005H30.0913L27.7613 103.27H23.0813L20.7212 94.0005H20.5413L20.1813 103.27V103.31ZM38.0013 93.7705C38.0013 90.2805 38.6513 87.7705 40.0013 86.1305C41.3513 84.4905 43.6613 83.7305 47.0613 83.7305C50.4613 83.7305 52.8313 84.5305 54.1313 86.1305C55.4313 87.7305 56.1313 90.2805 56.1313 93.7705C56.1553 95.2378 56.0178 96.7033 55.7213 98.1405C55.4748 99.2603 54.9906 100.314 54.3013 101.23C53.5827 102.136 52.6117 102.807 51.5112 103.16C50.0848 103.605 48.5948 103.811 47.1012 103.77C45.611 103.81 44.1245 103.604 42.7013 103.16C41.6022 102.81 40.6338 102.138 39.9212 101.23C39.2245 100.317 38.7364 99.2626 38.4913 98.1405C38.1678 96.7062 38.0035 95.2407 38.0013 93.7705ZM44.5813 90.5905V98.5905H47.1012C47.722 98.6314 48.344 98.5323 48.9212 98.3005C49.3012 98.1105 49.4813 97.6605 49.4813 96.9705V89.0005H46.9113C46.3014 88.9637 45.6908 89.0593 45.1213 89.2805C44.7513 89.4805 44.5613 89.9205 44.5613 90.6205L44.5813 90.5905ZM68.9613 103.31L64.2812 96.5205C64.0752 96.0588 63.9793 95.5556 64.0013 95.0505H63.8813V103.31H57.7113V84.1905H63.4713L68.1513 91.0005C68.3652 91.4601 68.468 91.9637 68.4512 92.4705H68.5713V84.1905H74.6913V103.31H68.9613ZM90.9613 89.0905H86.4713V103.31H80.3512V89.0905H75.9113V84.1905H90.9113V89.0905H90.9613ZM102.901 103.31V96.5505H98.2513V103.31H92.1312V84.1905H98.2513V91.0005H102.841V84.1905H109.001V103.31H102.901Z" fill="#F79326"/>
</g>
<defs>
<clipPath id="clip0_239_20">
<rect width="122.88" height="120.76" fill="white"/>
</clipPath>
</defs>
</svg>
