<svg width="41" height="50" viewBox="0 0 41 50" fill="none" xmlns="http://www.w3.org/2000/svg">
<g clip-path="url(#clip0_5515_41)">
<path d="M31.2363 46.297C31.2363 45.9851 31.3608 45.686 31.5823 45.4655C31.8038 45.245 32.1042 45.1211 32.4175 45.1211C32.7307 45.1211 33.0311 45.245 33.2526 45.4655C33.4741 45.686 33.5986 45.9851 33.5986 46.297V47.827C33.5982 48.4009 33.3689 48.9513 32.961 49.3569C32.7603 49.5596 32.521 49.7205 32.2572 49.8302C31.9934 49.9399 31.7102 49.9961 31.4243 49.9957H2.18242C1.89658 49.9957 1.61359 49.9392 1.34982 49.8295C1.08605 49.7199 0.84674 49.5592 0.645734 49.3569C0.441951 49.157 0.279967 48.9189 0.169135 48.6563C0.0583026 48.3937 0.000817834 48.1118 1.31068e-08 47.827V9.38295C-3.14687e-05 9.09775 0.0566509 8.81536 0.166778 8.55207C0.276905 8.28879 0.438297 8.04981 0.641647 7.84894L0.735646 7.76349C1.13325 7.40883 1.64858 7.21316 2.18242 7.21417H3.67823C3.83891 7.20475 3.99982 7.22812 4.1511 7.28286C4.30238 7.33759 4.44082 7.42253 4.55793 7.53247C4.67504 7.6424 4.76835 7.775 4.83212 7.92214C4.8959 8.06927 4.9288 8.22783 4.9288 8.38808C4.9288 8.54833 4.8959 8.70689 4.83212 8.85402C4.76835 9.00116 4.67504 9.13376 4.55793 9.24369C4.44082 9.35363 4.30238 9.43857 4.1511 9.4933C3.99982 9.54804 3.83891 9.57141 3.67823 9.56199H2.36224V47.6479H31.2363V46.297ZM15.1216 34.8061C14.9741 34.8152 14.8262 34.794 14.6872 34.744C14.5481 34.694 14.4209 34.6162 14.3132 34.5154C14.2055 34.4146 14.1197 34.2929 14.061 34.1578C14.0023 34.0227 13.9721 33.8771 13.9721 33.7299C13.9721 33.5827 14.0023 33.4371 14.061 33.302C14.1197 33.1669 14.2055 33.0452 14.3132 32.9444C14.4209 32.8435 14.5481 32.7657 14.6872 32.7157C14.8262 32.6657 14.9741 32.6446 15.1216 32.6536H25.6127C25.7603 32.6446 25.9081 32.6657 26.0472 32.7157C26.1862 32.7657 26.3135 32.8435 26.4212 32.9444C26.5289 33.0452 26.6147 33.1669 26.6733 33.302C26.732 33.4371 26.7623 33.5827 26.7623 33.7299C26.7623 33.8771 26.732 34.0227 26.6733 34.1578C26.6147 34.2929 26.5289 34.4146 26.4212 34.5154C26.3135 34.6162 26.1862 34.694 26.0472 34.744C25.9081 34.794 25.7603 34.8152 25.6127 34.8061H15.1216ZM15.1216 28.2103C14.8327 28.2103 14.5557 28.096 14.3515 27.8927C14.1472 27.6893 14.0324 27.4135 14.0324 27.1259C14.0324 26.8383 14.1472 26.5625 14.3515 26.3591C14.5557 26.1557 14.8327 26.0415 15.1216 26.0415H29.3931C29.6804 26.0415 29.9559 26.1551 30.159 26.3573C30.3621 26.5595 30.4762 26.8338 30.4762 27.1198C30.4762 27.4057 30.3621 27.68 30.159 27.8822C29.9559 28.0845 29.6804 28.1981 29.3931 28.1981L15.1216 28.2103ZM15.1216 21.6103C14.8344 21.6103 14.5589 21.4967 14.3558 21.2945C14.1527 21.0923 14.0386 20.818 14.0386 20.532C14.0386 20.2461 14.1527 19.9718 14.3558 19.7696C14.5589 19.5674 14.8344 19.4538 15.1216 19.4538H33.5822C33.8695 19.4538 34.1449 19.5674 34.3481 19.7696C34.5512 19.9718 34.6653 20.2461 34.6653 20.532C34.6653 20.818 34.5512 21.0923 34.3481 21.2945C34.1449 21.4967 33.8695 21.6103 33.5822 21.6103H15.1216ZM29.0171 0.42706L40.1213 12.0726C40.3733 12.1397 40.596 12.2878 40.7548 12.4938C40.9137 12.6998 40.9999 12.9522 41 13.2119V40.6167C41 41.1912 40.7711 41.7422 40.3634 42.1488C39.9558 42.5554 39.4028 42.7844 38.8258 42.7855H9.58383C9.29825 42.7862 9.01536 42.7304 8.75158 42.6214C8.48779 42.5125 8.24836 42.3525 8.04715 42.1507C7.8438 41.9498 7.68241 41.7108 7.57228 41.4476C7.46215 41.1843 7.40547 40.9019 7.4055 40.6167V2.17267C7.40525 1.88743 7.46182 1.60497 7.57196 1.34166C7.6821 1.07834 7.84362 0.839392 8.04715 0.638649L8.14115 0.5532C8.53627 0.196657 9.05058 -0.000622649 9.58383 -0.000185698H28.0894C28.2663 -0.00269644 28.4415 0.0343929 28.6021 0.108343C28.7627 0.182292 28.9045 0.291213 29.0171 0.42706ZM38.6378 14.6483H28.0894C27.7762 14.6483 27.4757 14.5244 27.2542 14.3038C27.0327 14.0833 26.9083 13.7842 26.9083 13.4723V2.3517H9.76366V40.4376H38.6378V14.6483ZM37.0725 12.2964L29.2705 4.11358V12.2842L37.0725 12.2964Z" fill="#797979"/>
</g>
<defs>
<clipPath id="clip0_5515_41">
<rect width="41" height="50" fill="white"/>
</clipPath>
</defs>
</svg>
