<svg width="267" height="513" viewBox="0 0 267 513" fill="none" xmlns="http://www.w3.org/2000/svg">
<g clip-path="url(#clip0_109_2)">
<path d="M3.21998 18.9C-1.06002 14.6 -1.08002 7.59 3.17998 3.26C7.43998 -1.07 14.38 -1.09 18.66 3.22L263.78 248.38C268.06 252.68 268.08 259.69 263.82 264.02L18.66 509.22C17.6451 510.242 16.4374 511.052 15.1069 511.603C13.7764 512.154 12.3497 512.436 10.9095 512.431C9.46937 512.427 8.04448 512.136 6.71758 511.576C5.39069 511.016 4.18822 510.198 3.17998 509.17C-1.08002 504.84 -1.06002 497.84 3.21998 493.54L240.5 256.22L3.21998 18.9Z" fill="#ACEB2F"/>
</g>
<defs>
<clipPath id="clip0_109_2">
<rect width="267" height="512.43" fill="white"/>
</clipPath>
</defs>
</svg>
