<svg width="512" height="377" viewBox="0 0 512 377" fill="none" xmlns="http://www.w3.org/2000/svg">
<g clip-path="url(#clip0_244_281)">
<path d="M355.12 372.7C354.074 373.901 352.799 374.882 351.37 375.587C349.941 376.291 348.387 376.705 346.797 376.803C345.207 376.902 343.613 376.684 342.108 376.161C340.603 375.639 339.217 374.822 338.03 373.76C333.03 369.29 332.57 361.56 336.99 356.51L473.04 200.69H12.15C5.44 200.69 0 195.19 0 188.41C0 181.64 5.44 176.14 12.15 176.14H473.05L336.99 20.3197C332.57 15.2697 333.03 7.53968 338.03 3.06968C343.04 -1.40032 350.69 -0.930318 355.12 4.11968L508.79 180.12C512.96 184.67 513.12 191.76 508.96 196.51L355.12 372.7Z" fill="white"/>
</g>
<defs>
<clipPath id="clip0_244_281">
<rect width="512" height="376.83" fill="white"/>
</clipPath>
</defs>
</svg>
