<svg width="123" height="123" viewBox="0 0 123 123" fill="none" xmlns="http://www.w3.org/2000/svg">
<g clip-path="url(#clip0_251_9)">
<path fill-rule="evenodd" clip-rule="evenodd" d="M61.44 0C73.5917 0 85.4705 3.60339 95.5742 10.3545C105.678 17.1056 113.553 26.7012 118.203 37.9279C122.853 49.1546 124.07 61.5082 121.699 73.4263C119.329 85.3445 113.477 96.2921 104.885 104.885C96.2921 113.477 85.3445 119.329 73.4263 121.699C61.5082 124.07 49.1546 122.853 37.9279 118.203C26.7012 113.553 17.1056 105.678 10.3545 95.5742C3.60339 85.4705 0 73.5917 0 61.44C0 45.1451 6.47312 29.5176 17.9954 17.9954C29.5176 6.47312 45.1451 0 61.44 0V0ZM70.44 50.34C70.3892 49.4342 70.1452 48.5497 69.7243 47.7459C69.3035 46.9422 68.7156 46.2378 68 45.68C67.3209 45.1656 66.5556 44.7762 65.74 44.53L65.59 56.08L67.02 56.4C69.5237 56.9226 71.9619 57.7208 74.29 58.78C76.2371 59.6785 78.0293 60.8801 79.6 62.34C81.0099 63.6676 82.1212 65.2799 82.86 67.07C83.6181 68.9796 84.0082 71.0154 84.01 73.07C84.0604 76.2709 83.1324 79.4108 81.35 82.07C79.4527 84.6912 76.8275 86.6976 73.8 87.84C71.0368 88.9172 68.121 89.5517 65.16 89.72L65.09 95.34H58.07L58.14 89.67C55.2939 89.4421 52.4971 88.7951 49.84 87.75C46.5698 86.5176 43.7589 84.3073 41.79 81.42C39.7633 78.2044 38.7366 74.4596 38.84 70.66H51.69C51.7296 72.2515 52.2222 73.7986 53.11 75.12C53.9928 76.3443 55.2122 77.2858 56.62 77.83C57.1612 78.0547 57.7197 78.2353 58.29 78.37L58.44 66.11L55.74 65.49C51.5666 64.6847 47.6633 62.8413 44.39 60.13C43.0073 58.8709 41.9208 57.3212 41.2084 55.5921C40.496 53.8631 40.1755 51.9977 40.27 50.13C40.1983 46.9097 41.17 43.7527 43.04 41.13C45.0226 38.4679 47.6909 36.3941 50.76 35.13C53.3365 34.0369 56.0708 33.3618 58.86 33.13L58.93 27.54H66L65.93 33.21C68.4462 33.4927 70.9026 34.1675 73.21 35.21C76.1998 36.5097 78.7616 38.6277 80.6 41.32C82.3823 44.0217 83.3189 47.1934 83.29 50.43L70.44 50.34ZM58.73 44.34C58.3623 44.4231 58.0013 44.5334 57.65 44.67C56.6053 45.0309 55.6858 45.6832 55 46.55C54.4284 47.3317 54.1138 48.2717 54.1 49.24C54.0532 50.0104 54.2303 50.778 54.61 51.45C55.0224 52.1183 55.5794 52.6855 56.24 53.11C56.9609 53.5875 57.7365 53.9769 58.55 54.27L58.68 44.36L58.73 44.34ZM65.34 78.4C65.7184 78.312 66.0895 78.195 66.45 78.05C67.5938 77.6635 68.6104 76.9719 69.39 76.05C70.0677 75.1967 70.4377 74.1397 70.44 73.05C70.4434 72.0618 70.0881 71.106 69.44 70.36C68.642 69.4724 67.6446 68.7869 66.53 68.36C66.2 68.22 65.84 68.08 65.46 67.94L65.32 78.36L65.34 78.4ZM61.44 10.48C71.5268 10.48 81.3872 13.4711 89.7741 19.0751C98.161 24.679 104.698 32.6441 108.558 41.9631C112.418 51.2822 113.428 61.5366 111.46 71.4296C109.492 81.3226 104.635 90.41 97.5024 97.5424C90.37 104.675 81.2826 109.532 71.3896 111.5C61.4966 113.468 51.2422 112.458 41.9231 108.598C32.6041 104.738 24.639 98.201 19.035 89.8141C13.4311 81.4272 10.44 71.5668 10.44 61.48C10.44 47.954 15.8132 34.9819 25.3776 25.4176C34.9419 15.8532 47.914 10.48 61.44 10.48V10.48Z" fill="#EE4284"/>
</g>
<defs>
<clipPath id="clip0_251_9">
<rect width="122.88" height="122.88" fill="white"/>
</clipPath>
</defs>
</svg>
