<svg width="123" height="92" viewBox="0 0 123 92" fill="none" xmlns="http://www.w3.org/2000/svg">
<path d="M103.85 57.9102C104.333 57.9105 104.806 58.0528 105.21 58.3195C105.613 58.5861 105.93 58.9654 106.12 59.4102L122.59 88.3502C123.04 89.2202 122.84 90.9702 122.82 91.9802H0.0498047V89.4802C0.0553785 89.0311 0.1833 88.592 0.419805 88.2102L17.1198 59.2102C17.3277 58.8148 17.6397 58.4837 18.0222 58.2528C18.4047 58.0219 18.843 57.9 19.2898 57.9002H49.9998L43.2098 46.1902C42.8144 45.7049 42.4567 45.1901 42.1398 44.6502L41.0798 42.8002C40.9874 42.8934 40.8832 42.9741 40.7698 43.0402L39.0098 44.0402L38.6998 44.1802C37.7185 44.6338 36.6153 44.7523 35.5601 44.5174C34.5048 44.2825 33.556 43.7072 32.8598 42.8802C32.7335 43.0536 32.5737 43.1998 32.3898 43.3102L30.6298 44.3102C30.531 44.3637 30.4272 44.4073 30.3198 44.4402C29.2638 44.9237 28.0724 45.0244 26.9501 44.7252C25.8279 44.4259 24.8449 43.7453 24.1698 42.8002C24.1222 42.8741 24.065 42.9413 23.9998 43.0002L22.2398 44.0002L21.9298 44.1402C16.6698 46.1402 13.9298 41.3402 11.7698 37.4402L11.1798 36.4402L8.5198 32.0002L8.4398 31.8602C6.4198 28.0002 6.4998 24.6302 6.5898 20.7902C6.5898 20.1402 6.5898 19.4902 6.5898 18.5802C6.5898 18.5802 6.5898 18.5802 6.5898 18.5202C6.54439 16.6549 6.91681 14.803 7.6798 13.1002C8.38571 11.582 9.54584 10.3205 10.9998 9.49021L26.1798 0.700212C26.8761 0.264485 27.6761 0.0226878 28.4971 -0.000167591C29.3182 -0.023023 30.1304 0.173893 30.8498 0.570212C32.408 1.43772 33.7485 2.64824 34.7698 4.11021L52.0798 12.1802H52.1498C52.3698 12.2802 52.6098 12.3802 52.8698 12.5102L60.7098 8.00021L89.5298 57.9102H103.85ZM50.9998 48.8402L59.9998 64.5802C60.5747 64.2469 61.2098 64.0303 61.8685 63.9429C62.5273 63.8555 63.1969 63.8989 63.8388 64.0708C64.4808 64.2427 65.0825 64.5396 65.6095 64.9444C66.1364 65.3493 66.5783 65.8542 66.9098 66.4302L78.6398 59.6602C77.972 58.4978 77.7917 57.1183 78.1384 55.8233C78.4851 54.5284 79.3305 53.4234 80.4898 52.7502L61.6998 20.1402C60.5359 20.8085 59.1548 20.9891 57.8583 20.6424C56.5617 20.2958 55.4549 19.4502 54.7798 18.2902L45.7798 23.5002L46.1398 24.1102L53.4398 36.8002C54.2213 35.8718 55.1586 35.0867 56.2098 34.4802C57.9357 33.482 59.9188 33.0179 61.9084 33.1468C63.898 33.2757 65.8046 33.9917 67.3873 35.2043C68.9699 36.4169 70.1574 38.0715 70.7996 39.959C71.4417 41.8465 71.5097 43.8821 70.995 45.8083C70.4802 47.7344 69.4058 49.4647 67.9076 50.7802C66.4095 52.0957 64.5548 52.9373 62.5783 53.1987C60.6017 53.4601 58.5921 53.1295 56.8034 52.2487C55.0148 51.3678 53.5276 49.9763 52.5298 48.2502L52.4598 48.1302L52.1798 48.2902C51.7911 48.518 51.3787 48.7024 50.9498 48.8402H50.9998ZM42.7798 18.3502L48.9998 14.7402L32.9298 8.00021C32.7094 7.89762 32.5198 7.73901 32.3798 7.54021C31.5811 6.33358 30.5345 5.31089 29.3098 4.54021C29.0227 4.3684 28.6944 4.27766 28.3598 4.27766C28.0252 4.27766 27.6969 4.3684 27.4098 4.54021L12.8298 13.0002C11.9018 13.5437 11.1648 14.3611 10.7198 15.3402C10.1898 16.4402 10.3498 17.5902 10.3498 19.2602C10.3542 19.2901 10.3542 19.3204 10.3498 19.3502C10.3498 19.9802 10.3498 20.8002 10.3498 21.5902C10.2698 25.0202 9.8298 26.9902 11.4998 30.2302L14.0998 34.5202C14.1509 34.572 14.1917 34.6331 14.2198 34.7002C14.2198 34.7602 14.4898 35.1702 14.7998 35.7002C16.4298 38.5902 18.4298 42.1702 21.3198 41.0902L22.6098 40.3402C22.1598 39.5202 21.7298 38.6702 21.3198 37.8502C20.9098 37.0302 20.6098 36.4002 20.2298 35.7502C20.1333 35.5841 20.0704 35.4006 20.0448 35.2102C20.0192 35.0198 20.0314 34.8262 20.0806 34.6404C20.1298 34.4547 20.2151 34.2805 20.3317 34.1278C20.4482 33.975 20.5937 33.8467 20.7598 33.7502C20.9259 33.6537 21.1094 33.5908 21.2998 33.5652C21.4903 33.5396 21.6839 33.5518 21.8696 33.601C22.0553 33.6502 22.2295 33.7355 22.3822 33.8521C22.535 33.9686 22.6633 34.1141 22.7598 34.2802C23.1398 34.9402 23.5398 35.7302 23.9498 36.5502C25.3498 39.3602 26.9498 42.5502 29.3198 41.7102L30.9998 40.7102C31.0971 40.6609 31.1973 40.6175 31.2998 40.5802C30.7198 39.5802 30.1898 38.5802 29.6898 37.5802C29.3198 36.8402 28.9798 36.1402 28.5998 35.4802C28.4787 35.3159 28.3934 35.1281 28.3494 34.9288C28.3054 34.7295 28.3037 34.5232 28.3444 34.3231C28.385 34.1231 28.4672 33.9339 28.5855 33.7676C28.7038 33.6013 28.8557 33.4617 29.0313 33.3577C29.207 33.2537 29.4025 33.1877 29.6052 33.164C29.8079 33.1402 30.0133 33.1592 30.2082 33.2198C30.4031 33.2803 30.5832 33.381 30.7367 33.5155C30.8903 33.6499 31.014 33.815 31.0998 34.0002C31.4798 34.6502 31.8698 35.4502 32.2898 36.2702C33.6798 39.0702 35.2898 42.2702 37.6498 41.4302L39.3398 40.4302C39.4512 40.3617 39.5727 40.3111 39.6998 40.2802L36.8498 35.4002C36.6549 35.0647 36.6012 34.6655 36.7006 34.2904C36.8 33.9154 37.0443 33.5951 37.3798 33.4002C37.7153 33.2053 38.1145 33.1516 38.4896 33.251C38.8646 33.3504 39.1849 33.5947 39.3798 33.9302L44.7298 43.1902C46.0098 45.4102 47.7298 46.3002 49.2298 46.1902C49.7619 46.1632 50.2797 46.0088 50.7398 45.7402C50.9736 45.6095 51.1889 45.4481 51.3798 45.2602V45.2602C51.3798 45.1402 51.4898 45.0802 51.6198 45.0102C51.7207 44.9024 51.8111 44.7852 51.8898 44.6602C52.2955 43.9416 52.5087 43.1304 52.5087 42.3052C52.5087 41.48 52.2955 40.6688 51.8898 39.9502V39.8702C51.7898 39.6602 51.6698 39.4402 51.5498 39.2202L40.3498 20.0002C40.1662 19.6782 40.111 19.2987 40.1953 18.9377C40.2796 18.5767 40.4972 18.261 40.8044 18.0536C41.1117 17.8462 41.486 17.7626 41.8523 17.8194C42.2186 17.8763 42.5499 18.0695 42.7798 18.3602V18.3502ZM52.7798 62.8402H20.7198L6.5398 87.0002H116.38L102.38 62.8002H85.1698L68.7898 72.3002H83.9098C84.2467 72.2787 84.5845 72.3266 84.9022 72.4407C85.2199 72.5549 85.5108 72.733 85.757 72.964C86.0032 73.195 86.1994 73.474 86.3335 73.7838C86.4677 74.0936 86.5369 74.4276 86.5369 74.7652C86.5369 75.1028 86.4677 75.4368 86.3335 75.7466C86.1994 76.0564 86.0032 76.3355 85.757 76.5665C85.5108 76.7975 85.2199 76.9755 84.9022 77.0897C84.5845 77.2039 84.2467 77.2517 83.9098 77.2302H42.5698C42.2342 77.2516 41.8978 77.204 41.5814 77.0904C41.2649 76.9767 40.9751 76.7993 40.7299 76.5693C40.4847 76.3392 40.2892 76.0613 40.1556 75.7527C40.022 75.4442 39.953 75.1115 39.953 74.7752C39.953 74.439 40.022 74.1063 40.1556 73.7977C40.2892 73.4891 40.4847 73.2112 40.7299 72.9812C40.9751 72.7511 41.2649 72.5737 41.5814 72.4601C41.8978 72.3464 42.2342 72.2988 42.5698 72.3202H58.2898L52.8198 62.8602L52.7798 62.8402Z" fill="#5D85E5"/>
</svg>
