<svg width="123" height="102" viewBox="0 0 123 102" fill="none" xmlns="http://www.w3.org/2000/svg">
<g clip-path="url(#clip0_271_10)">
<path fill-rule="evenodd" clip-rule="evenodd" d="M72.37 37.24C72.771 37.8973 72.9885 38.6501 73 39.42C73 43.53 66.64 46.87 58.79 46.87C50.94 46.87 44.59 43.53 44.59 39.42C44.601 38.6316 44.8257 37.8609 45.24 37.19C47.05 40.19 52.43 42.41 58.79 42.41C65.15 42.41 70.48 40.24 72.32 37.25C72.32 37.18 72.32 37.17 72.38 37.25L72.37 37.24ZM25.11 88.48V49.69H42.57C50 51 57.36 55 64.76 59.68H78.31C84.45 60.05 87.66 66.27 81.7 70.35C76.95 73.84 70.7 73.64 64.24 73.07C59.81 72.85 59.62 78.8 64.24 78.82C65.85 78.95 67.6 78.57 69.12 78.57C77.12 78.57 83.75 77.03 87.79 70.69L89.79 65.95L110 56C120.09 52.68 127.27 63.23 119.83 70.57C105.766 80.8408 90.7189 89.694 74.91 97C63.78 103.77 52.65 103.54 41.54 97L25.11 88.48ZM0 46H19.86V92.38H0V46ZM113.5 40.09C113.804 40.7557 113.964 41.4781 113.97 42.21C113.97 47.21 106.17 51.34 96.56 51.34C86.95 51.34 79.15 47.25 79.15 42.21C79.1649 41.2444 79.4414 40.3009 79.95 39.48C82.17 43.19 88.77 45.88 96.56 45.88C103.9 45.88 110.14 43.59 112.72 40.17C113.28 39.42 113.07 39.17 113.5 40.09ZM113.31 28.68C113.731 29.4431 113.958 30.2984 113.97 31.17C113.97 36.17 106.17 40.3 96.56 40.3C86.95 40.3 79.15 36.21 79.15 31.17C79.1752 30.1864 79.4691 29.2284 80 28.4C82.22 32.11 88.82 34.8 96.61 34.8C104.22 34.8 110.68 32.25 113.04 28.69C113.27 28.35 113.18 28.29 113.36 28.64L113.31 28.68ZM102.83 5.68L102.65 7.68L94.1 6.93C94.8084 7.83368 95.3101 8.88158 95.57 10L93.51 9.81C93.3173 9.09481 93.0027 8.41822 92.58 7.81C92.1615 7.11553 91.5452 6.56186 90.81 6.22L91 4.38L102.73 5.38C102.96 5.38 102.89 5.38 102.86 5.65L102.83 5.68ZM97.5 1.88C104.96 2.06 110.87 4.51 110.87 7.47C110.87 10.58 104.46 13.09 96.56 13.09C88.66 13.09 82.25 10.57 82.25 7.47C82.25 4.52 88.07 2.1 95.44 1.88C96.13 1.88 96.82 1.88 97.5 1.88ZM97.74 0C106.8 0.33 114 4.3 114 9.13C114 14.13 106.2 18.26 96.59 18.26C86.98 18.26 79.18 14.16 79.18 9.13C79.15 4.31 86.29 0.35 95.33 0C96.13 0 96.94 0 97.74 0ZM114 20.31C114 25.31 106.2 29.44 96.59 29.44C86.98 29.44 79.18 25.35 79.18 20.31C79.1882 19.3862 79.4437 18.4815 79.92 17.69C82 21.45 88.68 24.2 96.56 24.2C101.72 24.2 110.41 22.65 113.24 17.69C113.709 18.484 113.961 19.3877 113.97 20.31H114ZM64 18.43L63.83 20.27L56.83 19.67C57.3982 20.4114 57.7975 21.2681 58 22.18L56.29 22C56.1355 21.4114 55.8819 20.8534 55.54 20.35C55.189 19.7886 54.6863 19.3379 54.09 19.05L54.22 17.56L63.92 18.4L64 18.43ZM60.69 15.59C66.27 15.93 70.54 17.83 70.54 20.11C70.54 22.64 65.31 24.69 58.86 24.69C52.41 24.69 47.19 22.63 47.19 20.11C47.19 17.88 51.25 16.02 56.63 15.62C57.9815 15.52 59.3385 15.52 60.69 15.62V15.59ZM60.95 14.09C67.73 14.62 73 17.72 73 21.46C73 25.57 66.64 28.91 58.79 28.91C50.94 28.91 44.59 25.57 44.59 21.46C44.59 17.71 49.87 14.61 56.74 14.09C58.1178 13.98 59.5022 13.98 60.88 14.09H60.95ZM72.46 28.56C72.7957 29.174 72.9775 29.8603 72.99 30.56C73 34.7 66.63 38 58.78 38C50.93 38 44.58 34.66 44.58 30.55C44.5802 29.7952 44.7877 29.0549 45.18 28.41C46.93 31.48 52.35 33.72 58.78 33.72C65.21 33.72 70.51 31.53 72.33 28.52C72.41 28.38 72.33 28.37 72.46 28.52V28.56Z" fill="#DB9300"/>
</g>
<defs>
<clipPath id="clip0_271_10">
<rect width="122.88" height="101.95" fill="white"/>
</clipPath>
</defs>
</svg>
