<svg width="147" height="147" viewBox="0 0 147 147" fill="none" xmlns="http://www.w3.org/2000/svg">
<g clip-path="url(#clip0_1_5)">
<path d="M73.522 0C93.8101 0 112.202 8.24752 125.521 21.523C138.841 34.8425 147.044 53.1899 147.044 73.522C147.044 93.8101 138.797 112.202 125.521 125.521C112.202 138.841 93.8542 147.044 73.522 147.044C53.234 147.044 34.8425 138.797 21.523 125.521C8.20342 112.202 0 93.8542 0 73.522C0 53.234 8.24752 34.8425 21.523 21.523C34.8425 8.20342 53.1899 0 73.522 0ZM111.761 49.7939C108.938 51.0729 105.939 51.8668 102.763 52.2637C106.027 50.3231 108.497 47.2358 109.688 43.5752C106.644 45.3834 103.293 46.6625 99.7201 47.3681C96.8533 44.3249 92.7957 42.4284 88.2529 42.4284C79.5644 42.4284 72.5518 49.441 72.5518 58.1296C72.5518 59.3645 72.6841 60.5554 72.9487 61.7021C59.8938 61.0405 48.3384 54.7777 40.6202 45.2952C39.2529 47.6769 38.5031 50.4113 38.5031 53.1899C38.5031 58.6148 41.2817 63.4221 45.4716 66.2448C42.9136 66.1566 40.4878 65.4509 38.3708 64.3042V64.4806C38.3708 72.0666 43.7957 78.4176 50.9847 79.8731C49.6616 80.2259 48.2943 80.4464 46.8389 80.4464C45.8245 80.4464 44.8542 80.3582 43.8839 80.1818C45.9127 86.4005 51.6904 90.9433 58.5266 91.0756C53.1458 95.3096 46.3978 97.7795 39.0324 97.7795C37.7534 97.7795 36.5185 97.6913 35.2835 97.559C42.252 102.013 50.4995 104.616 59.3645 104.616C88.2088 104.616 104.042 80.7111 104.042 59.9379C104.042 59.2322 104.042 58.5707 103.998 57.9091C107.086 55.7039 109.732 52.9694 111.805 49.7939H111.761ZM121.728 25.3159C109.379 12.9667 92.3546 5.33663 73.522 5.33663C54.6895 5.33663 37.6211 12.9667 25.3159 25.3159C12.9667 37.6652 5.33663 54.6895 5.33663 73.522C5.33663 92.3546 12.9667 109.423 25.3159 121.728C37.6652 134.077 54.6895 141.707 73.522 141.707C92.3546 141.707 109.423 134.077 121.728 121.728C134.077 109.379 141.707 92.3546 141.707 73.522C141.707 54.6895 134.077 37.6211 121.728 25.3159Z" fill="#777777"/>
</g>
<defs>
<clipPath id="clip0_1_5">
<rect width="147" height="147" fill="white"/>
</clipPath>
</defs>
</svg>
