<svg width="65" height="43" viewBox="0 0 65 43" fill="none" xmlns="http://www.w3.org/2000/svg">
<g clip-path="url(#clip0_5515_11)">
<path d="M31.9922 28.742C33.5182 28.615 34.563 27.7475 35.2739 26.4963L35.279 26.4873C35.9988 25.2182 36.381 23.55 36.5727 21.8536C36.6729 20.9566 36.7326 20.0185 36.7936 19.069C37.0919 14.3774 37.4156 9.31378 42.6867 7.15922C43.4851 6.83344 44.3257 6.62556 45.1826 6.54199C47.0044 6.36233 48.8643 6.74089 50.4689 7.66995C52.0749 8.59902 53.427 10.0786 54.2344 12.0946C54.6051 13.0223 54.8603 14.063 54.972 15.2154V15.2359C54.9567 18.0655 55.4049 22.0396 56.6211 24.9552C57.4971 27.052 58.7691 28.5957 60.5478 28.742C60.6201 28.7471 60.6747 28.8126 60.6696 28.8857L60.662 28.9204C60.3319 29.8623 58.8085 30.5873 56.9867 30.9402C59.6959 31.6062 61.5761 32.4095 62.8494 33.8275C64.416 35.5714 65 38.1687 65 42.4829C65 42.7678 64.7715 42.9988 64.4896 42.9988H43.2593C43.2948 42.8217 43.3151 42.6382 43.3151 42.4495V40.6543C43.3151 39.0823 42.9178 37.5604 42.231 36.1694C43.5208 36.7032 44.8157 36.9983 46.1119 37.0381C49.4863 37.1408 52.9344 35.5124 56.4649 31.8705C55.952 31.7486 55.4062 31.6306 54.8285 31.5138L54.746 31.4958C54.2521 31.397 53.5564 31.2571 52.8392 31.0557C52.5916 31.0172 52.3517 30.971 52.1206 30.9132C51.402 30.7374 50.7686 30.4667 50.295 30.0907C49.5714 29.5184 49.2121 28.7099 49.4533 27.6281C47.2875 28.9948 45.0125 28.9897 42.8581 27.5819L42.7197 27.5037C42.7083 28.1453 42.3059 30.0445 41.6914 30.423C40.757 30.9966 39.2907 31.2648 38.1456 31.4548C36.7313 30.4564 35.1355 29.7442 33.4978 29.4247C32.9773 29.3233 32.4543 29.2206 31.9528 29.1013C31.9236 29.0423 31.897 28.982 31.8754 28.9204C31.8513 28.8498 31.8881 28.7728 31.9566 28.7484L31.9922 28.742ZM24.865 26.0074C24.8917 25.9753 24.9209 25.9471 24.9539 25.9214L25.1418 25.7418C26.5319 24.4226 27.5564 23.4499 27.3584 21.0785C27.3521 20.9604 27.38 20.8385 27.4485 20.7333C27.5275 20.6124 27.6507 20.528 27.7911 20.4986C27.9314 20.4693 28.0776 20.4974 28.1976 20.5768C28.294 20.6409 28.3918 20.6922 28.4908 20.7282C28.5721 20.759 28.6508 20.7769 28.7231 20.7808C28.8641 20.7885 28.9364 20.7885 28.9555 20.7834C28.9745 20.768 29.0101 20.673 29.0608 20.5267L29.7515 18.5505C29.8378 18.2156 29.8454 17.9769 29.7946 17.8178C29.773 17.7485 29.7362 17.6972 29.6893 17.6664L29.6689 17.6548C29.5852 17.6099 29.4658 17.5945 29.3287 17.6061C29.0253 17.6292 28.6711 17.7767 28.3563 18.018C28.242 18.1052 28.0922 18.1476 27.9386 18.1206C27.7968 18.096 27.6704 18.0156 27.5872 17.8971C27.5039 17.7785 27.4705 17.6314 27.4942 17.488C28.0059 14.4724 27.7723 12.509 27.1362 11.1693C26.5802 9.99518 25.6915 9.28298 24.7292 8.75172C22.5926 10.4071 21.0882 10.5957 19.5889 10.7831C18.3473 10.9371 17.1082 11.0936 15.468 12.2396C14.6872 12.7862 14.1692 13.4458 13.9039 14.2145C13.6373 14.9883 13.617 15.8865 13.8328 16.9028C13.8658 17.0132 13.8646 17.1338 13.8227 17.2493C13.7198 17.5342 13.4075 17.6792 13.1257 17.5753C12.9632 17.5149 12.7943 17.4457 12.6306 17.393C11.9895 17.1672 11.535 17.062 11.3598 17.47C11.3458 17.5996 11.3369 17.8011 11.3306 18.009V18.0128C11.3229 18.308 11.3229 18.6172 11.3306 18.7777V18.7854C11.3496 19.1652 11.4321 19.6682 11.6124 20.0904C11.7254 20.3573 11.8752 20.5819 12.0618 20.6897C12.1545 20.7423 12.2599 20.7667 12.369 20.768C12.5036 20.7705 12.6534 20.7423 12.8108 20.6948C12.8914 20.6668 12.9774 20.6584 13.0617 20.6703C13.1461 20.6821 13.2265 20.7139 13.2965 20.763C13.3665 20.8121 13.424 20.8772 13.4645 20.9529C13.5049 21.0287 13.5272 21.113 13.5294 21.1991C13.5878 23.6822 14.6783 24.6318 16.0037 25.7854L16.556 26.2705C17.4269 27.0533 18.3282 27.5896 19.2321 27.8655C19.9278 28.0118 20.6553 28.0272 21.3535 27.9361C21.8397 27.872 22.3082 27.7565 22.7424 27.5986C23.3695 27.2996 23.9853 26.8621 24.5807 26.2807L24.865 26.0074ZM25.8921 26.5335C27.0334 30.3833 30.0904 30.9838 33.0916 31.569C37.163 32.3646 41.1506 36.2515 41.1506 40.6543V42.4495C41.1506 42.7524 40.9056 43 40.6072 43H0.543359C0.24375 43 0 42.7524 0 42.4495V40.8262C0 35.5342 4.23389 32.4082 8.51221 31.8295C11.634 31.4086 14.7837 30.98 15.8958 27.1456L15.8349 27.0905L15.294 26.6131C13.8849 25.3863 12.7055 24.3597 12.4808 21.8613L12.3563 21.8626C12.0682 21.8587 11.7889 21.792 11.5273 21.6418C11.1071 21.4006 10.8126 20.9887 10.6146 20.5241C10.3784 19.9711 10.273 19.3269 10.2477 18.8405V18.8303C10.24 18.6519 10.24 18.3106 10.2477 17.9833V17.9782C10.2565 17.6946 10.2705 17.4187 10.2921 17.2622C10.2984 17.2147 10.3111 17.171 10.3276 17.1287C10.6234 16.2972 11.0754 16.0277 11.6721 16.0444L11.2798 15.7813C11.0665 13.0903 11.6898 8.42193 8.79912 7.53906C14.2683 0.707106 20.5715 -3.00787 25.3056 3.06826C31.0083 3.37111 33.2947 12.5309 28.7473 16.387L28.7206 16.6128C28.8996 16.5589 29.0773 16.5243 29.2475 16.5115C29.5852 16.4845 29.9063 16.5397 30.178 16.6847L30.2301 16.7168C30.5043 16.8797 30.715 17.1338 30.8268 17.4829C30.9397 17.8383 30.9436 18.2939 30.795 18.8508L30.0841 20.8911C29.9698 21.2209 29.8645 21.4532 29.6334 21.6393L29.589 21.6714C29.3605 21.8356 29.0824 21.8972 28.6686 21.8754L28.4705 21.8536C28.4248 24.1223 27.3279 25.1695 25.8921 26.5335ZM25.0771 27.3997C23.4152 29.7198 18.5656 29.7699 16.754 27.9284C16.3021 29.8315 15.129 31.1468 13.3936 32.0027C18.3701 35.0696 23.2743 34.9785 28.1011 31.3598C26.245 30.509 25.3068 29.1501 25.0771 27.3997ZM50.3179 25.6738C52.6246 23.0945 53.2391 21.3557 52.9344 17.8807C52.8849 17.325 52.8036 16.7604 52.6906 16.1881C50.8092 15.3065 49.5777 13.3688 48.948 10.4571C48.1952 16.0007 41.4604 15.762 39.7668 16.7707C39.7668 17.2378 39.7554 17.6779 39.7452 18.1014C39.6678 20.954 39.8772 22.4721 41.2979 24.7498C41.5353 25.131 41.7676 25.4993 42.0481 25.8047C44.3104 28.271 48.1787 27.9631 50.3179 25.6738Z" fill="#797979"/>
</g>
<defs>
<clipPath id="clip0_5515_11">
<rect width="65" height="43" fill="white"/>
</clipPath>
</defs>
</svg>
