<svg width="32768" height="32768" viewBox="0 0 32768 32768" fill="none" xmlns="http://www.w3.org/2000/svg">
<g clip-path="url(#clip0_2_19)">
<path d="M16384 0C20908.3 0 25004.3 1833.86 27969.3 4798.81C30934.2 7763.76 32768.1 11859.8 32768.1 16384C32768.1 20908.3 30934.2 25004.3 27969.3 27969.3C25004.3 30934.2 20908.3 32768.1 16384 32768.1C11859.8 32768.1 7763.76 30934.2 4798.81 27969.3C1833.86 25004.3 0 20908.3 0 16384C0 11859.8 1833.86 7763.76 4798.81 4798.81C7763.76 1833.86 11859.8 0 16384 0ZM24782.9 12470.4C24706.9 14105 23565.1 16347.7 21355.5 19189.3C19070.6 22156.7 17137 23644.3 15555.1 23644.3C14577.6 23644.3 13746.8 22741.9 13070.2 20933C12617.8 19275.5 12167.8 17617.9 11714.1 15960.9C11212.1 14152.2 10673 13249.6 10095.5 13249.6C9970.3 13249.6 9530.48 13515.4 8776.29 14040.4L7985.34 13022.6C8815.71 12313.4 9635.57 11568 10430.7 10847.5C11536.6 9892.64 12367.6 9390.6 12922.2 9336.92C14228.7 9211.98 15036.8 10104.8 15337.6 12018.8C15662.3 14083.7 15889 15367.3 16017.4 15869.7C16394.5 17582.5 16808.1 18439.6 17261.1 18439.6C17612 18439.6 18141.2 17884.8 18846.4 16771.2C19548.8 15662.2 19926.2 14815.6 19978.6 14233.8C20080.7 13276 19703.3 12792.7 18846.4 12792.7C18442.9 12792.7 18029.3 12885.1 17602.4 13069C18428.9 10364.2 20004.6 9051.45 22335.4 9126.85C24059.3 9172.66 24873 10291.6 24774.8 12482L24776.4 12481L24782.9 12470.3V12470.4ZM26866 5902.08C24183.6 3219.66 20477.5 1560.48 16384 1560.48C12290.5 1560.48 8584.5 3219.66 5902.08 5902.08C3219.66 8584.5 1560.48 12290.6 1560.48 16384C1560.48 20477.6 3219.66 24183.6 5902.08 26866C8584.5 29548.4 12290.6 31207.6 16384 31207.6C20477.6 31207.6 24183.6 29548.4 26866 26866C29548.4 24183.6 31207.6 20477.5 31207.6 16384C31207.6 12290.5 29548.4 8584.5 26866 5902.08Z" fill="#777777"/>
</g>
<defs>
<clipPath id="clip0_2_19">
<rect width="333333" height="333333" fill="white" transform="scale(0.0983041)"/>
</clipPath>
</defs>
</svg>
