<svg width="26" height="22" viewBox="0 0 26 22" fill="none" xmlns="http://www.w3.org/2000/svg">
<g clip-path="url(#clip0_1101_19)">
<path fill-rule="evenodd" clip-rule="evenodd" d="M19.1554 7.04325H23.0449V6.4535C22.4361 4.18537 20.8888 4.20016 18.9758 4.21919C18.6608 4.22341 18.3754 4.22553 18.3585 4.22553H3.81967C3.48569 4.22553 3.21512 3.95496 3.21512 3.62098C3.21512 3.28699 3.48569 3.01642 3.81967 3.01642H18.3585C18.7876 3.01642 18.8785 3.01642 18.9652 3.01431C20.6013 2.9974 22.0302 2.9826 23.0449 3.94016V3.66325C23.0449 2.98683 22.768 2.37382 22.322 1.9278C21.8759 1.48179 21.2608 1.20488 20.5865 1.20488H3.66537C2.98894 1.20488 2.37593 1.48179 1.92992 1.9278C1.4839 2.37382 1.20699 2.98894 1.20699 3.66325V17.7498C1.20699 18.4262 1.4839 19.0392 1.92992 19.4852C2.37593 19.9312 2.99106 20.2081 3.66537 20.2081H20.5844C21.2608 20.2081 21.8738 19.9312 22.3198 19.4852C22.7659 19.0392 23.0428 18.4241 23.0428 17.7498V15.7501H19.1533C17.9802 15.7501 16.9127 15.2702 16.1411 14.4987C15.3696 13.7272 14.8898 12.6597 14.8898 11.4865V11.3026C14.8898 10.1294 15.3696 9.06195 16.1411 8.29041C16.9148 7.52309 17.9802 7.04325 19.1554 7.04325ZM24.2519 7.0665C24.6894 7.13203 25.0805 7.33919 25.3785 7.63935C25.7463 8.00715 25.9725 8.51447 25.9725 9.07252V13.6384C25.9725 14.2218 25.7358 14.7502 25.3532 15.1328C25.0593 15.4267 24.6767 15.6359 24.2519 15.7163V17.7519C24.2519 18.7602 23.8397 19.6776 23.1759 20.3413C22.5122 21.005 21.5948 21.4172 20.5865 21.4172H3.66537C2.65707 21.4172 1.73967 21.005 1.07593 20.3413C0.412195 19.6797 0 18.7623 0 17.754V3.66537C0 2.65707 0.412195 1.73967 1.07593 1.07594C1.73967 0.412195 2.65707 0 3.66537 0H20.5844C21.5927 0 22.5101 0.412195 23.1738 1.07594C23.8376 1.73967 24.2498 2.65707 24.2498 3.66537V7.0665H24.2519ZM18.6312 9.74683C19.4873 9.74683 20.1806 10.4402 20.1806 11.2963C20.1806 12.1524 19.4873 12.8457 18.6312 12.8457C17.7751 12.8457 17.0818 12.1524 17.0818 11.2963C17.0818 10.4402 17.7751 9.74683 18.6312 9.74683Z" fill="white"/>
</g>
<defs>
<clipPath id="clip0_1101_19">
<rect width="26" height="21.561" fill="white"/>
</clipPath>
</defs>
</svg>
