<svg width="123" height="121" viewBox="0 0 123 121" fill="none" xmlns="http://www.w3.org/2000/svg">
<g clip-path="url(#clip0_238_13)">
<path d="M42.1311 84.1895H48.5211L45.5211 103.309H37.5211L36.1111 96.3094H35.7511L34.3711 103.309H26.3711L23.3711 84.1895H29.8011L31.2411 94.8695H31.4211L33.6311 84.1895H38.3111L40.4811 94.8695H40.6611L42.1311 84.1895ZM62.5211 96.0894H56.4011V98.4194H63.9011V103.309H50.2811V84.1895H63.7511L63.0011 89.0894H56.4011V91.6595H62.5211V96.0894V96.0894ZM78.9711 96.0894H72.8511V98.4194H80.3411V103.309H66.7311V84.1895H80.1911L79.4211 89.0894H72.8511V91.6595H79.0011V96.0894H78.9711ZM89.2911 94.9995V103.319H83.1711V84.1895H89.2911V91.9995H89.4111C89.4311 91.4955 89.5359 90.9986 89.7211 90.5294L92.7211 84.1994H99.3311L94.7411 93.5894L99.4811 103.319H92.8711L89.7211 96.4695C89.5359 96.0003 89.4311 95.5034 89.4111 94.9995H89.2911Z" fill="#364DCE"/>
<path d="M82.69 4.21C82.69 1.87 85 0 87.84 0C90.68 0 93 1.91 93 4.21V22.71C93 25.05 90.7 26.92 87.84 26.92C84.98 26.92 82.69 25.02 82.69 22.71V4.21ZM73.93 71.34H49.93V62.65H57.48V44.82L48.87 45.47V36.78L60.32 34H68.9V62.7H73.9V71.39L73.93 71.34ZM29.67 4.21C29.67 1.87 32 0 34.83 0C37.66 0 40 1.91 40 4.21V22.71C40 25.05 37.7 26.92 34.84 26.92C31.98 26.92 29.68 25.02 29.68 22.71V4.21H29.67ZM6.76 111.3C6.7578 111.999 7.03081 112.671 7.52 113.17C7.76476 113.415 8.05669 113.608 8.37812 113.737C8.69954 113.866 9.04378 113.928 9.39 113.92H113.39C114.084 113.923 114.752 113.654 115.25 113.17C115.495 112.925 115.688 112.633 115.817 112.312C115.946 111.99 116.008 111.646 116 111.3V20.3C116.003 19.9613 115.938 19.6254 115.81 19.3119C115.682 18.9983 115.493 18.7133 115.254 18.4733C115.015 18.2333 114.73 18.0432 114.417 17.9139C114.104 17.7846 113.769 17.7187 113.43 17.72H105.1C103.51 17.72 102.24 15.37 102.24 13.78C102.239 13.404 102.312 13.0316 102.455 12.684C102.598 12.3364 102.809 12.0206 103.075 11.7547C103.341 11.4889 103.656 11.2783 104.004 11.135C104.352 10.9918 104.724 10.9187 105.1 10.92H114.51C116.717 10.9357 118.829 11.8194 120.39 13.3801C121.951 14.9408 122.834 17.0529 122.85 19.26V112.46C122.839 114.669 121.957 116.784 120.396 118.346C118.834 119.907 116.719 120.789 114.51 120.8H8.34C7.24669 120.8 6.16418 120.584 5.15497 120.163C4.14575 119.743 3.22981 119.126 2.46 118.35C1.67987 117.572 1.06099 116.648 0.638841 115.63C0.216697 114.613 -0.00040012 113.522 5.53599e-07 112.42V19.22C0.00180426 18.1261 0.220101 17.0433 0.642307 16.0341C1.06451 15.025 1.68228 14.1093 2.46 13.34C4.01762 11.7748 6.13183 10.8902 8.34 10.88H18.43C18.806 10.8787 19.1784 10.9518 19.526 11.095C19.8736 11.2383 20.1894 11.4489 20.4553 11.7147C20.7211 11.9806 20.9317 12.2964 21.075 12.644C21.2182 12.9916 21.2913 13.364 21.29 13.74C21.29 15.33 20.02 17.68 18.43 17.68H9.43C8.73305 17.6783 8.06264 17.9472 7.56 18.43C7.3146 18.675 7.12088 18.9667 6.99033 19.2879C6.85978 19.6091 6.79506 19.9533 6.8 20.3C6.8 49.11 6.8 82.36 6.8 111.3H6.76ZM51.55 17.64C49.96 17.64 48.69 15.29 48.69 13.7C48.6887 13.324 48.7618 12.9516 48.905 12.604C49.0483 12.2564 49.2589 11.9406 49.5247 11.6747C49.7906 11.4089 50.1064 11.1983 50.454 11.055C50.8016 10.9118 51.174 10.8387 51.55 10.84H70.77C71.1455 10.8387 71.5175 10.9118 71.8645 11.0552C72.2116 11.1986 72.5267 11.4093 72.7918 11.6753C73.0568 11.9413 73.2665 12.2572 73.4086 12.6047C73.5508 12.9522 73.6226 13.3245 73.62 13.7C73.62 15.29 72.36 17.64 70.77 17.64H51.55Z" fill="#364DCE"/>
</g>
<defs>
<clipPath id="clip0_238_13">
<rect width="122.88" height="120.76" fill="white"/>
</clipPath>
</defs>
</svg>
