<svg width="113" height="110" viewBox="0 0 113 110" fill="none" xmlns="http://www.w3.org/2000/svg">
<g clip-path="url(#clip0_5529_11)">
<path d="M28.6015 32.6491C27.6354 33.5715 26.1065 33.5349 25.1878 32.5631C24.2691 31.5892 24.3079 30.0498 25.2719 29.1254L54.6109 0.887929C55.0595 0.343992 55.7388 0 56.5 0C57.2807 0 57.975 0.365491 58.4236 0.933078L86.8332 29.1555C87.782 30.095 87.7928 31.6343 86.859 32.5911C86.6379 32.8179 86.3737 32.9988 86.0819 33.1231C85.7901 33.2474 85.4764 33.3128 85.1591 33.3154C84.8418 33.318 84.5271 33.2578 84.2333 33.1382C83.9395 33.0187 83.6724 32.8422 83.4475 32.619L58.9411 8.27515V88.0211C58.9411 89.3648 57.8478 90.4548 56.5 90.4548C55.15 90.4548 54.0567 89.3648 54.0567 88.0211V8.15046L28.6015 32.6491ZM108.116 85.6884C108.116 84.3447 109.209 83.2525 110.557 83.2525C111.907 83.2525 113 84.3447 113 85.6884V107.566C113 108.91 111.907 110 110.557 110H2.4433C1.09334 110 0 108.91 0 107.566V85.6884C0 84.3447 1.09334 83.2525 2.4433 83.2525C3.79111 83.2525 4.88445 84.3447 4.88445 85.6884V105.13H108.116V85.6884Z" fill="white"/>
</g>
<defs>
<clipPath id="clip0_5529_11">
<rect width="113" height="110" fill="white"/>
</clipPath>
</defs>
</svg>
