<svg width="123" height="59" viewBox="0 0 123 59" fill="none" xmlns="http://www.w3.org/2000/svg">
<g clip-path="url(#clip0_5620_12)">
<path fill-rule="evenodd" clip-rule="evenodd" d="M12.08 12V58.81H93.46L93.33 42C90.5428 42.0098 87.769 42.3864 85.08 43.12V44.62C83.2604 44.662 81.5312 45.4212 80.2688 46.7323C79.0064 48.0434 78.3131 49.8002 78.34 51.62H27.12C27.12 47.25 23.96 44.16 20.12 44.19V25.63C21.9413 25.5906 23.6731 24.8325 24.9377 23.5212C26.2022 22.2098 26.8968 20.4515 26.87 18.63H71.53C71.98 18.31 72.41 18 72.8 17.63C75.3849 15.4316 78.2173 13.5421 81.24 12H12.08ZM122.88 24.76L102.42 45.06L102.52 34.86C89.72 32.09 75.26 35.35 67.52 45.03C69 25 87.09 15 102.7 14.5L102.79 4.09L122.88 24.75V24.76ZM62 30.26C61.0171 28.3924 59.5024 26.8582 57.6475 25.8515C55.7927 24.8448 53.6809 24.4107 51.5793 24.6043C49.4778 24.7978 47.4808 25.6102 45.841 26.9388C44.2011 28.2674 42.9921 30.0524 42.3669 32.0681C41.7416 34.0838 41.7281 36.2397 42.3282 38.263C42.9282 40.2864 44.1148 42.0864 45.7379 43.4353C47.361 44.7842 49.3477 45.6215 51.4467 45.8413C53.5457 46.0611 55.6627 45.6535 57.53 44.67C60.0333 43.3516 61.9105 41.0928 62.7488 38.3906C63.587 35.6883 63.3177 32.7637 62 30.26ZM0 0V43.61H5.57V11.85C5.55691 11.1338 5.69338 10.4227 5.97068 9.76226C6.24798 9.10179 6.66001 8.50642 7.18045 8.01422C7.70089 7.52202 8.31828 7.14379 8.99318 6.90373C9.66808 6.66366 10.3856 6.56703 11.1 6.62H76.78V0H0Z" fill="white"/>
</g>
<defs>
<clipPath id="clip0_5620_12">
<rect width="122.88" height="58.81" fill="white"/>
</clipPath>
</defs>
</svg>
