<svg width="61" height="47" viewBox="0 0 61 47" fill="none" xmlns="http://www.w3.org/2000/svg">
<g clip-path="url(#clip0_1_16)">
<mask id="mask0_1_16" style="mask-type:luminance" maskUnits="userSpaceOnUse" x="0" y="0" width="61" height="47">
<path d="M61 0H0V47H61V0Z" fill="white"/>
</mask>
<g mask="url(#mask0_1_16)">
<path d="M3.02319 0H49.6568C50.4858 0 51.2454 0.341297 51.7914 0.885393C52.3375 1.42949 52.68 2.18628 52.68 3.01231V34.9458C52.68 35.569 52.4864 36.1527 52.1588 36.6325C52.0992 36.7858 52.0049 36.9342 51.8758 37.0579C51.7914 37.137 51.6971 37.2063 51.5929 37.2557C51.0667 37.691 50.3915 37.9581 49.6618 37.9581H3.02319C2.19417 37.9581 1.43465 37.6218 0.88859 37.0727C0.342529 36.5237 0 35.7718 0 34.9409V3.01231C0 2.18133 0.337565 1.42949 0.88859 0.885393C1.43465 0.33635 2.18921 0 3.02319 0ZM57.9768 47H9.14901C8.31999 47 7.56047 46.6587 7.0144 46.1146C6.46834 45.5705 6.12581 44.8137 6.12581 43.9877V40.9605H8.41927V44.6901H58.7363V9.17049H55.6784V6.86056H57.9718C58.8009 6.86056 59.5604 7.19691 60.1064 7.74595C60.6525 8.29004 60.995 9.04189 60.995 9.87287V43.9926C60.995 44.8236 60.6575 45.5755 60.1064 46.1196C59.5654 46.6636 58.8108 47 57.9768 47ZM2.31828 33.6746L18.6604 17.3517L2.31828 4.07577V33.6746ZM20.4624 18.8109L3.60897 35.6432H48.9221L32.8232 18.8158L27.5165 23.3219C27.0995 23.6781 26.479 23.6979 26.0372 23.3417L20.4624 18.8109ZM34.5855 17.322L50.3617 33.8081V3.92738L34.5855 17.322ZM3.80257 2.30993L26.7471 20.9477L48.7037 2.30993H3.80257Z" fill="#E74D8A"/>
</g>
</g>
<defs>
<clipPath id="clip0_1_16">
<rect width="61" height="47" fill="white"/>
</clipPath>
</defs>
</svg>
