<svg width="66" height="47" viewBox="0 0 66 47" fill="none" xmlns="http://www.w3.org/2000/svg">
<g clip-path="url(#clip0_1_52)">
<mask id="mask0_1_52" style="mask-type:luminance" maskUnits="userSpaceOnUse" x="0" y="0" width="66" height="47">
<path d="M66 0H0V47H66V0Z" fill="white"/>
</mask>
<g mask="url(#mask0_1_52)">
<path fill-rule="evenodd" clip-rule="evenodd" d="M61.5741 19.904V46.2112C61.5741 46.6424 61.2215 47 60.7962 47H54.0894C53.6641 47 53.3116 46.6452 53.3116 46.2112V26.643C54.6805 25.285 56.3633 23.6422 58.0802 21.9664L60.7894 19.319C61.0362 19.5336 61.2985 19.7291 61.5741 19.904ZM25.3961 12.225L30.56 7.64311C34.4839 11.5418 38.2883 16.2545 42.1726 20.1466L56.3331 5.71703L51.7725 1.09142L65.9999 0L65.1999 14.7043L60.8251 10.2662C57.6844 13.4932 50.257 20.6049 47.1123 23.7947C43.1401 27.8241 41.243 27.8968 37.2692 23.8663L30.56 16.293L29.2573 17.4647C29.0559 17.0227 28.8349 16.5902 28.5951 16.1685C28.0962 15.292 27.5236 14.4784 26.889 13.7403L26.8976 13.7327C26.4471 13.208 25.9448 12.7034 25.3961 12.225ZM16.2805 12.3805C14.8029 12.2774 13.3197 12.4712 11.9161 12.9509L11.8864 12.9622C10.492 13.4432 9.20384 14.1961 8.09424 15.1784C6.97628 16.1683 6.06156 17.372 5.40229 18.7205C4.74452 20.0657 4.35495 21.5293 4.25593 23.0275C4.18161 24.1326 4.26559 25.2428 4.50523 26.3235C4.7139 27.2628 5.03924 28.1716 5.47345 29.0279L0.168311 34.179C0.0644222 34.2792 0.00395755 34.4171 0.000187438 34.5624C-0.00358266 34.7077 0.0496498 34.8486 0.148202 34.9542L3.15159 38.1402C3.25026 38.245 3.38588 38.3057 3.52868 38.3092C3.67148 38.3127 3.8098 38.2585 3.91329 38.1587L9.0185 33.1604C9.79393 33.7167 10.6359 34.1709 11.5241 34.512C12.5601 34.9085 13.648 35.1482 14.7527 35.2235C16.2296 35.3265 17.712 35.1328 19.115 34.6538C20.5217 34.1731 21.8211 33.4161 22.9392 32.4259C24.0568 31.4362 24.9713 30.2329 25.6306 28.8848C26.2723 27.5758 26.6746 26.1208 26.778 24.5763C26.8813 23.0317 26.6762 21.5348 26.2157 20.1498L26.2046 20.1196C25.7296 18.7059 24.9868 17.3999 24.018 16.2751C23.0436 15.1408 21.8579 14.2127 20.529 13.5444C19.2385 12.8935 17.8034 12.4852 16.2805 12.3805ZM14.436 28.2645C13.8414 28.2224 13.084 28.0737 12.501 27.9152V26.0604C13.2749 26.124 15.1808 26.2888 15.8835 26.1276C16.4107 26.0062 16.3523 25.1618 16.0051 25.0561C15.587 24.9242 14.712 25.0825 14.0083 24.8758C13.6492 24.7701 13.3461 24.6109 13.0991 24.3982C12.8469 24.1799 12.658 23.8907 12.534 23.5314C12.413 23.1818 12.352 22.7654 12.352 22.2825V21.6469C12.352 20.2878 13.0909 19.4783 14.436 19.2503V18.276H16.3523V19.2124C16.9467 19.2605 17.6864 19.4145 18.2763 19.5595V21.4173C17.472 21.3455 15.9467 21.1996 15.1838 21.3402C15.1213 21.3511 15.0605 21.37 15.0028 21.3966C14.6896 21.5473 14.7021 22.4162 15.0858 22.5191C15.3368 22.5859 15.8515 22.5506 16.126 22.5506C16.4036 22.5506 16.6612 22.5781 16.8976 22.6324C17.1361 22.6874 17.352 22.7707 17.5433 22.8816C18.3459 23.3455 18.6998 24.1636 18.6998 25.0672V25.7035C18.6998 26.0811 18.6665 26.4181 18.6007 26.7128C18.3386 27.8818 17.4447 28.134 16.3523 28.2552V29.3059H14.436V28.2645ZM9.59342 16.9203C10.4801 16.136 11.5155 15.526 12.6412 15.1417C13.7273 14.7704 14.9054 14.6054 16.126 14.6892C17.3465 14.7732 18.4923 15.0983 19.5179 15.6144C20.5832 16.15 21.5271 16.8959 22.301 17.7949L22.3284 17.8243C23.0944 18.7226 23.6811 19.7633 24.0559 20.8886L24.0657 20.9159C24.4242 22.0082 24.5835 23.1934 24.5015 24.4203C24.4189 25.657 24.0987 26.8187 23.5905 27.8582C23.0626 28.9334 22.3316 29.893 21.4391 30.6825C20.5527 31.4673 19.5174 32.0775 18.3916 32.462C17.3068 32.8327 16.128 32.9979 14.9073 32.914C13.6884 32.8302 12.5438 32.5054 11.518 31.9893L11.4911 31.9768C9.36706 30.9008 7.7364 28.9963 6.97791 26.7156L6.96811 26.6884C6.60963 25.5958 6.4503 24.4107 6.53228 23.1835C6.61504 21.9459 6.9355 20.7841 7.44442 19.7437C7.97093 18.6685 8.70117 17.7091 9.59342 16.9203ZM21.0978 38.0269V46.2112C21.0978 46.6436 20.7464 47 20.3199 47H13.6131C13.1866 47 12.8353 46.6452 12.8353 46.2112V38.8772C13.3714 38.974 13.9266 39.0434 14.4992 39.0829C15.4709 39.1493 16.4567 39.1139 17.4413 38.9852C18.4215 38.8587 19.3869 38.6345 20.3237 38.3158C20.5841 38.2269 20.842 38.1308 21.0978 38.0269ZM34.5897 30.0794V46.2112C34.5897 46.6432 34.2376 47 33.8116 47H27.105C26.6791 47 26.327 46.6452 26.327 46.2112V34.4863C27.4281 33.3408 28.346 32.0279 29.0475 30.595C29.4882 29.6975 29.8404 28.7581 30.099 27.7904C30.2659 27.1625 30.3927 26.5243 30.4784 25.8799L32.2689 27.9C32.3433 27.9839 32.42 28.0657 32.4987 28.1455C33.2133 28.8702 33.9059 29.5146 34.5897 30.0794ZM48.0816 31.2806V46.2112C48.0816 46.6432 47.7298 47 47.3039 47H40.5969C40.1711 47 39.8192 46.6452 39.8192 46.2112V32.8393C40.6022 33.0157 41.4132 33.0986 42.2683 33.088C44.4059 33.0617 46.2534 32.4578 48.0816 31.2806Z" fill="#E74D8A"/>
</g>
</g>
<defs>
<clipPath id="clip0_1_52">
<rect width="66" height="47" fill="white"/>
</clipPath>
</defs>
</svg>
