<svg width="47" height="47" viewBox="0 0 47 47" fill="none" xmlns="http://www.w3.org/2000/svg">
<g clip-path="url(#clip0_5515_5)">
<path d="M2.18201 0H19.2489C20.4505 0 21.4309 0.981366 21.4309 2.18214V19.25C21.4309 20.4453 20.4441 21.4322 19.2489 21.4322H2.18201C0.984063 21.4322 0 20.448 0 19.25V2.18214C0 0.977694 0.977637 0 2.18201 0ZM27.7502 25.5669H44.818C46.0132 25.5669 47 26.5538 47 27.7491V44.8179C47 46.0113 46.0104 47 44.818 47H27.7502C27.1535 47 26.6073 46.7531 26.2126 46.3601C25.8151 45.959 25.5682 45.4137 25.5682 44.8179V27.7491C25.5682 26.5446 26.5458 25.5669 27.7502 25.5669ZM44.449 28.1172H28.1183V44.4488H44.449V28.1172ZM27.7502 0H44.818C46.0132 0 47 0.986874 47 2.18214V19.25C47 20.4453 46.0132 21.4322 44.818 21.4322H27.7502C26.5522 21.4322 25.5682 20.448 25.5682 19.25V2.18214C25.5682 0.977694 26.5458 0 27.7502 0ZM44.449 2.55118H28.1183V18.881H44.449V2.55118ZM2.18201 25.5669H19.2489C20.4505 25.5669 21.4309 26.5474 21.4309 27.7491V44.8179C21.4309 46.0122 20.4441 47 19.2489 47H2.18201C0.986816 47 0 46.0122 0 44.8179V27.7491C0 26.5446 0.977637 25.5669 2.18201 25.5669ZM18.8799 28.1172H2.55104V44.4488H18.8799V28.1172ZM18.8799 2.55118H2.55104V18.881H18.8799V2.55118Z" fill="#E74D8A"/>
</g>
<defs>
<clipPath id="clip0_5515_5">
<rect width="47" height="47" fill="white"/>
</clipPath>
</defs>
</svg>
