<svg width="106" height="123" viewBox="0 0 106 123" fill="none" xmlns="http://www.w3.org/2000/svg">
<g clip-path="url(#clip0_5527_2)">
<path d="M30.4602 14.57V5.22C30.4623 4.53695 30.5994 3.86104 30.8637 3.23119C31.128 2.60134 31.5143 2.02998 32.0002 1.55C32.4809 1.06146 33.0536 0.672956 33.6852 0.40692C34.3168 0.140884 34.9949 0.00258341 35.6802 0L70.0002 0C71.3775 0.00586845 72.6966 0.55581 73.6702 1.53C74.6444 2.50359 75.1944 3.82273 75.2002 5.2V14.55H102.28C102.724 14.5474 103.164 14.6326 103.575 14.8009C103.985 14.9692 104.358 15.2172 104.673 15.5305C104.987 15.8439 105.236 16.2164 105.405 16.6265C105.575 17.0366 105.662 17.4762 105.66 17.92V29.58C105.666 30.0239 105.583 30.4644 105.418 30.8766C105.253 31.2887 105.009 31.6642 104.699 31.9818C104.388 32.2994 104.019 32.5528 103.611 32.7275C103.203 32.9022 102.764 32.9948 102.32 33H98.5102L90.2102 120.22C90.1342 120.952 89.7916 121.631 89.2477 122.127C88.7037 122.623 87.9963 122.902 87.2602 122.91H18.4302C17.6432 122.91 16.8876 122.601 16.3264 122.049C15.7652 121.497 15.4434 120.747 15.4302 119.96L7.19024 33H3.37024C2.92383 32.9987 2.48209 32.909 2.07054 32.7361C1.65899 32.5631 1.28577 32.3103 0.972445 31.9924C0.659116 31.6744 0.41188 31.2975 0.245012 30.8834C0.0781451 30.4694 -0.00504798 30.0264 0.00023688 29.58V17.94C-0.00108332 17.4971 0.0851831 17.0583 0.254074 16.6488C0.422965 16.2393 0.671147 15.8673 0.984343 15.5541C1.29754 15.2409 1.66957 14.9927 2.07903 14.8238C2.4885 14.6549 2.92731 14.5687 3.37024 14.57H30.4602ZM66.7302 14.57V8.51H39.0002V14.57H66.7302ZM49.4802 49.25C49.4802 48.3483 49.8385 47.4835 50.4761 46.8458C51.1137 46.2082 51.9785 45.85 52.8802 45.85C53.782 45.85 54.6468 46.2082 55.2844 46.8458C55.922 47.4835 56.2802 48.3483 56.2802 49.25V101.06C56.2802 101.506 56.1923 101.949 56.0214 102.361C55.8506 102.774 55.6001 103.148 55.2844 103.464C54.9687 103.78 54.5939 104.03 54.1814 104.201C53.7689 104.372 53.3267 104.46 52.8802 104.46C52.4337 104.46 51.9916 104.372 51.5791 104.201C51.1666 104.03 50.7918 103.78 50.4761 103.464C50.1604 103.148 49.9099 102.774 49.739 102.361C49.5682 101.949 49.4802 101.506 49.4802 101.06V49.25ZM69.5902 49C69.5978 48.5406 69.6984 48.0875 69.886 47.668C70.0736 47.2486 70.3442 46.8715 70.6816 46.5596C71.019 46.2476 71.4161 46.0073 71.8489 45.8531C72.2818 45.699 72.7414 45.6341 73.2 45.6625C73.6586 45.6909 74.1067 45.812 74.5172 46.0184C74.9277 46.2248 75.2921 46.5123 75.5884 46.8635C75.8847 47.2147 76.1068 47.6223 76.2411 48.0617C76.3755 48.5011 76.4194 48.9632 76.3702 49.42L73.0002 101.27C72.907 102.141 72.4809 102.943 71.8109 103.508C71.141 104.072 70.2788 104.357 69.4044 104.301C68.5299 104.246 67.7105 103.855 67.1173 103.21C66.5241 102.565 66.2027 101.716 66.2202 100.84L69.5902 49ZM29.3302 49.42C29.3027 48.9755 29.3629 48.5299 29.5075 48.1086C29.6522 47.6874 29.8784 47.2988 30.1732 46.9649C30.468 46.6311 30.8257 46.3586 31.2258 46.163C31.626 45.9674 32.0607 45.8526 32.5052 45.825C32.9498 45.7974 33.3954 45.8577 33.8166 46.0023C34.2378 46.1469 34.6265 46.3731 34.9603 46.6679C35.2941 46.9628 35.5666 47.3205 35.7622 47.7206C35.9578 48.1207 36.0727 48.5555 36.1002 49L39.5102 100.8C39.5673 101.698 39.2653 102.581 38.6708 103.257C38.0763 103.932 37.238 104.343 36.3402 104.4C35.4425 104.457 34.5588 104.155 33.8837 103.561C33.2086 102.966 32.7973 102.128 32.7402 101.23L29.3302 49.46V49.42ZM92.5102 33.38H13.1902L21.1302 116.93H84.5602L92.5602 33.38H92.5102Z" fill="#6D6C6C"/>
</g>
<defs>
<clipPath id="clip0_5527_2">
<rect width="105.7" height="122.88" fill="white"/>
</clipPath>
</defs>
</svg>
