<svg width="103" height="123" viewBox="0 0 103 123" fill="none" xmlns="http://www.w3.org/2000/svg">
<g clip-path="url(#clip0_8_2)">
<path d="M71.38 84.84L60.49 74.38L58.19 88.51C58.15 88.78 58.06 89.06 57.93 89.31C57.8 89.56 57.62 89.79 57.39 89.98C56.9 90.39 56.28 90.58 55.68 90.54C55.09 90.49 54.5 90.22 54.08 89.73L37.43 70L19.96 85.79V103.22H82.69V72.83L72.34 84.74C72.24 84.91 72.04 85.01 71.84 85.01C71.65 85.02 71.5 84.95 71.38 84.84ZM50.29 25.85C48.72 25.85 47.29 25.21 46.26 24.18C45.23 23.15 44.59 21.72 44.59 20.14C44.59 18.57 45.23 17.14 46.26 16.11L46.27 16.1C47.3 15.07 48.73 14.43 50.3 14.43H82.33C83.91 14.43 85.33 15.07 86.36 16.1C87.39 17.13 88.03 18.56 88.03 20.14C88.03 21.72 87.39 23.14 86.36 24.17C85.32 25.21 83.9 25.85 82.32 25.85H50.29ZM48.4 22.05C48.88 22.53 49.55 22.83 50.29 22.83H82.32C83.07 22.83 83.74 22.53 84.22 22.05C84.7 21.57 85 20.89 85 20.15C85 19.41 84.7 18.74 84.21 18.26C83.73 17.78 83.06 17.48 82.32 17.48H50.29C49.54 17.48 48.87 17.78 48.39 18.26L48.38 18.27C47.9 18.75 47.6 19.42 47.6 20.17C47.62 20.88 47.92 21.56 48.4 22.05ZM21.34 25.35C19.9 25.35 18.6 24.77 17.66 23.83C16.72 22.89 16.13 21.58 16.13 20.15C16.13 18.71 16.71 17.41 17.65 16.47C18.59 15.53 19.89 14.95 21.33 14.95H33.7C35.13 14.95 36.43 15.54 37.37 16.47C38.32 17.41 38.9 18.72 38.9 20.15C38.9 21.59 38.32 22.89 37.38 23.83C36.44 24.77 35.14 25.35 33.7 25.35H21.34ZM20.77 34.19H81.88C82.12 34.19 82.35 34.21 82.58 34.24H84.97C85.6 34.24 86.17 34.51 86.59 34.94C87 35.35 87.25 35.95 87.25 36.58V105.57C87.25 106.2 87 106.78 86.59 107.21C86.18 107.64 85.61 107.91 84.97 107.91H17.68C17.05 107.91 16.48 107.64 16.08 107.21C15.67 106.8 15.42 106.2 15.42 105.57V102.76C15.42 102.68 15.41 102.59 15.41 102.51V39.55C15.41 39.47 15.41 39.38 15.42 39.3V36.57C15.42 35.94 15.67 35.36 16.08 34.93C16.48 34.5 17.05 34.23 17.68 34.23H20.07C20.3 34.2 20.53 34.19 20.77 34.19ZM71.78 78.68L82.67 65.61V38.91H19.96V79.43C25.26 74.64 30.71 69.36 36.13 64.81C36.61 64.4 37.2 64.21 37.77 64.25C38.36 64.28 38.95 64.54 39.37 65L39.38 65.03C39.41 65.06 39.43 65.08 39.46 65.12L54.35 82.74L56.56 69.16C56.68 68.54 57.03 68.02 57.5 67.67C57.98 67.33 58.58 67.15 59.22 67.26L59.28 67.27C59.5 67.31 59.72 67.39 59.91 67.48C60.13 67.58 60.32 67.73 60.5 67.89L71.78 78.68ZM60.58 48.82C61.5 48.82 62.4 49.01 63.22 49.35C64.07 49.7 64.83 50.22 65.47 50.85C66.1 51.48 66.62 52.25 66.98 53.1C67.32 53.91 67.5 54.82 67.5 55.74C67.5 56.66 67.31 57.56 66.98 58.38C66.63 59.23 66.11 60 65.48 60.63C64.85 61.26 64.08 61.78 63.23 62.13C62.42 62.48 61.52 62.66 60.59 62.66C59.67 62.66 58.77 62.47 57.95 62.13C57.1 61.78 56.35 61.26 55.7 60.63C55.07 60 54.55 59.23 54.19 58.38C53.85 57.57 53.67 56.67 53.67 55.74C53.67 54.82 53.86 53.92 54.19 53.1C54.54 52.25 55.06 51.49 55.69 50.85C56.32 50.22 57.09 49.7 57.94 49.35C58.75 49 59.64 48.82 60.58 48.82ZM62.66 53.66C62.39 53.39 62.07 53.17 61.7 53.01C61.36 52.87 60.98 52.79 60.58 52.79C60.18 52.79 59.8 52.87 59.45 53.01C59.09 53.16 58.77 53.38 58.49 53.64C58.22 53.91 58 54.23 57.86 54.6C57.72 54.95 57.64 55.32 57.64 55.72C57.64 56.11 57.72 56.49 57.86 56.84C58.02 57.2 58.24 57.52 58.49 57.8C58.76 58.07 59.09 58.29 59.45 58.45C59.79 58.59 60.17 58.67 60.58 58.67C60.97 58.67 61.36 58.59 61.7 58.45C62.06 58.29 62.39 58.07 62.66 57.82C62.93 57.55 63.15 57.23 63.31 56.86C63.45 56.51 63.53 56.14 63.53 55.74C63.53 55.35 63.45 54.96 63.31 54.62C63.15 54.26 62.93 53.94 62.66 53.66ZM5.58 0H97.08C98.61 0 100 0.63 101.02 1.65L101.03 1.66C102.04 2.67 102.66 4.07 102.66 5.6V117.3C102.66 118.83 102.03 120.22 101.01 121.24L101 121.25C99.99 122.26 98.59 122.88 97.06 122.88H5.58C4.06 122.88 2.66 122.25 1.64 121.23L1.63 121.22C0.62 120.21 0 118.82 0 117.28V5.6C0 4.07 0.63 2.68 1.65 1.66L1.66 1.65C2.66 0.62 4.05 0 5.58 0ZM96.99 5.66H5.66V117.21H97V5.66H96.99Z" fill="#797979"/>
</g>
<defs>
<clipPath id="clip0_8_2">
<rect width="102.66" height="122.88" fill="white"/>
</clipPath>
</defs>
</svg>
