<svg width="42" height="56" viewBox="0 0 42 56" fill="none" xmlns="http://www.w3.org/2000/svg">
<g clip-path="url(#clip0_5515_51)">
<path d="M37.3861 29.4479H18.9171C18.1223 29.4479 17.4779 28.7993 17.4779 27.9995C17.4779 27.1993 18.1223 26.5508 18.9171 26.5508H37.3852L31.3535 19.667C30.8295 19.07 30.8848 18.1581 31.4775 17.6303C32.0706 17.1021 32.9766 17.1577 33.5011 17.7548L41.6405 27.0439C42.1276 27.598 42.1148 28.4243 41.6355 28.9625L33.5007 38.2448C32.9766 38.8423 32.0702 38.8979 31.477 38.3692C30.8843 37.8415 30.829 36.9291 31.3531 36.3321L37.3861 29.4479ZM32.3972 45.4038C32.3972 44.6036 33.0479 43.9551 33.8505 43.9551C34.6536 43.9551 35.3043 44.6036 35.3043 45.4038V51.8943C35.3043 53.0223 34.8393 54.0495 34.0934 54.7928C33.3466 55.5365 32.3157 55.9995 31.1848 55.9995H4.12001C2.98814 55.9995 1.95688 55.5374 1.21007 54.7937C0.464639 54.0508 0 53.025 0 51.8943V4.10566C0 2.97546 0.463267 1.9487 1.20916 1.20495C1.95505 0.461654 2.9854 0 4.12001 0H31.1843C32.318 0 33.3479 0.463021 34.0938 1.20586C34.8406 1.95007 35.3039 2.97819 35.3039 4.10566V10.5957C35.3039 11.3955 34.6531 12.044 33.8501 12.044C33.0475 12.044 32.3967 11.3955 32.3967 10.5957V4.10566C32.3967 3.77663 32.259 3.47448 32.0377 3.25391C31.8173 3.03424 31.5145 2.89707 31.1839 2.89707H4.12001C3.788 2.89707 3.48479 3.03379 3.26482 3.25345C3.04394 3.47266 2.9072 3.7748 2.9072 4.10566V51.8943C2.9072 52.2243 3.04485 52.5255 3.26528 52.7452C3.48662 52.9658 3.78983 53.1029 4.12001 53.1029H31.1843C31.5136 53.1029 31.8159 52.9653 32.0372 52.7447C32.259 52.5242 32.3972 52.2225 32.3972 51.8943V45.4038Z" fill="#797979"/>
</g>
<defs>
<clipPath id="clip0_5515_51">
<rect width="42" height="56" fill="white"/>
</clipPath>
</defs>
</svg>
