<svg width="157" height="134" viewBox="0 0 157 134" fill="none" xmlns="http://www.w3.org/2000/svg">
<g clip-path="url(#clip0_1_2)">
<path d="M4.89092 0H157V16.5719H0V0H4.89092ZM3.4957 65.345L31.5901 41.1979C32.4978 40.4211 33.8685 40.5285 34.6443 41.4374C34.9812 41.8306 35.1662 42.3318 35.1655 42.8499L35.1717 91.1501C35.1717 92.3538 34.1996 93.3271 32.9976 93.3271C32.3966 93.3271 31.8538 93.0845 31.4613 92.6884L3.48037 68.652C2.57271 67.8751 2.46539 66.5026 3.24426 65.5937L3.4957 65.345ZM61.9414 78.2874H157V94.8593H57.0505V78.2874H61.9414ZM61.9414 39.1437H157V55.7126H57.0505V39.1437H61.9414ZM4.89092 117.428H157V134H0V117.428H4.89092Z" fill="#797979"/>
</g>
<defs>
<clipPath id="clip0_1_2">
<rect width="157" height="134" fill="white"/>
</clipPath>
</defs>
</svg>
