<svg width="61" height="51" viewBox="0 0 61 51" fill="none" xmlns="http://www.w3.org/2000/svg">
<g clip-path="url(#clip0_5518_65)">
<path fill-rule="evenodd" clip-rule="evenodd" d="M5.14692 0H55.8536C58.6847 0 61 2.29628 61 5.103C61 7.90973 58.6847 10.2065 55.8536 10.2065H5.14692C2.31631 10.2065 0 7.91022 0 5.10349C0 2.29628 2.31631 0 5.14692 0ZM5.14692 40.794H55.8536C58.6847 40.794 61 43.0903 61 45.897C61 48.7037 58.6847 51 55.8536 51H5.14692C2.31631 51 0 48.7037 0 45.897C0 43.0903 2.31631 40.794 5.14692 40.794ZM5.14692 20.3972H55.8536C58.6847 20.3972 61 22.6935 61 25.5002C61 28.307 58.6847 30.6037 55.8536 30.6037H5.14692C2.31631 30.6037 0 28.307 0 25.5002C0 22.6935 2.31631 20.3972 5.14692 20.3972Z" fill="#797979"/>
</g>
<defs>
<clipPath id="clip0_5518_65">
<rect width="61" height="51" fill="white"/>
</clipPath>
</defs>
</svg>
