<svg width="58" height="58" viewBox="0 0 58 58" fill="none" xmlns="http://www.w3.org/2000/svg">
<g clip-path="url(#clip0_5516_57)">
<path d="M34.8387 3.52732C38.2494 4.5833 41.3226 6.51787 43.7502 9.13702C46.377 11.9408 48.1404 15.4426 48.8289 19.2232V19.3554C48.9281 19.9267 48.9989 20.4698 49.0413 20.9797C49.0933 21.5747 49.1216 22.1744 49.1216 22.7741V27.5574C49.1216 28.8843 49.1216 30.2348 49.216 31.59C49.3402 34.0214 50.0425 36.3881 51.2645 38.4935C52.6394 40.6498 54.4756 42.4738 56.6406 43.8341C57.2547 44.2358 57.6998 44.8491 57.8914 45.5576C58.035 46.1106 58.0219 46.6926 57.8537 47.2386C57.688 47.7843 57.3762 48.2741 56.9521 48.6552C56.3978 49.1415 55.6833 49.4055 54.9461 49.3966H38.8319V49.4343C36.8778 60.8615 21.0797 60.8285 19.1728 49.3966H3.04443C2.26717 49.4141 1.5137 49.1278 0.944007 48.5986C0.538768 48.2112 0.245512 47.7216 0.0951523 47.1814C-0.0552068 46.6412 -0.0570981 46.0704 0.0896778 45.5293C0.293379 44.798 0.767572 44.1717 1.41601 43.7774C4.08756 41.9689 5.9567 39.9998 7.13672 37.7522C8.31673 35.5045 8.85954 32.8224 8.85954 29.5926V22.7741C8.85954 22.2263 8.88786 21.6314 8.9445 20.9939C9.00114 20.3564 9.08138 19.804 9.18522 19.2184C9.86466 15.5509 11.5433 12.1423 14.0361 9.36856C16.5289 6.5948 19.739 4.56361 23.3123 3.49899C25.4883 -1.16632 32.6628 -1.17577 34.8387 3.52732ZM41.3996 11.3327C39.1938 8.94974 36.3573 7.2419 33.2197 6.40772C32.9532 6.33446 32.7099 6.19395 32.5132 5.99965C32.3165 5.80535 32.173 5.56377 32.0964 5.29806C31.2892 2.52626 26.9043 2.46487 26.0924 5.27445C26.0134 5.54824 25.8636 5.79632 25.658 5.99364C25.4525 6.19096 25.1986 6.33054 24.9219 6.39828C21.7661 7.19483 18.9045 8.87885 16.6753 11.2512C14.4461 13.6235 12.9427 16.5849 12.3429 19.7851C12.2548 20.2825 12.1887 20.7783 12.1447 21.2725C12.1022 21.7447 12.0833 22.2169 12.0833 22.7741V29.5926C12.0833 33.3277 11.432 36.4678 9.98291 39.2396C8.59521 41.8934 6.50895 44.1457 3.59196 46.1903H54.408C52.038 44.6143 50.0313 42.5505 48.5221 40.1368C47.0413 37.6042 46.1839 34.7556 46.0205 31.8261C45.9167 30.4662 45.9214 28.9929 45.9261 27.5763V22.7741C45.9261 22.2547 45.9261 21.7494 45.8647 21.2536C45.8034 20.7578 45.7656 20.3092 45.6948 19.9078L45.6665 19.7804C45.088 16.6143 43.6137 13.6808 41.4185 11.328L41.3996 11.3327Z" fill="#797979"/>
</g>
<defs>
<clipPath id="clip0_5516_57">
<rect width="58" height="58" fill="white"/>
</clipPath>
</defs>
</svg>
