<svg width="66" height="47" viewBox="0 0 66 47" fill="none" xmlns="http://www.w3.org/2000/svg">
<g clip-path="url(#clip0_5515_7)">
<path fill-rule="evenodd" clip-rule="evenodd" d="M61.5742 19.904V46.2112C61.5742 46.6424 61.2216 47 60.7963 47H54.0895C53.6642 47 53.3117 46.6452 53.3117 46.2112V26.643C54.6806 25.285 56.3634 23.6422 58.0803 21.9664L60.7895 19.319C61.0363 19.5336 61.2986 19.7291 61.5742 19.904ZM25.3962 12.225L30.5601 7.64311C34.484 11.5418 38.2884 16.2545 42.1727 20.1466L56.3332 5.71703L51.7726 1.09142L66 0L65.2 14.7043L60.8252 10.2662C57.6845 13.4932 50.2571 20.6049 47.1124 23.7947C43.1402 27.8241 41.2431 27.8968 37.2693 23.8663L30.5601 16.293L29.2574 17.4647C29.056 17.0227 28.835 16.5902 28.5952 16.1685C28.0963 15.292 27.5237 14.4784 26.8891 13.7403L26.8977 13.7327C26.4472 13.208 25.9449 12.7034 25.3962 12.225ZM16.2806 12.3805C14.803 12.2774 13.3198 12.4712 11.9162 12.9509L11.8865 12.9622C10.4921 13.4432 9.20391 14.1961 8.09431 15.1784C6.97635 16.1683 6.06163 17.372 5.40236 18.7205C4.74459 20.0657 4.35502 21.5293 4.256 23.0275C4.18168 24.1326 4.26566 25.2428 4.5053 26.3235C4.71397 27.2628 5.03931 28.1716 5.47352 29.0279L0.16838 34.179C0.0644909 34.2792 0.00402621 34.4171 0.000256103 34.5624C-0.003514 34.7077 0.0497185 34.8486 0.148271 34.9542L3.15166 38.1402C3.25033 38.245 3.38595 38.3057 3.52875 38.3092C3.67155 38.3127 3.80987 38.2585 3.91336 38.1587L9.01857 33.1604C9.794 33.7167 10.636 34.1709 11.5242 34.512C12.5602 34.9085 13.6481 35.1482 14.7528 35.2235C16.2297 35.3265 17.7121 35.1328 19.1151 34.6538C20.5218 34.1731 21.8212 33.4161 22.9393 32.4259C24.0569 31.4362 24.9714 30.2329 25.6307 28.8848C26.2724 27.5758 26.6747 26.1208 26.7781 24.5763C26.8814 23.0317 26.6763 21.5348 26.2158 20.1498L26.2047 20.1196C25.7297 18.7059 24.9869 17.3999 24.0181 16.2751C23.0437 15.1408 21.858 14.2127 20.5291 13.5444C19.2386 12.8935 17.8035 12.4852 16.2806 12.3805ZM14.4361 28.2645C13.8415 28.2224 13.0841 28.0737 12.5011 27.9152V26.0604C13.275 26.124 15.1809 26.2888 15.8836 26.1276C16.4108 26.0062 16.3524 25.1618 16.0052 25.0561C15.5871 24.9242 14.7121 25.0825 14.0084 24.8758C13.6493 24.7701 13.3462 24.6109 13.0992 24.3982C12.847 24.1799 12.6581 23.8907 12.5341 23.5314C12.4131 23.1818 12.3521 22.7654 12.3521 22.2825V21.6469C12.3521 20.2878 13.091 19.4783 14.4361 19.2503V18.276H16.3524V19.2124C16.9468 19.2605 17.6865 19.4145 18.2764 19.5595V21.4173C17.4721 21.3455 15.9468 21.1996 15.1839 21.3402C15.1214 21.3511 15.0606 21.37 15.0029 21.3966C14.6897 21.5473 14.7022 22.4162 15.0859 22.5191C15.3369 22.5859 15.8516 22.5506 16.1261 22.5506C16.4037 22.5506 16.6613 22.5781 16.8977 22.6324C17.1362 22.6874 17.3521 22.7707 17.5434 22.8816C18.346 23.3455 18.6999 24.1636 18.6999 25.0672V25.7035C18.6999 26.0811 18.6666 26.4181 18.6008 26.7128C18.3387 27.8818 17.4448 28.134 16.3524 28.2552V29.3059H14.4361V28.2645ZM9.59349 16.9203C10.4802 16.136 11.5156 15.526 12.6413 15.1417C13.7274 14.7704 14.9055 14.6054 16.1261 14.6892C17.3466 14.7732 18.4924 15.0983 19.518 15.6144C20.5833 16.15 21.5272 16.8959 22.3011 17.7949L22.3285 17.8243C23.0945 18.7226 23.6812 19.7633 24.056 20.8886L24.0658 20.9159C24.4243 22.0082 24.5836 23.1934 24.5016 24.4203C24.419 25.657 24.0988 26.8187 23.5906 27.8582C23.0627 28.9334 22.3317 29.893 21.4392 30.6825C20.5528 31.4673 19.5175 32.0775 18.3917 32.462C17.3069 32.8327 16.1281 32.9979 14.9074 32.914C13.6885 32.8302 12.5439 32.5054 11.5181 31.9893L11.4912 31.9768C9.36713 30.9008 7.73647 28.9963 6.97798 26.7156L6.96818 26.6884C6.6097 25.5958 6.45037 24.4107 6.53235 23.1835C6.61511 21.9459 6.93557 20.7841 7.44449 19.7437C7.971 18.6685 8.70124 17.7091 9.59349 16.9203ZM21.0979 38.0269V46.2112C21.0979 46.6436 20.7465 47 20.32 47H13.6132C13.1867 47 12.8354 46.6452 12.8354 46.2112V38.8772C13.3715 38.974 13.9267 39.0434 14.4993 39.0829C15.471 39.1493 16.4568 39.1139 17.4414 38.9852C18.4216 38.8587 19.387 38.6345 20.3238 38.3158C20.5842 38.2269 20.8421 38.1308 21.0979 38.0269ZM34.5898 30.0794V46.2112C34.5898 46.6432 34.2377 47 33.8117 47H27.1051C26.6792 47 26.3271 46.6452 26.3271 46.2112V34.4863C27.4282 33.3408 28.3461 32.0279 29.0476 30.595C29.4883 29.6975 29.8405 28.7581 30.0991 27.7904C30.266 27.1625 30.3928 26.5243 30.4785 25.8799L32.269 27.9C32.3434 27.9839 32.4201 28.0657 32.4988 28.1455C33.2134 28.8702 33.906 29.5146 34.5898 30.0794ZM48.0817 31.2806V46.2112C48.0817 46.6432 47.7299 47 47.304 47H40.597C40.1712 47 39.8193 46.6452 39.8193 46.2112V32.8393C40.6023 33.0157 41.4133 33.0986 42.2684 33.088C44.406 33.0617 46.2535 32.4578 48.0817 31.2806Z" fill="#797979"/>
</g>
<defs>
<clipPath id="clip0_5515_7">
<rect width="66" height="47" fill="white"/>
</clipPath>
</defs>
</svg>
