<svg width="59" height="59" viewBox="0 0 59 59" fill="none" xmlns="http://www.w3.org/2000/svg">
<g clip-path="url(#clip0_5517_61)">
<path d="M29.5 0C37.6459 0 45.0209 3.30204 50.3595 8.6405C55.698 13.9791 59 21.3541 59 29.5C59 37.6459 55.698 45.0209 50.3595 50.3595C45.0209 55.698 37.6459 59 29.5 59C21.3541 59 13.9791 55.698 8.6405 50.3595C3.30204 45.0209 0 37.6459 0 29.5C0 21.3541 3.30204 13.9791 8.6405 8.6405C13.9791 3.30204 21.3541 0 29.5 0ZM23.8108 36.4803C23.6965 36.3321 24.1097 35.3144 24.2075 35.1498C23.0872 34.1529 22.202 33.1472 22.0133 31.0774L21.8931 31.08C21.6157 31.0763 21.3482 31.0124 21.0977 30.8697C20.6966 30.6416 20.4143 30.2498 20.2239 29.8081C19.8205 28.8813 18.4918 25.8051 20.5162 26.0483C19.3843 23.9343 21.9462 20.323 17.5276 18.9873C21.1529 14.3958 28.802 7.31623 34.4075 14.4178C40.5431 15.0124 42.457 22.3041 38.3255 26.2976C38.5676 26.3064 38.7956 26.3622 38.9975 26.4703C39.7655 26.8816 39.7908 27.7745 39.5889 28.5236C39.3892 29.1492 39.1356 29.5727 38.8963 30.1826C38.6055 31.0062 38.1801 31.1596 37.3585 31.0709C37.3168 33.1071 36.3758 34.1065 35.1094 35.3027L35.4559 36.4766C33.7577 40.079 26.703 40.2238 23.8108 36.4803ZM9.07494 45.4282C10.4665 39.4898 14.3361 41.5798 21.7897 36.9161C24.438 42.4419 35.2013 42.8434 37.4085 36.9161C43.7868 40.9936 48.8129 39.3272 50.0795 45.2289C53.4172 40.8683 55.4005 35.4158 55.4005 29.5C55.4005 22.3476 52.5015 15.8724 47.8147 11.1853C43.1276 6.49853 36.6524 3.59946 29.5 3.59946C22.3476 3.59946 15.8724 6.49853 11.1853 11.1853C6.49853 15.8724 3.59946 22.3476 3.59946 29.5C3.59946 35.5064 5.64418 41.0348 9.07494 45.4282Z" fill="#797979"/>
</g>
<defs>
<clipPath id="clip0_5517_61">
<rect width="59" height="59" fill="white"/>
</clipPath>
</defs>
</svg>
