<svg width="62" height="48" viewBox="0 0 62 48" fill="none" xmlns="http://www.w3.org/2000/svg">
<g clip-path="url(#clip0_5515_45)">
<path d="M56.5755 27.6027C56.3258 27.428 56.0594 27.3668 55.7708 27.417C55.4822 27.4671 55.2491 27.6152 55.077 27.8632L54.134 29.1928C53.7934 29.0488 53.4392 28.9328 53.0734 28.8379C52.7076 28.7431 52.3388 28.6698 51.9695 28.6161L51.6642 26.8749C51.6128 26.5807 51.4685 26.3513 51.2278 26.1822C50.9866 26.0135 50.7202 25.9568 50.425 26.008L48.2282 26.389C47.9472 26.4382 47.7201 26.5807 47.5435 26.8217C47.371 27.0621 47.3094 27.3276 47.3614 27.6212L47.6409 29.2159C47.2887 29.3655 46.9507 29.5351 46.6323 29.7274C46.3094 29.9196 46.0082 30.1269 45.7282 30.3493L44.2463 29.3288C44.0117 29.1552 43.7518 29.0894 43.4597 29.1406C43.1716 29.1903 42.942 29.3409 42.7659 29.5858L41.4965 31.3863C41.3209 31.6348 41.2598 31.8998 41.3103 32.1864C41.3607 32.4735 41.5096 32.7059 41.7583 32.8771L43.0954 33.8152C42.9506 34.154 42.834 34.5064 42.7382 34.8703C42.6428 35.2342 42.5697 35.6011 42.5152 35.9685L40.7649 36.2722C40.4697 36.3234 40.2386 36.4664 40.0691 36.7064C39.8996 36.9463 39.842 37.2113 39.8935 37.5049L40.277 39.6904C40.3259 39.97 40.4692 40.1958 40.7114 40.3715C40.9531 40.5432 41.22 40.6044 41.5156 40.5527L43.1181 40.2746C43.2685 40.625 43.439 40.9608 43.6322 41.278C43.826 41.5993 44.0359 41.9059 44.2614 42.1986L43.2316 43.6517C43.0571 43.8851 42.9915 44.1436 43.0424 44.4342C43.0929 44.7208 43.2437 44.9492 43.49 45.1244L45.3038 46.4083C45.5511 46.5685 45.8165 46.6227 46.1046 46.5725C46.3927 46.5223 46.6278 46.3817 46.8024 46.1483L47.7418 44.7966C48.0819 44.9407 48.4361 45.0566 48.8024 45.1515C49.1677 45.2469 49.5365 45.3196 49.9064 45.3733L50.2111 47.1151C50.2626 47.4087 50.4069 47.6386 50.6476 47.8073C50.8887 47.9754 51.1551 48.0331 51.4503 47.9819L53.6471 47.6005C53.9282 47.5518 54.1552 47.4087 54.3318 47.1683C54.5049 46.9279 54.5659 46.6623 54.5139 46.3682L54.2344 44.7735C54.5866 44.6239 54.9247 44.4548 55.2435 44.2626C55.5659 44.0698 55.8742 43.861 56.1689 43.6366L57.6291 44.6611C57.8642 44.8348 58.1276 44.8995 58.4227 44.8478C58.7219 44.7956 58.9475 44.6465 59.1094 44.4036L60.4001 42.5996C60.5605 42.3537 60.615 42.0897 60.5651 41.803C60.5141 41.5164 60.3728 41.2825 60.1387 41.1089L58.7799 40.1748C58.9248 39.8354 59.0413 39.4831 59.1367 39.1192C59.232 38.7558 59.3052 38.3884 59.3597 38.0209L61.11 37.7178C61.4051 37.6661 61.6362 37.523 61.8057 37.2831C61.9758 37.0432 62.0328 36.7786 61.9813 36.4845L61.5984 34.2991C61.5489 34.0195 61.4056 33.7931 61.1635 33.6179C60.9218 33.4452 60.6549 33.385 60.3597 33.4362L58.7567 33.7143C58.6089 33.378 58.4389 33.0457 58.2446 32.7215C58.0494 32.3937 57.8405 32.09 57.6175 31.8114L58.6432 30.3377C58.8178 30.1038 58.8834 29.8453 58.8324 29.5547C58.782 29.2681 58.6311 29.0397 58.3849 28.8645L56.5755 27.6027ZM50.193 32.7506C50.7782 32.6487 51.3509 32.6622 51.9145 32.7917C52.4745 32.9252 52.9816 33.1481 53.4337 33.4613C53.8833 33.7785 54.2657 34.1776 54.5816 34.6569C54.8944 35.1408 55.1012 35.6719 55.2032 36.2546C55.3056 36.8374 55.2915 37.4071 55.1618 37.9672C55.0276 38.5249 54.8031 39.0283 54.4877 39.4786C54.1693 39.9263 53.7687 40.3063 53.2864 40.6205C52.8005 40.9317 52.2667 41.1375 51.6809 41.2394C51.0951 41.3408 50.5224 41.3272 49.9593 41.1977C49.3988 41.0642 48.8922 40.8413 48.4401 40.5276C47.9901 40.2104 47.6081 39.8119 47.2923 39.3325C46.9795 38.8486 46.7726 38.3176 46.6702 37.7348C46.5682 37.1521 46.5819 36.5824 46.712 36.0222C46.8463 35.4646 47.0703 34.9606 47.3856 34.5104C47.704 34.0636 48.1051 33.6832 48.587 33.369C49.0739 33.0578 49.6072 32.852 50.193 32.7506ZM33.3071 6.8043C33.2163 6.71344 33.1315 6.65221 33.0538 6.61958C32.9801 6.58846 32.8873 6.5734 32.7758 6.5734C32.6623 6.5734 32.5679 6.58947 32.4917 6.62109C32.411 6.65472 32.3298 6.71294 32.249 6.79526L32.2394 6.8043L30.1344 8.89186C29.7187 9.30345 29.0754 9.34863 28.6097 9.02839C28.373 8.87731 28.1193 8.72974 27.8508 8.58518C27.5582 8.42807 27.2772 8.28903 27.0057 8.16556C26.7196 8.03555 26.426 7.91258 26.1263 7.79663C25.8644 7.69524 25.5617 7.58833 25.2221 7.4774C24.7171 7.31176 24.3962 6.84445 24.3967 6.34251L24.3962 3.1311C24.3962 3.01415 24.379 2.91376 24.3447 2.83044C24.3119 2.74963 24.2584 2.67333 24.1858 2.60005L24.1837 2.60206C24.1076 2.52676 24.0309 2.47306 23.9542 2.44194C23.8704 2.4078 23.7695 2.39124 23.6519 2.39124H19.6019C19.4949 2.39124 19.4041 2.4063 19.3294 2.43742C19.2457 2.47155 19.1599 2.53128 19.0716 2.61611C19 2.68789 18.9475 2.76217 18.9152 2.83897C18.8814 2.91928 18.8642 3.01616 18.8642 3.1301V6.06946C18.8642 6.65773 18.4374 7.14662 17.8748 7.2465C17.5559 7.3223 17.2663 7.39909 17.01 7.4774C16.7199 7.56574 16.4262 7.66713 16.1291 7.78207C15.8485 7.88949 15.5614 8.01096 15.2683 8.14548C14.9741 8.281 14.7032 8.41552 14.4575 8.54904C13.9832 8.80603 13.4105 8.71116 13.0447 8.35228L13.0442 8.35278L10.7132 6.06745C10.7036 6.05791 10.6945 6.04888 10.6854 6.03934C10.6123 5.96254 10.5386 5.90733 10.4654 5.87571C10.3983 5.84659 10.3121 5.83154 10.2056 5.83154C10.0996 5.83154 10.0088 5.8481 9.93213 5.88022C9.84282 5.91787 9.75503 5.97911 9.66926 6.06243L6.83871 8.88484L6.8367 8.88684L6.83871 8.88935C6.74789 8.9797 6.68634 9.06353 6.65354 9.14083C6.62226 9.21411 6.60712 9.30646 6.60712 9.41739C6.60712 9.52983 6.62277 9.62419 6.65506 9.69999C6.68937 9.7803 6.74739 9.86111 6.83014 9.94142L6.83922 9.95096L8.93766 12.045C9.35139 12.4591 9.3968 13.0986 9.07489 13.5624C8.92302 13.7973 8.77468 14.0498 8.62937 14.3173C8.47145 14.608 8.33169 14.8875 8.20757 15.1576C8.07638 15.4427 7.95277 15.7348 7.83672 16.033C7.7348 16.294 7.62733 16.5951 7.51532 16.9324C7.34882 17.4349 6.87908 17.7541 6.37453 17.7541V17.7546H3.14791C3.02984 17.7546 2.92893 17.7717 2.84568 17.8053C2.76394 17.8384 2.68775 17.8901 2.61661 17.9614L2.61207 17.9659C2.54093 18.0367 2.48846 18.1125 2.45516 18.1938C2.42135 18.2771 2.4042 18.3775 2.4042 18.4945V22.524C2.4042 22.63 2.41984 22.7203 2.45061 22.7951C2.48492 22.8779 2.54497 22.9632 2.63074 23.0516L2.63175 23.0526C2.7039 23.1234 2.77857 23.1751 2.85476 23.2067C2.93549 23.2398 3.03287 23.2569 3.14791 23.2569H6.10207C6.6934 23.2569 7.18484 23.682 7.28524 24.2417C7.36093 24.5574 7.43762 24.8435 7.51633 25.098L7.51734 25.0975C7.61068 25.4007 7.7126 25.6943 7.8236 25.9784C7.93057 26.2545 8.05418 26.5466 8.19344 26.8543C8.33724 27.1705 8.47448 27.4526 8.60415 27.7C8.85289 28.1739 8.74946 28.7376 8.38719 29.0959L8.3882 29.0964L6.09046 31.3758L6.07129 31.3943H6.07179C5.9946 31.4676 5.9391 31.5399 5.90731 31.6132C5.87804 31.6799 5.86291 31.7658 5.86291 31.8717C5.86291 31.9766 5.87956 32.0674 5.91185 32.1432C5.9502 32.2336 6.01326 32.3219 6.09954 32.4092L8.9089 35.2367C8.99215 35.3125 9.07641 35.3677 9.16168 35.4008C9.24796 35.4344 9.35038 35.452 9.46794 35.452C9.58702 35.452 9.69095 35.4349 9.77975 35.3998C9.86301 35.3672 9.94273 35.316 10.0179 35.2457L12.0992 33.1426C12.5134 32.7235 13.1628 32.6733 13.6335 32.9965C13.8697 33.1471 14.124 33.2952 14.3929 33.4397C14.6855 33.5968 14.9666 33.7359 15.2375 33.8594C15.5241 33.9899 15.8177 34.1128 16.1174 34.2283C16.3793 34.3297 16.6825 34.4366 17.0216 34.5475C17.5267 34.7132 17.8476 35.181 17.8476 35.6829L17.8481 38.8933C17.8481 39.0098 17.8652 39.1106 17.8995 39.194C17.9328 39.2753 17.9848 39.3511 18.0559 39.4218L18.058 39.4244L18.0605 39.4218C18.2028 39.5634 18.3789 39.6332 18.5918 39.6332H22.6418C22.7483 39.6332 22.8396 39.6181 22.9143 39.587C22.9975 39.5529 23.0833 39.4926 23.1721 39.4078C23.2438 39.3355 23.2957 39.2612 23.328 39.1849C23.3618 39.1046 23.379 39.0072 23.379 38.8938V35.9544C23.379 35.3657 23.8063 34.8768 24.3684 34.7769C24.6873 34.7016 24.9769 34.6243 25.2332 34.546C25.5233 34.4577 25.817 34.3563 26.1142 34.2418C26.3917 34.1354 26.6853 34.0124 26.9946 33.8739C27.3125 33.7309 27.5965 33.5943 27.8448 33.4658C28.3211 33.2184 28.8877 33.3213 29.2479 33.6817L29.2484 33.6807L31.5396 35.9665L31.5578 35.9856L31.5583 35.9851C31.6325 36.0629 31.7056 36.1181 31.7773 36.1487C31.8454 36.1783 31.9362 36.1929 32.0512 36.1929C32.1622 36.1929 32.2551 36.1763 32.3308 36.1437C32.4085 36.1106 32.4816 36.0573 32.5507 35.9851C32.5659 35.9695 32.5815 35.9539 32.5972 35.9389L35.4217 33.1622C35.4973 33.0798 35.5528 32.996 35.5861 32.9107C35.6199 32.8249 35.6376 32.7235 35.6376 32.6065C35.6376 32.4875 35.6199 32.3842 35.5851 32.2963C35.5523 32.213 35.5009 32.1342 35.4307 32.0594L33.3162 29.9884C32.8948 29.5763 32.8444 28.9298 33.1693 28.462C33.3212 28.2266 33.4695 27.9741 33.6148 27.7071C33.7728 27.416 33.9125 27.1364 34.0367 26.8658C34.1678 26.5812 34.2915 26.2891 34.4075 25.9909C34.5094 25.7304 34.6169 25.4288 34.7289 25.0915C34.8954 24.5885 35.3656 24.2698 35.8702 24.2698L39.0968 24.2693C39.2149 24.2693 39.3158 24.2527 39.3995 24.2181C39.4813 24.1855 39.5575 24.1333 39.6286 24.0625L39.6311 24.0605L39.6286 24.058C39.7709 23.9164 39.841 23.7407 39.841 23.5294V19.5004C39.841 19.3939 39.8254 19.3036 39.7946 19.2293C39.7603 19.1465 39.6998 19.0612 39.6145 18.9728L39.6135 18.9713C39.5413 18.9005 39.4672 18.8493 39.3905 18.8172C39.3102 18.7836 39.2124 18.767 39.0973 18.767H36.1432C35.5448 18.767 35.0488 18.3318 34.9565 17.7626C34.8893 17.4976 34.8137 17.2271 34.7279 16.9515C34.6416 16.6754 34.5387 16.3788 34.4166 16.0611C34.409 16.041 34.4019 16.0209 34.3954 16.0008C34.2839 15.7107 34.1709 15.4402 34.0558 15.1897C33.9282 14.9116 33.793 14.6426 33.6502 14.3826C33.3918 13.9108 33.4877 13.3411 33.848 12.9772L36.1452 10.6582C36.1548 10.6487 36.1639 10.6396 36.1739 10.6306L36.1734 10.6301C36.2506 10.5573 36.3061 10.4845 36.3379 10.4117C36.3672 10.345 36.3823 10.2591 36.3823 10.1532C36.3823 10.0478 36.3657 9.95748 36.3329 9.88119C36.295 9.79285 36.234 9.70551 36.1497 9.61968L33.3126 6.8043L33.3101 6.80179L33.3071 6.8043ZM33.9837 4.4236C34.3651 4.58422 34.7062 4.8136 35.0069 5.11276L35.0044 5.11527L37.844 7.93366L37.8536 7.9432C38.1523 8.24536 38.3819 8.58016 38.5388 8.94708C38.7018 9.32855 38.785 9.7301 38.785 10.1532C38.785 10.5824 38.7002 10.986 38.5337 11.3649C38.3713 11.7359 38.1356 12.0641 37.8304 12.3532L36.1588 14.0398C36.184 14.0925 36.2088 14.1462 36.233 14.1994C36.3798 14.5201 36.5145 14.8383 36.6361 15.1546C36.6442 15.1726 36.6518 15.1917 36.6593 15.2108C36.7829 15.533 36.902 15.8809 37.0176 16.2508L37.0559 16.3753H39.0958C39.5262 16.3753 39.9293 16.4546 40.3093 16.6127C40.6821 16.7683 41.0177 16.9957 41.3174 17.2953L41.3411 17.3189C41.6342 17.6206 41.8562 17.9549 42.0096 18.3228C42.166 18.6993 42.2437 19.0913 42.2437 19.5004V23.5299C42.2437 24.4018 41.9415 25.1376 41.3269 25.749L41.3249 25.7465C41.0182 26.0512 40.6771 26.2796 40.2997 26.4321C39.9238 26.5852 39.5232 26.6605 39.0958 26.6605H36.7163C36.6926 26.7228 36.6679 26.786 36.6427 26.8498C36.512 27.1846 36.3697 27.5199 36.2153 27.8562C36.0544 28.2065 35.8914 28.5353 35.7274 28.8369C35.7082 28.8726 35.6886 28.9092 35.6679 28.9454L37.1154 30.3623C37.1316 30.3774 37.1472 30.3935 37.1634 30.4095C37.454 30.7147 37.673 31.0545 37.8203 31.4264C37.9681 31.7994 38.0413 32.1934 38.0413 32.606C38.0413 33.0166 37.9676 33.4081 37.8208 33.779C37.6745 34.1495 37.4585 34.4868 37.1725 34.793L37.1719 34.7925C37.1603 34.805 37.1477 34.8181 37.1351 34.8301L34.2839 37.6339C33.9887 37.9421 33.6547 38.1785 33.2798 38.3392C32.9009 38.5013 32.4917 38.5841 32.0517 38.5841C31.6214 38.5841 31.2147 38.4998 30.8297 38.3341C30.4483 38.1705 30.1127 37.9341 29.8216 37.6289L28.1586 35.9695C28.0986 35.9976 28.0395 36.0242 27.9815 36.0503C27.6732 36.1884 27.3392 36.3274 26.979 36.4654C26.6455 36.5944 26.2948 36.7144 25.929 36.8258C25.88 36.8409 25.8316 36.8559 25.7832 36.87V38.8943C25.7832 39.322 25.7035 39.7235 25.5445 40.1005C25.3881 40.4719 25.159 40.8057 24.8578 41.1038L24.8341 41.1274C24.5309 41.4186 24.1948 41.6399 23.8255 41.792C23.4471 41.9481 23.0535 42.0254 22.6418 42.0254H18.5928C17.7164 42.0254 16.9762 41.7242 16.3617 41.1139L16.3637 41.1114C16.0574 40.8062 15.8278 40.4669 15.6744 40.0914C15.5211 39.7175 15.4449 39.3189 15.4449 38.8943V36.5262C15.3823 36.5026 15.3192 36.478 15.2547 36.4534C14.9186 36.3229 14.5816 36.1813 14.244 36.0277C13.8914 35.8676 13.5614 35.7055 13.2576 35.5424C13.2213 35.5228 13.185 35.5032 13.1492 35.4831L11.7243 36.9227C11.7092 36.9393 11.693 36.9548 11.6769 36.9709C11.3701 37.26 11.028 37.4778 10.6547 37.6244C10.2798 37.7715 9.88369 37.8443 9.46945 37.8443C9.05572 37.8443 8.66267 37.7715 8.28981 37.6254C7.91745 37.4798 7.57839 37.2645 7.27112 36.9799L7.27162 36.9794C7.2585 36.9679 7.24589 36.9553 7.23327 36.9428L4.39113 34.0832C4.09243 33.78 3.86336 33.4458 3.70594 33.0788C3.54247 32.6979 3.45972 32.2958 3.45972 31.8732C3.45972 31.444 3.54449 31.0405 3.71099 30.662C3.87497 30.2886 4.11211 29.9588 4.41989 29.6682L6.08794 28.0133C6.05968 27.954 6.03294 27.8953 6.00671 27.8371C5.86745 27.5304 5.72819 27.1981 5.58944 26.8402C5.45472 26.4964 5.33464 26.1496 5.22667 25.8002L5.22768 25.7997L5.22667 25.7957L5.18277 25.6506H3.14791C2.71803 25.6506 2.31439 25.5718 1.93496 25.4137C1.56159 25.2581 1.22606 25.0302 0.92636 24.7311L0.902646 24.707C0.6095 24.4053 0.387497 24.071 0.234617 23.7036C0.0777012 23.3266 0 22.9341 0 22.5256V18.496C0 18.0713 0.0761875 17.6728 0.229572 17.2989C0.382956 16.9249 0.611014 16.5866 0.915764 16.2824L0.916773 16.2814L0.918791 16.2794L0.92081 16.2769C1.22657 15.9737 1.56714 15.7459 1.94354 15.5933C2.31994 15.4407 2.72055 15.3649 3.1474 15.3649H5.52789C5.5516 15.3026 5.57632 15.2399 5.60155 15.1756C5.73223 14.8414 5.87451 14.5061 6.02891 14.1698C6.18986 13.8194 6.35232 13.4911 6.5163 13.189C6.5375 13.1503 6.55869 13.1112 6.57988 13.0725L5.14039 11.6365C4.83715 11.3378 4.60607 11 4.44713 10.6271C4.28315 10.2416 4.20192 9.83852 4.20192 9.4199C4.20192 9.00279 4.28315 8.60275 4.44562 8.21876C4.60657 7.8393 4.83715 7.49998 5.13837 7.20083L5.14039 7.20284L7.97345 4.37792L7.98304 4.36838C8.28678 4.07123 8.62281 3.84285 8.99215 3.68625C9.37561 3.52412 9.77925 3.4413 10.2046 3.4413C10.636 3.4413 11.0411 3.52563 11.4221 3.69127C11.7949 3.85339 12.1249 4.0873 12.4155 4.39097L14.1083 6.05139C14.1598 6.02679 14.2107 6.0032 14.2617 5.97961C14.573 5.83656 14.9065 5.69702 15.2632 5.56049C15.5967 5.43149 15.9474 5.31102 16.3132 5.19959C16.3622 5.18504 16.4106 5.16998 16.459 5.15593V3.1311C16.459 2.70345 16.5387 2.3019 16.6972 1.92444C16.8536 1.5535 17.0827 1.21921 17.3834 0.92106L17.4076 0.897468C17.7108 0.605841 18.0469 0.384988 18.4167 0.2329C18.7966 0.0772987 19.1907 0 19.6019 0H23.6524C24.0788 0 24.4799 0.0757929 24.8558 0.228383C25.2388 0.383984 25.5814 0.611363 25.8831 0.911523L25.8811 0.914032L25.8831 0.91604C26.1878 1.21871 26.4164 1.55752 26.5703 1.93347C26.7237 2.30742 26.7998 2.70646 26.7998 3.1306V5.49925C26.8624 5.52284 26.926 5.54744 26.9901 5.57203C27.3261 5.70204 27.6631 5.84358 28.0012 5.99718C28.3539 6.1578 28.6838 6.31942 28.9871 6.48255L29.1041 6.5458L30.5477 5.11376C30.8484 4.81159 31.1874 4.58221 31.5623 4.4241C31.9503 4.26097 32.355 4.18066 32.7758 4.18066C33.1951 4.18166 33.5977 4.26197 33.9837 4.4236ZM21.1221 11.9231C21.7447 11.9231 22.3522 11.9823 22.9466 12.1003C23.5278 12.2157 24.106 12.3944 24.6812 12.6358L24.6893 12.6393L24.6908 12.6358C25.2342 12.8687 25.7519 13.1493 26.2433 13.4766C26.7297 13.8003 27.1793 14.1657 27.5915 14.5723L27.5965 14.5773C28.0057 14.9879 28.373 15.4357 28.6985 15.9195C29.0275 16.4084 29.309 16.9234 29.5436 17.4635C29.5577 17.4966 29.5709 17.5302 29.582 17.5639C29.8055 18.1065 29.972 18.6511 30.082 19.1982C30.2005 19.789 30.2601 20.3938 30.2601 21.0132C30.2601 21.6326 30.2005 22.2374 30.082 22.8277C29.9659 23.406 29.7863 23.9812 29.5436 24.5539L29.5401 24.5619L29.5436 24.5629C29.3095 25.103 29.0275 25.618 28.6985 26.1069C28.373 26.5908 28.0057 27.038 27.5965 27.4486L27.5915 27.4536C27.1793 27.8602 26.7297 28.2256 26.2428 28.5498C25.7514 28.8766 25.2342 29.1572 24.6908 29.3906C24.6575 29.4046 24.6242 29.4177 24.5899 29.4282C24.0445 29.6506 23.497 29.8162 22.9466 29.9256C22.3527 30.0436 21.7447 30.1028 21.1221 30.1028C20.4995 30.1028 19.892 30.0441 19.2982 29.9256C18.7169 29.8107 18.1387 29.632 17.5635 29.3906L17.5554 29.3871L17.5539 29.3906C17.011 29.1572 16.4933 28.8771 16.0019 28.5498C15.5155 28.2256 15.066 27.8602 14.6537 27.4536L14.6492 27.4486C14.24 27.0385 13.8727 26.5908 13.5473 26.1069C13.2183 25.618 12.9367 25.1035 12.7026 24.5629C12.688 24.5303 12.6754 24.4962 12.6643 24.463C12.4408 23.9204 12.2743 23.3753 12.1638 22.8277C12.0452 22.2374 11.9857 21.6326 11.9857 21.0132C11.9857 20.3938 12.0452 19.7895 12.1638 19.1982C12.2798 18.62 12.4594 18.0447 12.7021 17.4725L12.7052 17.4645L12.7021 17.4635C12.9362 16.9229 13.2178 16.4084 13.5467 15.9195C13.8727 15.4357 14.2395 14.9884 14.6487 14.5773L14.6532 14.5728C15.0655 14.1662 15.515 13.8008 16.0014 13.4771C16.4933 13.1498 17.0105 12.8692 17.5539 12.6363C17.5877 12.6218 17.6215 12.6092 17.6558 12.5982C18.2007 12.3763 18.7482 12.2102 19.2982 12.1008C19.8915 11.9823 20.4995 11.9231 21.1221 11.9231ZM22.4768 14.4448C22.0399 14.3585 21.5883 14.3148 21.1221 14.3148C20.6559 14.3148 20.2043 14.3585 19.7674 14.4448C19.3471 14.5281 18.9485 14.6461 18.5716 14.7987C18.5489 14.8097 18.5257 14.8208 18.502 14.8308C18.0756 15.014 17.6861 15.2228 17.3344 15.4572C16.9787 15.6942 16.6492 15.9622 16.345 16.2618C16.0448 16.5635 15.7754 16.8918 15.5372 17.2456C15.3021 17.5955 15.0922 17.983 14.908 18.4066L14.9045 18.4051C14.737 18.8017 14.6088 19.2213 14.52 19.6655C14.4327 20.1002 14.3888 20.5494 14.3888 21.0132C14.3888 21.477 14.4322 21.9262 14.52 22.3609C14.6038 22.7785 14.7224 23.1751 14.8752 23.55C14.8868 23.5726 14.8974 23.5957 14.908 23.6198C15.0917 24.0439 15.3016 24.4304 15.5372 24.7808C15.7754 25.1346 16.0448 25.4624 16.346 25.7651C16.6498 26.0642 16.9792 26.3323 17.3349 26.5692C17.6866 26.8036 18.0761 27.0124 18.502 27.1951L18.5005 27.1986C18.8985 27.3648 19.3204 27.4927 19.7669 27.5816C20.2038 27.6679 20.6549 27.7116 21.1216 27.7116C21.5878 27.7116 22.0394 27.6679 22.4763 27.5816C22.8966 27.4983 23.2947 27.3803 23.6716 27.2282C23.6948 27.2167 23.718 27.2056 23.7418 27.1956C24.1681 27.0129 24.5571 26.8041 24.9088 26.5702C25.2645 26.3328 25.5945 26.0647 25.8982 25.7656C26.1989 25.4634 26.4684 25.1351 26.707 24.7808C26.9421 24.4314 27.152 24.0439 27.3357 23.6203L27.3392 23.6213C27.5067 23.2253 27.6349 22.8056 27.7242 22.3614C27.8115 21.9267 27.8554 21.4775 27.8554 21.0137C27.8554 20.5499 27.8115 20.1007 27.7242 19.666C27.6404 19.2479 27.5219 18.8519 27.369 18.4769C27.3574 18.4543 27.3463 18.4312 27.3362 18.4071C27.1525 17.9835 26.9426 17.596 26.707 17.2461C26.4689 16.8918 26.1994 16.564 25.8992 16.2623C25.5955 15.9627 25.2655 15.6947 24.9098 15.4577C24.5576 15.2233 24.1686 15.0145 23.7423 14.8313L23.7438 14.8278C23.3457 14.6612 22.9239 14.5337 22.4768 14.4448Z" fill="#797979"/>
</g>
<defs>
<clipPath id="clip0_5515_45">
<rect width="62" height="48" fill="white"/>
</clipPath>
</defs>
</svg>
