<svg width="120" height="123" viewBox="0 0 120 123" fill="none" xmlns="http://www.w3.org/2000/svg">
<g clip-path="url(#clip0_1169_8)">
<path fill-rule="evenodd" clip-rule="evenodd" d="M2.71 63.08L35.96 37.56V58.93H83.14V37.49L116.68 63.08H2.71ZM75.05 0V54.17H44.05V0H75.05ZM68.66 27.1C68.66 32.14 64.58 36.22 59.54 36.22C54.5 36.22 50.42 32.14 50.42 27.1C50.42 22.06 54.5 17.98 59.54 17.98C64.59 17.97 68.66 22.05 68.66 27.1ZM70.33 9.96V44.15C67.81 44.15 65.75 46.21 65.75 48.73H53.5C53.5 46.21 51.44 44.15 48.92 44.15V9.96C51.44 9.96 53.5 7.9 53.5 5.38H65.75C65.75 7.91 67.81 9.96 70.33 9.96ZM0 116.45H8.8L10.08 112.83H13.81V77.72H6.19V69.31H112.91V77.72H105.29V112.83H109.02L110.3 116.45H119.1V122.88H0V116.45ZM39.62 112.84V77.72H27.85V112.83H31.58H39.62V112.84ZM65.43 112.84V77.72H53.67V112.83C57.59 112.84 61.51 112.84 65.43 112.84ZM91.24 112.84V77.72H79.48V112.83C83.4 112.84 87.32 112.84 91.24 112.84Z" fill="#0073E6"/>
</g>
<defs>
<clipPath id="clip0_1169_8">
<rect width="119.1" height="122.88" fill="white"/>
</clipPath>
</defs>
</svg>
