<svg width="512" height="396" viewBox="0 0 512 396" fill="none" xmlns="http://www.w3.org/2000/svg">
<g clip-path="url(#clip0_246_288)">
<path fill-rule="evenodd" clip-rule="evenodd" d="M30.98 0H472.49C489.52 0 503.42 13.9 503.42 30.93V196.54C496.75 190.03 489.42 184.2 481.53 179.18V152.51H21.94V323.42C21.94 330.58 27.85 336.49 35 336.49H281.34C283.93 344.11 287.21 351.43 291.06 358.38H30.98C13.95 358.38 0 344.49 0 327.45V30.98C0 13.9 13.9 0 30.98 0ZM78.08 290.54C70.96 290.54 65.19 284.76 65.19 277.64C65.19 270.53 70.96 264.75 78.08 264.75H195.36C202.48 264.75 208.25 270.53 208.25 277.64C208.25 284.76 202.48 290.54 195.36 290.54H78.08ZM78.08 228.66C70.96 228.66 65.19 222.89 65.19 215.77C65.19 208.65 70.96 202.88 78.08 202.88H113.16C120.28 202.88 126.06 208.65 126.06 215.77C126.06 222.89 120.28 228.66 113.16 228.66H78.08ZM152.18 228.66C145.06 228.66 139.29 222.89 139.29 215.77C139.29 208.65 145.06 202.88 152.18 202.88H177.73C184.85 202.88 190.62 208.65 190.62 215.77C190.62 222.89 184.85 228.66 177.73 228.66H152.18ZM218.88 228.66C211.76 228.66 205.99 222.89 205.99 215.77C205.99 208.65 211.76 202.88 218.88 202.88H244.3C251.42 202.88 257.19 208.65 257.19 215.77C257.19 222.89 251.42 228.66 244.3 228.66H218.88ZM409.21 190.32C465.97 190.32 512 236.36 512 293.11C512 349.88 465.97 395.92 409.21 395.92C352.44 395.92 306.4 349.88 306.4 293.11C306.4 236.36 352.44 190.32 409.21 190.32V190.32ZM380.42 278.19L396.62 293.4L434.7 254.05C438.22 250.49 440.42 247.63 444.74 252.09L458.78 266.48C463.4 271.03 463.17 273.72 458.81 277.96L404.65 331.87C395.48 340.86 397.07 341.41 387.77 332.2L356.78 301.37C354.84 299.29 355.05 297.17 357.17 295.06L373.47 278.16C375.94 275.56 377.91 275.79 380.42 278.19V278.19ZM21.94 69.15H481.48V35C481.48 27.85 475.57 21.94 468.42 21.94H35C27.85 21.94 21.94 27.85 21.94 35V69.15V69.15Z" fill="#364DCE"/>
</g>
<defs>
<clipPath id="clip0_246_288">
<rect width="512" height="395.92" fill="white"/>
</clipPath>
</defs>
</svg>
