<svg width="515" height="330" viewBox="0 0 515 330" fill="none" xmlns="http://www.w3.org/2000/svg">
<g clip-path="url(#clip0_1167_4)">
<path d="M309.891 302.833C310.46 312.889 313.892 320.029 320.216 324.142C336.038 334.57 351.484 321.999 362.795 311.833L504.224 183.173C516.827 171.639 516.731 155.319 503.994 143.943L364.315 19.839C352.353 9.20888 335.371 -6.39195 318.348 5.10791C312.073 9.32473 308.725 16.5045 308.274 26.5573L308.721 102.896L7.36593 104.66C3.87599 104.681 1.04282 107.558 1.0632 111.037L1.7127 221.966C1.73302 225.436 4.60968 228.279 8.08962 228.258L309.444 226.494L309.891 302.833Z" fill="white"/>
</g>
<defs>
<clipPath id="clip0_1167_4">
<rect width="327" height="512.23" fill="white" transform="translate(512.652) rotate(89.6645)"/>
</clipPath>
</defs>
</svg>
