<svg width="512" height="482" viewBox="0 0 512 482" fill="none" xmlns="http://www.w3.org/2000/svg">
<g clip-path="url(#clip0_1169_6)">
<path fill-rule="evenodd" clip-rule="evenodd" d="M11.18 166.57L246.07 0L482.17 166.57H11.18ZM426.14 323.01L420.75 298.3C443.87 302.61 480.95 349.68 492.94 371.08C499.06 382 504.42 394.04 508.8 407.49C517.55 440.04 509.13 470.49 473.81 477.58C451.68 482.04 410.41 482.35 387.15 481.14C362.12 479.86 323.41 479.89 313.29 454.2C296.98 412.74 326.87 363.35 354.14 333.11C357.74 329.13 361.46 325.43 365.28 322C375.2 313.28 385.9 302.92 398.67 298.62L386.33 321.58L404.25 297.83H413.67L426.14 323.01ZM414.61 342.6V349.55C419.19 350.04 423.13 350.98 426.4 352.38C429.69 353.8 432.54 355.93 434.99 358.81C436.92 361 438.41 363.25 439.46 365.55C440.51 367.88 441.04 369.98 441.04 371.91C441.04 374.06 440.25 375.93 438.69 377.48C437.12 379.04 435.23 379.83 433 379.83C428.79 379.83 426.05 377.55 424.82 373.01C423.39 367.66 419.99 364.09 414.61 362.33V389.05C419.91 390.5 424.16 391.84 427.3 393.04C430.45 394.23 433.28 395.96 435.76 398.24C438.41 400.59 440.47 403.41 441.92 406.68C443.34 409.97 444.06 413.54 444.06 417.44C444.06 422.33 442.93 426.89 440.63 431.14C438.32 435.42 434.95 438.88 430.5 441.6C426.02 444.3 420.74 445.9 414.61 446.4V462.4C414.61 464.92 414.36 466.77 413.86 467.93C413.37 469.09 412.3 469.66 410.61 469.66C409.08 469.66 408.01 469.2 407.37 468.26C406.75 467.31 406.45 465.84 406.45 463.87V446.53C401.45 445.99 397.07 444.8 393.32 443C389.57 441.21 386.43 438.97 383.93 436.29C381.44 433.6 379.57 430.81 378.39 427.94C377.18 425.05 376.59 422.2 376.59 419.41C376.59 417.38 377.38 415.51 379 413.87C380.6 412.23 382.6 411.39 384.99 411.39C386.92 411.39 388.54 411.83 389.87 412.73C391.19 413.63 392.11 414.9 392.64 416.52C393.78 420.03 394.79 422.73 395.64 424.59C396.52 426.45 397.81 428.16 399.54 429.7C401.27 431.23 403.58 432.41 406.45 433.23V403.37C400.7 401.77 395.92 400.02 392.07 398.07C388.21 396.11 385.07 393.35 382.69 389.76C380.3 386.16 379.09 381.54 379.09 375.88C379.09 368.52 381.44 362.47 386.13 357.77C390.82 353.06 397.59 350.32 406.45 349.55V342.74C406.45 339.14 407.81 337.34 410.5 337.34C413.25 337.34 414.61 339.1 414.61 342.6ZM406.45 386.67V362.07C402.85 363.15 400.05 364.55 398.03 366.3C396.01 368.05 395 370.73 395 374.28C395 377.65 395.95 380.22 397.83 381.95C399.72 383.69 402.59 385.26 406.45 386.67ZM414.61 405.74V433.88C418.92 433.03 422.26 431.3 424.62 428.69C426.97 426.06 428.15 423.03 428.15 419.55C428.15 415.82 427.01 412.95 424.71 410.91C422.43 408.87 419.05 407.14 414.61 405.74ZM391.15 262.99C387.07 250.97 383.39 238.79 380.3 226.43C391.85 213.75 436.54 215.44 449.38 226.24L437.49 254.52C443.89 246.12 446.04 242.67 449.86 237.98C451.45 239.03 452.97 240.21 454.39 241.5C457.77 244.57 460.79 247.95 461.41 252.66C461.8 255.72 460.92 258.84 458.21 262.01L430.9 293.8C427.4 293.22 423.96 292.39 420.63 291.2C422.18 287.56 424.05 283.55 425.59 279.91L415.65 290.64C405.31 288.45 396.98 289.75 389.22 293.86L361.54 260.63C359.9 258.66 359.16 256.67 359.16 254.7C359.19 246.66 371.15 239.74 377.43 237.11L391.15 262.99ZM0 409.64H27.32V384.29H41.65V372.19H57.07V227.09H25.55V192.32H392.94C380.44 194.7 369.08 199.44 361.58 206.83C358.106 210.161 355.577 214.354 354.25 218.98C351.11 221.04 347.99 223.44 345.22 226.1L344.22 227.09H328.42V321.4C312.77 339.95 297.12 363.86 288.51 389.38C283.36 404.64 280.69 420.45 281.8 436.19H0V409.64ZM433.74 192.32H466.55V205.39C458.97 199.12 446.85 194.65 433.74 192.32ZM130.53 384.29H148.31V372.19H163.73V227.09H115.11V372.19H130.53V384.29ZM237.18 384.29H255V372.19H270.38V227.09H221.76V372.19H237.18V384.29ZM166.97 124.56L246.43 63.6L326.33 124.56H166.97Z" fill="#7CB50C"/>
</g>
<defs>
<clipPath id="clip0_1169_6">
<rect width="512" height="481.75" fill="white"/>
</clipPath>
</defs>
</svg>
