<svg width="512" height="491" viewBox="0 0 512 491" fill="none" xmlns="http://www.w3.org/2000/svg">
<g clip-path="url(#clip0_1163_7)">
<path d="M294.46 29.9C306.85 33.7 318.66 38.91 329.73 45.34C318.963 49.1988 308.652 54.2255 298.98 60.33C293.063 57.8787 286.985 55.8339 280.79 54.21C276.3 53.04 272.54 49.63 271.15 44.86C269.41 38.84 265.69 34.37 261.08 31.49L260.46 31.13C256.08 28.55 250.83 27.24 245.53 27.24C240.24 27.24 235.03 28.53 230.74 31.08C226.01 33.9 222.18 38.45 220.41 44.66C219.07 49.2 215.43 52.94 210.52 54.12C183.59 60.68 159.55 75.3 140.99 95.06C122.37 114.88 109.28 139.91 104.33 167.23C101 185.69 101.43 208.93 101.8 230.3L102.1 250.1C102.1 281.66 96.5899 308.22 84.3799 331.61C72.6899 354 55.0099 373.03 30.2999 390.32L459.85 390.34C441.3 377.42 426.72 363.46 415.67 347.81C425.22 345.79 434.47 342.91 443.31 339.24C452.52 350.43 464.29 360.7 478.82 370.42C484.45 374.18 487.88 379.42 489.36 384.98C490.61 389.65 490.45 394.62 489.06 399.19C487.67 403.79 485.04 408.02 481.43 411.19L480.28 412.1C476.08 415.39 470.72 417.44 464.55 417.47L328.24 417.5L328.14 417.86C311.62 514.42 178.04 514.16 161.96 417.53L25.7099 417.56C18.5799 417.56 12.5999 414.85 8.13989 410.65C4.63989 407.37 2.18989 403.15 0.94989 398.67C-0.28011 394.22 -0.34011 389.39 0.90989 384.81C2.53989 378.89 6.27989 373.43 12.3799 369.75C34.6899 354.54 50.3699 338.12 60.3199 319.05C70.3399 299.86 74.8699 277.36 74.8699 250.1L74.6699 230.72C74.2799 208.08 73.8199 183.47 77.6199 162.43C83.5199 129.81 99.0799 100.01 121.21 76.45C141.63 54.71 167.72 38.2 197.04 29.65C201.46 20.04 208.47 12.75 216.8 7.78C225.49 2.59 235.59 0 245.53 0C255.5 0 265.59 2.59 274.3 7.73L275.1 8.24C283.24 13.24 290.09 20.46 294.46 29.9ZM439.43 184.52V202.88C439.43 207.18 435.81 210.79 431.5 210.79H400V242.32C400 246.62 396.39 250.23 392.08 250.23H373.72C369.42 250.23 365.81 246.67 365.81 242.32V210.79H334.27C329.97 210.79 326.36 207.24 326.36 202.88V184.52C326.36 180.17 329.92 176.61 334.27 176.61H365.81V145.09C365.81 140.73 369.36 137.18 373.72 137.18H392.08C396.44 137.18 400 140.79 400 145.09V176.61H431.5C435.85 176.61 439.43 180.26 439.43 184.52ZM382.89 64.59C418.52 64.59 450.83 79.05 474.18 102.41C497.53 125.76 512 158.04 512 193.7C512 229.33 497.53 261.63 474.18 284.99C450.83 308.34 418.52 322.8 382.89 322.8C347.26 322.8 314.96 308.34 291.6 284.99L291.02 284.36C268.01 261.03 253.78 229.01 253.78 193.7C253.78 158.07 268.25 125.76 291.6 102.41C314.96 79.05 347.26 64.59 382.89 64.59ZM458.54 118.05C439.2 98.71 412.44 86.72 382.89 86.72C353.35 86.72 326.58 98.71 307.24 118.05C287.9 137.38 275.91 164.15 275.91 193.7C275.91 222.99 287.68 249.54 306.73 268.87L307.24 269.35C326.58 288.69 353.35 300.68 382.89 300.68C412.44 300.68 439.2 288.69 458.54 269.35C477.88 250.01 489.87 223.24 489.87 193.7C489.87 164.15 477.88 137.38 458.54 118.05Z" fill="white"/>
</g>
<defs>
<clipPath id="clip0_1163_7">
<rect width="512" height="490.14" fill="white"/>
</clipPath>
</defs>
</svg>
