<svg width="121" height="123" viewBox="0 0 121 123" fill="none" xmlns="http://www.w3.org/2000/svg">
<g clip-path="url(#clip0_212_7)">
<path d="M66.6009 108.91C68.1509 110.54 68.9109 112.65 68.8809 114.76C68.8509 116.87 68.0409 118.96 66.4409 120.55L66.3209 120.67C64.7409 122.17 62.7209 122.9 60.7109 122.87C58.7009 122.84 56.6909 122.05 55.1609 120.5C37.5009 102.85 20.0309 84.9 2.48085 67.11C2.41085 67.06 2.35085 67.01 2.29085 66.95C0.730854 65.32 -0.0291456 63.19 0.000854362 61.08C0.0308544 58.97 0.850854 56.87 2.45085 55.28L2.72085 55.02C20.2109 37.47 37.6509 19.87 55.1709 2.36003C56.7109 0.820034 58.7009 0.0300335 60.7109 3.35119e-05C62.7209 -0.0299665 64.7409 0.700034 66.3209 2.21003L66.4709 2.36003C68.0409 3.94003 68.8509 6.02003 68.8809 8.12003C68.9109 10.22 68.1509 12.34 66.6009 13.97L19.3809 61.23L66.6009 108.91ZM118.371 106.91C119.911 108.53 120.661 110.64 120.631 112.74C120.601 114.85 119.791 116.94 118.191 118.53L118.071 118.65C116.501 120.15 114.471 120.88 112.461 120.86C110.451 120.83 108.441 120.04 106.911 118.49C89.6309 101.2 71.7609 84.2 54.2409 67.12C54.1709 67.07 54.1009 67.01 54.0309 66.95C52.4809 65.32 51.7209 63.19 51.7509 61.08C51.7809 58.97 52.6009 56.87 54.2009 55.28C71.7009 38.33 89.2709 21.44 106.801 4.51003L106.921 4.38003C108.451 2.84003 110.451 2.06003 112.461 2.03003C114.471 2.00003 116.491 2.73003 118.071 4.24003L118.221 4.39003C119.791 5.97003 120.601 8.05003 120.631 10.15C120.661 12.25 119.901 14.37 118.351 16L71.1709 61.23L118.371 106.91Z" fill="white"/>
</g>
<defs>
<clipPath id="clip0_212_7">
<rect width="120.64" height="122.88" fill="white"/>
</clipPath>
</defs>
</svg>
