<svg width="123" height="102" viewBox="0 0 123 102" fill="none" xmlns="http://www.w3.org/2000/svg">
<g clip-path="url(#clip0_246_285)">
<path fill-rule="evenodd" clip-rule="evenodd" d="M26.048 88.286V49.861H43.335C50.661 51.172 57.988 55.149 65.314 59.759H78.74C84.818 60.122 88.002 66.285 82.092 70.332C77.387 73.788 71.174 73.59 64.805 73.018C60.413 72.799 60.226 78.701 64.805 78.721C66.399 78.846 68.125 78.472 69.633 78.472C77.574 78.46 84.121 76.942 88.127 70.665L90.137 65.972L110.108 56.075C120.1 52.786 127.208 63.235 119.84 70.51C105.373 81.032 90.541 89.691 75.369 96.685C64.348 103.388 53.325 103.158 42.314 96.685L26.048 88.286ZM92.367 27.683C94.426 27.683 96.074 28.273 97.33 29.442C98.58 30.617 99.211 32.176 99.211 34.125C99.211 36.067 98.58 37.632 97.33 38.802C96.074 39.976 94.426 40.561 92.367 40.561C90.308 40.561 88.652 39.976 87.398 38.802C86.148 37.626 85.523 36.067 85.523 34.125C85.523 32.176 86.148 30.617 87.398 29.442C88.652 28.273 90.309 27.683 92.367 27.683ZM82.797 0C98.555 0 111.33 12.774 111.33 28.533C111.33 44.291 98.555 57.066 82.797 57.066C67.039 57.066 54.264 44.292 54.264 28.533C54.264 12.774 67.039 0 82.797 0ZM82.797 5.378C95.584 5.378 105.951 15.745 105.951 28.533C105.951 41.321 95.584 51.688 82.797 51.688C70.008 51.688 59.642 41.322 59.642 28.534C59.642 15.746 70.008 5.378 82.797 5.378ZM88.166 17.44H93.736L77.424 39.626H71.854L88.166 17.44ZM92.367 32.139C91.765 32.139 91.303 32.317 90.984 32.656C90.668 33.011 90.505 33.49 90.505 34.132C90.505 34.765 90.667 35.251 90.984 35.599C91.302 35.947 91.765 36.117 92.367 36.117C92.963 36.117 93.426 35.94 93.744 35.599C94.06 35.251 94.223 34.765 94.223 34.132C94.223 33.49 94.059 33.004 93.744 32.656C93.434 32.309 92.971 32.139 92.367 32.139ZM73.15 20.979C72.546 20.979 72.089 21.156 71.773 21.497C71.457 21.844 71.294 22.331 71.294 22.964C71.294 23.598 71.456 24.092 71.773 24.439C72.089 24.779 72.546 24.957 73.15 24.957C73.752 24.957 74.214 24.779 74.531 24.439C74.847 24.084 75.002 23.598 75.002 22.964C75.002 22.331 74.848 21.844 74.531 21.497C74.223 21.156 73.76 20.979 73.15 20.979ZM73.148 16.522C75.207 16.522 76.863 17.106 78.119 18.282C79.367 19.457 79.992 21.016 79.992 22.959C79.992 24.908 79.367 26.467 78.119 27.642C76.863 28.817 75.207 29.401 73.148 29.401C71.091 29.401 69.441 28.811 68.185 27.642C66.935 26.467 66.304 24.908 66.304 22.959C66.304 21.017 66.935 19.452 68.185 18.282C69.441 17.107 71.092 16.522 73.148 16.522ZM0 46.167H20.844V92.147H0V46.167Z" fill="#364DCE"/>
</g>
<defs>
<clipPath id="clip0_246_285">
<rect width="122.88" height="101.625" fill="white"/>
</clipPath>
</defs>
</svg>
