<svg width="123" height="122" viewBox="0 0 123 122" fill="none" xmlns="http://www.w3.org/2000/svg">
<g clip-path="url(#clip0_1148_2)">
<path d="M6.60004 121.921H47.51C48.4893 121.921 49.4563 121.703 50.34 121.281C51.2183 120.857 51.9931 120.246 52.61 119.491C53.5735 118.314 54.1031 116.842 54.11 115.321V74.5808C54.1096 73.6938 53.9293 72.8161 53.58 72.0008C52.8973 70.3991 51.6111 69.1309 50 68.4708C49.2085 68.1538 48.3627 67.9941 47.51 68.0008H6.60004C5.76676 68.0035 4.94179 68.1665 4.17004 68.4808C3.38595 68.7854 2.66911 69.2406 2.06004 69.8208C1.4144 70.4378 0.900701 71.1794 0.550043 72.0008C0.186695 72.8123 -0.000747265 73.6916 4.32992e-05 74.5808V115.321C0.00153521 116.114 0.147239 116.9 0.430043 117.641C0.710408 118.372 1.11652 119.049 1.63004 119.641L1.89004 119.911C2.46874 120.489 3.14602 120.96 3.89004 121.301C4.74784 121.69 5.67801 121.895 6.62004 121.901L6.60004 121.921ZM59.3 28.4408L86 1.77079C86.6286 1.13999 87.3858 0.652224 88.22 0.340789C89.0685 0.0374625 89.9725 -0.0785291 90.87 0.000788759C92.2655 0.131982 93.571 0.74759 94.56 1.74079L121.11 28.2908C121.684 28.861 122.136 29.5413 122.44 30.2908C122.882 31.3981 122.992 32.6103 122.756 33.779C122.52 34.9477 121.948 36.0222 121.11 36.8708L94.45 63.5808C93.9039 64.1219 93.2589 64.5531 92.55 64.8508C91.8431 65.162 91.0822 65.3318 90.31 65.3508C89.4859 65.3715 88.6661 65.2252 87.9 64.9208C87.1283 64.6268 86.429 64.1697 85.85 63.5808L59.3 37.0008C58.2654 35.9615 57.6404 34.5838 57.54 33.1208V32.8008C57.5339 31.9934 57.6871 31.1927 57.9908 30.4445C58.2945 29.6963 58.7428 29.0155 59.31 28.4408H59.3ZM6.60004 59.6408H47.51C48.4875 59.6413 49.4526 59.4233 50.335 59.0029C51.2174 58.5825 51.9947 57.9702 52.61 57.2108C53.0961 56.6155 53.472 55.9382 53.72 55.2108C53.9754 54.5018 54.1074 53.7543 54.11 53.0008V12.3108C54.1082 11.4239 53.928 10.5465 53.58 9.73079C52.8995 8.12535 51.613 6.85325 50 6.19079C49.2216 5.87543 48.3899 5.71248 47.55 5.71079H6.60004C5.76676 5.71355 4.94179 5.87651 4.17004 6.19079C3.38595 6.49537 2.66911 6.95061 2.06004 7.53079C1.4144 8.14781 0.900701 8.88944 0.550043 9.71079C0.184216 10.5286 -0.0032754 11.4149 4.32992e-05 12.3108V53.0508C0.00140959 53.8406 0.147138 54.6234 0.430043 55.3608C0.70814 56.0934 1.11448 56.7706 1.63004 57.3608L1.89004 57.6308C2.46874 58.2094 3.14602 58.6801 3.89004 59.0208C4.74784 59.4102 5.67801 59.6146 6.62004 59.6208L6.60004 59.6408ZM47.52 53.0708H6.60004V12.2808C10.11 12.2808 47.53 12.2808 47.6 12.2808C47.6 15.7208 47.6 53.0308 47.6 53.0508L47.52 53.0708ZM69.75 121.921H110.66C111.639 121.921 112.606 121.703 113.49 121.281C114.368 120.857 115.143 120.246 115.76 119.491C116.724 118.314 117.253 116.842 117.26 115.321V74.5808C117.258 73.6972 117.078 72.823 116.73 72.0108C116.04 70.3977 114.738 69.1245 113.11 68.4708C112.332 68.1554 111.5 67.9925 110.66 67.9908H69.75C68.0624 68.0085 66.4426 68.6579 65.21 69.8108C64.5633 70.4307 64.0495 71.1759 63.7 72.0008C63.3353 72.8154 63.1478 73.6982 63.15 74.5908V115.331C63.1515 116.124 63.2972 116.91 63.58 117.651C63.8604 118.382 64.2665 119.059 64.78 119.651L65.04 119.921C65.6187 120.499 66.296 120.97 67.04 121.311C67.8978 121.7 68.828 121.905 69.77 121.911L69.75 121.921ZM110.67 115.351H69.75V74.5808C73.26 74.5808 110.68 74.5808 110.75 74.5808C110.75 78.0208 110.75 115.331 110.75 115.351H110.67ZM47.52 115.351H6.60004V74.5608C10.11 74.5608 47.53 74.5608 47.6 74.5608C47.6 78.0008 47.6 115.311 47.6 115.331L47.52 115.351Z" fill="white"/>
</g>
<defs>
<clipPath id="clip0_1148_2">
<rect width="122.88" height="121.92" fill="white"/>
</clipPath>
</defs>
</svg>
