<svg width="117" height="123" viewBox="0 0 117 123" fill="none" xmlns="http://www.w3.org/2000/svg">
<g clip-path="url(#clip0_3269_7)">
<path fill-rule="evenodd" clip-rule="evenodd" d="M72.25 66C73.7467 63.977 75.572 62.2193 77.65 60.8C81.35 58.26 85.79 56.8 91.05 55.87C91.457 55.8003 91.8751 55.8949 92.2125 56.133C92.5499 56.371 92.7792 56.7332 92.85 57.14C92.8859 57.3404 92.8817 57.5459 92.8376 57.7446C92.7936 57.9433 92.7106 58.1314 92.5934 58.2978C92.4762 58.4643 92.3272 58.6059 92.155 58.7144C91.9828 58.8229 91.7907 58.8962 91.59 58.93C86.74 59.79 82.69 61.1 79.39 63.36C76.5791 65.3213 74.295 67.9454 72.74 71C85.36 72.26 92.83 71 98.26 67.08C103.69 63.16 107.26 56.39 112.02 46.65C110.63 46.74 109.18 46.81 107.7 46.87C98.13 47.32 87.7 47.8 81.11 53.56C79.3065 55.1651 77.6653 56.9436 76.21 58.87C74.7571 60.7564 73.4213 62.7301 72.21 64.78V66H72.25ZM67.78 34C67.22 34 66.66 33.9 66.11 33.83C65.56 33.76 64.88 33.65 64.31 33.55C63.7508 33.4548 63.1967 33.3313 62.65 33.18V28.38C63.35 28.44 64.1 28.49 64.91 28.53C65.72 28.57 66.54 28.6 67.37 28.62H69.69C70.2571 28.63 70.8236 28.5797 71.38 28.47C71.753 28.4046 72.0998 28.2347 72.38 27.98C72.5049 27.8412 72.6009 27.6787 72.6621 27.5023C72.7233 27.3259 72.7486 27.1389 72.7365 26.9526C72.7244 26.7662 72.6751 26.5841 72.5915 26.4171C72.508 26.2501 72.3919 26.1014 72.25 25.98C71.9193 25.7489 71.5233 25.6298 71.12 25.64H69.5C67.5673 25.7772 65.649 25.2205 64.09 24.07C61.43 21.81 61.62 15.24 64.28 13.07C65.2952 12.274 66.5025 11.76 67.78 11.58V9.09998H72.15V11.48L72.84 11.54C73.69 11.63 74.49 11.75 75.24 11.88C75.99 12.01 76.66 12.15 77.24 12.29V17C76.3 16.92 75.24 16.85 74.06 16.8C72.88 16.75 71.81 16.72 70.85 16.72C70.3341 16.715 69.8188 16.7551 69.31 16.84C68.9344 16.9038 68.5864 17.0778 68.31 17.34C68.0417 17.6587 67.9048 18.0677 67.9271 18.4837C67.9494 18.8997 68.1292 19.2917 68.43 19.58C68.8699 19.8801 69.3991 20.0212 69.93 19.98H71.93C73.1743 19.9374 74.4083 20.22 75.51 20.8C76.4328 21.3021 77.1849 22.0681 77.67 23C78.78 25.15 78.67 29.4 77.37 31.35C76.6945 32.3745 75.6659 33.1148 74.48 33.43C73.7171 33.6397 72.9375 33.7836 72.15 33.86V36.55H67.78V33.93V34ZM2.77 77.8H18.24C18.9738 77.8053 19.6758 78.1005 20.1928 78.6213C20.7099 79.142 21 79.8461 21 80.58V112.41C20.9974 113.144 20.7047 113.847 20.1858 114.366C19.6669 114.885 18.9638 115.177 18.23 115.18H2.77C2.03616 115.177 1.33313 114.885 0.814225 114.366C0.29532 113.847 0.00263499 113.144 0 112.41L0 80.58C-4.75885e-06 79.8444 0.291514 79.1388 0.810704 78.6177C1.32989 78.0967 2.03443 77.8026 2.77 77.8ZM25.24 112V80.8H39.29C45.29 81.87 51.2 85.1 57.16 88.8H68.07C73.01 89.1 75.59 94.11 70.8 97.4C66.97 100.2 61.92 100.04 56.8 99.58C53.23 99.4 53.07 104.2 56.8 104.22C58.09 104.32 59.49 104.01 60.72 104.01C67.18 104.01 72.5 102.77 75.72 97.67L77.35 93.85L93.59 85.8C101.71 83.13 107.48 91.62 101.5 97.53C90.1827 105.8 78.0735 112.928 65.35 118.81C56.35 124.26 47.44 124.08 38.48 118.81L25.24 112ZM70.32 -2.46163e-05C76.3986 -0.0318378 82.2525 2.29599 86.6493 6.49343C91.0461 10.6909 93.6429 16.4305 93.893 22.504C94.1431 28.5776 92.027 34.5113 87.9901 39.056C83.9533 43.6007 78.3106 46.4019 72.25 46.87V59C72.75 58.29 73.25 57.61 73.75 57C75.3297 54.916 77.1044 52.9873 79.05 51.24C86.41 44.77 97.47 44.24 107.56 43.79C109.89 43.68 112.17 43.57 114.46 43.38C114.735 43.3615 115.01 43.4131 115.26 43.53C115.63 43.7091 115.914 44.0277 116.049 44.4159C116.184 44.8041 116.159 45.23 115.98 45.6C110.43 57.06 106.51 64.91 100.08 69.6C94 74 85.82 75.44 72.25 74.07V76.43C80.1 77.2 87.37 78.18 91.42 81.43L76.84 88.7C76.2968 87.8458 75.6218 87.083 74.84 86.44C73.1237 85.0555 71.036 84.21 68.84 84.01C68.5979 83.9781 68.3541 83.9614 68.11 83.96H58.53C55.2098 81.8505 51.7291 80.0048 48.12 78.44C53.2 76.69 59.94 76.24 66.72 76.18V69.8C62.8828 70.214 59.0025 69.9431 55.26 69C52.9964 68.3699 50.8873 67.279 49.065 65.7957C47.2427 64.3124 45.7464 62.4686 44.67 60.38C44.6572 60.348 44.6404 60.3178 44.62 60.29L40.25 51.29C40.1411 51.0662 40.0775 50.8231 40.0628 50.5746C40.0481 50.3262 40.0826 50.0772 40.1644 49.8422C40.2462 49.6071 40.3736 49.3905 40.5393 49.2048C40.705 49.019 40.9057 48.8679 41.13 48.76C41.4209 48.6142 41.7453 48.5486 42.07 48.57L56.71 49.47H56.95C59.68 49.81 62.68 50.19 65.39 52.58C65.8387 52.977 66.2659 53.3976 66.67 53.84C66.67 51.02 66.85 49.13 66.88 46.73C60.9807 45.8992 55.6178 42.857 51.8777 38.2198C48.1377 33.5826 46.3002 27.697 46.7376 21.7556C47.175 15.8142 49.8545 10.2611 54.2333 6.22156C58.612 2.18198 64.3626 -0.0420806 70.32 -2.46163e-05ZM70.32 3.77998C74.8781 3.77766 79.296 5.35603 82.8208 8.24611C86.3456 11.1362 88.7591 15.1591 89.65 19.6293C90.541 24.0995 89.8542 28.7404 87.7068 32.761C85.5594 36.7816 82.0842 39.9331 77.8735 41.6785C73.6628 43.4239 68.9771 43.6551 64.615 42.3328C60.2529 41.0105 56.4843 38.2164 53.9515 34.4268C51.4186 30.6372 50.2783 26.0865 50.7247 21.5503C51.1712 17.0141 53.1769 12.7731 56.4 9.54998C58.2262 7.7192 60.3959 6.26705 62.7846 5.27689C65.1734 4.28672 67.7342 3.77802 70.32 3.77998ZM66.72 66V65.7C66.2702 65.1398 65.7413 64.648 65.15 64.24C63.6986 63.3219 62.0815 62.6968 60.39 62.4C60.1695 62.382 59.9555 62.317 59.7622 62.2094C59.569 62.1019 59.401 61.9542 59.2695 61.7763C59.1381 61.5984 59.0462 61.3945 59.0001 61.1781C58.954 60.9618 58.9547 60.7381 59.0023 60.5221C59.0498 60.3061 59.143 60.1027 59.2756 59.9257C59.4083 59.7487 59.5772 59.6021 59.7712 59.4958C59.9652 59.3895 60.1797 59.326 60.4002 59.3094C60.6208 59.2929 60.8423 59.3238 61.05 59.4C63.0598 59.7654 64.9831 60.5049 66.72 61.58V61.18C66.65 60.98 66.57 60.77 66.49 60.58C65.7196 58.6129 64.5006 56.8528 62.93 55.44C61.08 53.81 58.7 53.51 56.52 53.24H56.47L45.07 52.54L48.07 58.63C48.9146 60.2638 50.0865 61.7062 51.5127 62.8675C52.9389 64.0288 54.5889 64.884 56.36 65.38C59.7492 66.1998 63.2572 66.4097 66.72 66Z" fill="white"/>
</g>
<defs>
<clipPath id="clip0_3269_7">
<rect width="116.14" height="122.88" fill="white"/>
</clipPath>
</defs>
</svg>
