<svg width="123" height="107" viewBox="0 0 123 107" fill="none" xmlns="http://www.w3.org/2000/svg">
<g clip-path="url(#clip0_1152_22)">
<path fill-rule="evenodd" clip-rule="evenodd" d="M19.39 64.84V104.68C19.3848 105.163 19.19 105.624 18.8476 105.965C18.5053 106.305 18.0428 106.497 17.56 106.5H1.83C1.34638 106.5 0.882423 106.309 0.539517 105.968C0.196612 105.627 0.00264272 105.164 0 104.68L0 64.84H19.39ZM0 51.83L41.59 15.44C50.8 24.44 59.73 35.37 68.84 44.37L102.07 11L91.37 0.28L122.88 0V31.78L112.61 21.51C105.24 28.98 87.81 45.43 80.44 52.81C71.11 62.13 66.66 62.3 57.34 52.98L41.59 35.46L23.13 51.83H0ZM114.37 38.69V104.69C114.365 105.171 114.171 105.631 113.831 105.971C113.491 106.311 113.031 106.505 112.55 106.51H96.81C96.3289 106.502 95.8701 106.306 95.5318 105.964C95.1934 105.622 95.0026 105.161 95 104.68V57.29C98 54.38 101.5 51 105.07 47.56L112.52 40.39C113.113 39.7911 113.737 39.2237 114.39 38.69H114.37ZM82.71 68.34V104.68C82.7048 105.163 82.51 105.624 82.1676 105.965C81.8253 106.305 81.3628 106.497 80.88 106.5H65.15C64.6672 106.497 64.2047 106.305 63.8624 105.965C63.52 105.624 63.3252 105.163 63.32 104.68V72.22C65.195 72.675 67.1209 72.8868 69.05 72.85C73.9574 72.7787 78.7249 71.2047 82.71 68.34ZM51.05 65.34V104.63C51.0448 105.113 50.85 105.574 50.5076 105.915C50.1653 106.255 49.7028 106.447 49.22 106.45H33.48C32.9981 106.447 32.5367 106.255 32.196 105.914C31.8552 105.573 31.6626 105.112 31.66 104.63V62C31.98 61.76 32.29 61.51 32.59 61.25L40.45 54.25L46.79 61.25L47.28 61.76C48.56 63.0467 49.8167 64.22 51.05 65.28V65.34Z" fill="white"/>
</g>
<defs>
<clipPath id="clip0_1152_22">
<rect width="122.88" height="106.5" fill="white"/>
</clipPath>
</defs>
</svg>
