<svg width="394" height="512" viewBox="0 0 394 512" fill="none" xmlns="http://www.w3.org/2000/svg">
<g clip-path="url(#clip0_1171_79)">
<path fill-rule="evenodd" clip-rule="evenodd" d="M158.912 88.1129C151.617 66.5959 144.995 44.8529 139.295 22.8049L139.027 21.7609L137.887 17.2739C143.875 10.7229 153.361 7.00688 161.763 4.67688C196.588 -4.89312 252.529 0.735882 271.747 16.8899L248.698 71.6939C261.093 55.4089 265.258 48.7229 272.654 39.6509C275.756 41.6911 278.695 43.9696 281.443 46.4659C287.999 52.4009 293.853 58.9599 295.039 68.1019C295.807 74.0319 294.111 80.0549 288.836 86.2149L235.951 147.81C229.144 146.693 222.491 145.06 216.038 142.765C219.112 135.445 222.514 128.239 225.653 120.883L206.398 141.678C186.341 137.447 170.213 139.972 155.181 147.921L101.548 83.5529C98.363 79.7139 96.912 75.8769 96.925 72.0369C97.2 61.6089 106.403 53.4669 114.325 47.8789L114.388 47.8359C120.662 43.4509 127.39 40.0179 132.321 37.9679L158.912 88.1129ZM212.957 317.552C212.644 314.008 211.221 311.276 208.69 309.289C206.939 307.916 204.657 307.017 201.853 306.602V327.161L206.954 328.319C211.807 329.378 216.117 330.778 219.865 332.54C223.591 334.299 226.725 336.422 229.278 338.857C231.783 341.215 233.761 344.078 235.079 347.256C236.385 350.438 237.063 354.005 237.108 357.93C237.063 364.161 235.486 369.486 232.392 373.958C229.278 378.404 224.809 381.833 218.985 384.205C214.125 386.191 208.41 387.339 201.853 387.657V398.806H193.952V387.649C187.368 387.311 181.522 386.12 176.416 384.045C170.276 381.586 165.514 377.84 162.127 372.807C158.72 367.773 156.981 361.408 156.89 353.711H179.689C179.868 356.871 180.728 359.535 182.214 361.633C183.728 363.756 185.805 365.356 188.445 366.443C190.123 367.138 191.958 367.608 193.952 367.864V346.167L186.887 344.524C178.357 342.562 171.654 339.4 166.732 335.022C161.834 330.645 159.397 324.727 159.42 317.258C159.397 311.164 161.045 305.816 164.341 301.233C167.635 296.651 172.194 293.084 178.041 290.511C182.81 288.428 188.106 287.19 193.952 286.803V275.704H201.853V286.785C207.879 287.154 213.228 288.406 217.878 290.534C223.523 293.13 227.878 296.742 230.994 301.39C234.108 306.041 235.685 311.412 235.756 317.552H212.957ZM193.952 306.602C192.575 306.799 191.338 307.11 190.252 307.529C188.197 308.341 186.663 309.448 185.646 310.825C184.61 312.223 184.089 313.828 184.044 315.61C183.999 317.101 184.291 318.388 184.949 319.515C185.601 320.645 186.572 321.613 187.835 322.47C189.101 323.33 190.636 324.075 192.418 324.707C192.913 324.881 193.426 325.048 193.952 325.213V306.602ZM201.853 367.803C203.322 367.588 204.659 367.247 205.87 366.779C208.127 365.922 209.866 364.727 211.084 363.19C212.305 361.633 212.934 359.874 212.957 357.887C212.934 356.034 212.348 354.434 211.221 353.1C210.091 351.77 208.374 350.618 206.052 349.647C204.68 349.074 203.279 348.575 201.853 348.153V367.803ZM107.682 292.634C133.163 244.769 192.615 226.621 240.48 252.102C288.348 277.58 306.496 337.032 281.015 384.9C255.537 432.767 196.085 450.913 148.218 425.435C100.35 399.954 82.204 340.502 107.682 292.634ZM227.64 204.406L217.173 156.536C262.005 164.874 333.863 256.07 357.084 297.535C368.935 318.699 379.314 342.014 387.814 368.078C404.744 431.16 388.436 490.172 320.006 503.917C277.131 512.531 197.17 513.14 152.077 510.807C103.6 508.3 28.584 508.376 8.98702 458.605C-22.641 378.267 35.307 282.559 88.141 223.982C95.095 216.273 102.284 209.09 109.722 202.459C124.074 189.834 138.042 176.693 154.408 166.641L154.428 166.631C160.436 162.978 166.684 159.854 173.203 157.554L173.246 157.539L174.404 157.14L150.507 201.635L177.917 165.298L185.214 155.625H203.501L214.228 177.302L227.64 204.406Z" fill="white"/>
</g>
<defs>
<clipPath id="clip0_1171_79">
<rect width="394" height="511.978" fill="white"/>
</clipPath>
</defs>
</svg>
