<svg width="504" height="513" viewBox="0 0 504 513" fill="none" xmlns="http://www.w3.org/2000/svg">
<g clip-path="url(#clip0_272_15)">
<path d="M13.49 173.45L36.87 177.14C49.37 129.42 76.39 87.3701 113.07 56.2501C152.09 23.1501 202.1 2.35011 257.25 0.190107C322.72 -2.38989 383.08 21.8601 427.72 63.1201C472.34 104.38 501.24 162.65 503.81 228.11C504.77 252.7 502 276.49 496.01 298.89C491.526 315.636 485.204 331.834 477.16 347.19L476.58 346.25C470.785 337.073 462.626 329.626 452.96 324.69C448.608 322.469 444.01 320.767 439.26 319.62C444.21 309.21 448.26 298.29 451.29 286.94C456.262 268.361 458.406 249.138 457.65 229.92C455.58 177.13 432.32 130.18 396.4 96.9701C360.48 63.7701 311.86 44.2701 259.06 46.3501C214.68 48.0901 174.4 64.8601 142.94 91.5501C114.52 115.66 93.31 147.86 82.77 184.39L101.55 187.35C107.93 188.34 112.31 194.32 111.32 200.7C110.89 203.49 109.5 205.91 107.54 207.65L55.06 254.38C50.23 258.68 42.81 258.25 38.5 253.41C37.77 252.6 37.18 251.7 36.72 250.77L1.61 190.93C-1.66 185.36 0.210002 178.19 5.78 174.92C8.2 173.5 10.92 173.06 13.49 173.45V173.45ZM247.19 304.45C244.63 304.26 243.05 304 241.16 303.7L230.58 302.18L224.05 301.08C221.93 300.71 219.82 300.28 217.73 299.82C215.51 299.33 213.46 298.82 211.62 298.33L209.14 297.67V256.79L220.7 257.74L229.18 258.24L238.09 258.63L247.1 258.92L255.87 259.08L264.01 259.12C266.49 259.12 268.66 259.04 270.52 258.87C272.43 258.7 274.14 258.44 275.66 258.09C277.04 257.79 278.25 257.37 279.27 256.88C280.15 256.46 280.88 255.95 281.45 255.38C281.93 254.9 282.3 254.33 282.54 253.68C282.8 252.93 282.94 252.03 282.94 251V248.3C282.94 246.14 282.25 244.57 280.87 243.59C280.02 242.99 279.07 242.52 278.06 242.22C277.03 241.9 275.87 241.75 274.59 241.75H262.67C253.68 241.75 245.72 240.74 238.78 238.73C231.72 236.68 225.76 233.59 220.9 229.47C215.94 225.24 212.23 219.63 209.79 212.66C207.4 205.87 206.21 197.8 206.21 188.44V181.02C206.21 172.35 207.54 164.72 210.18 158.14C212.86 151.45 216.9 145.87 222.28 141.43C226.18 138.21 229.87 135.58 234.24 133.53C237.94 131.79 242.08 130.49 247.19 129.64V111.51H284.88V128.91C291.12 129.4 295.95 130.27 302.05 131.38L305.22 131.93C307.86 132.4 310.5 132.91 313.11 133.45C315.56 133.95 317.92 134.48 320.16 135.02L322.72 135.64V176.57L319.09 176.24C315.49 175.94 311.84 175.66 308.18 175.43C304.2 175.19 300.11 174.96 295.94 174.79C291.58 174.6 287.48 174.45 283.69 174.36C280.19 174.28 276.48 174.24 272.57 174.24C268.06 174.24 259.44 174.35 256.03 177.76C253.9 179.89 253.82 186.54 254.94 189.17C256.62 193.15 261.84 193.64 265.59 193.64H280.44C285.9 193.64 290.96 194.17 295.6 195.23C300.3 196.29 304.54 197.91 308.31 200.05C315.86 204.36 321.56 210.22 325.38 217.63C327.26 221.27 328.69 225.19 329.63 229.37C330.57 233.52 331.05 237.89 331.05 242.44V249.87C331.05 257.2 330.39 263.73 329.1 269.45C327.77 275.27 325.75 280.24 323.05 284.33C320.35 288.43 317.07 291.87 313.21 294.63C309.37 297.4 304.96 299.5 300.03 300.9L298.77 301.26C293.97 302.64 290.48 303.65 284.88 304.26V323.88H247.19V304.45V304.45ZM110.59 464.47V327.33C178.24 327.33 189.74 324.28 250.72 362.66H298.64C320.33 363.95 331.69 385.95 310.6 400.39C293.81 412.72 271.64 412.02 248.91 409.98C233.23 409.2 232.56 430.26 248.91 430.33C254.59 430.78 260.75 429.44 266.13 429.44C294.48 429.4 317.84 423.98 332.14 401.58L339.31 384.83L410.59 349.51C446.25 337.77 471.62 375.07 445.32 401.03C393.69 438.58 340.76 469.48 286.61 494.44C247.27 518.37 207.94 517.54 168.64 494.44L110.59 464.47V464.47ZM4.95 314.15H92.01V478.25H4.95V314.15Z" fill="#999999"/>
</g>
<defs>
<clipPath id="clip0_272_15">
<rect width="504" height="512.08" fill="white"/>
</clipPath>
</defs>
</svg>
