<svg width="121" height="123" viewBox="0 0 121 123" fill="none" xmlns="http://www.w3.org/2000/svg">
<g clip-path="url(#clip0_1179_2)">
<path d="M110.82 30.0005C110.147 29.0384 109.128 28.3743 107.976 28.1475C106.824 27.9207 105.629 28.1489 104.642 28.7842C103.655 29.4194 102.952 30.4124 102.681 31.5546C102.411 32.6969 102.593 33.8996 103.19 34.9105C104.697 37.2444 106.008 39.6995 107.11 42.2505C107.588 43.3538 108.486 44.2217 109.604 44.6634C110.723 45.105 111.971 45.0842 113.075 44.6055C114.178 44.1267 115.046 43.2294 115.488 42.1107C115.929 40.992 115.908 39.7438 115.43 38.6405C114.134 35.638 112.592 32.7481 110.82 30.0005ZM31.0696 81.6505V73.8205L42.7996 61.8205C43.4722 61.17 44.1003 60.4751 44.6796 59.7405C45.1499 59.1615 45.5525 58.5308 45.8796 57.8605C46.1602 57.2804 46.3071 56.6448 46.3096 56.0005C46.3319 55.391 46.1903 54.7866 45.8996 54.2505C45.6221 53.7771 45.1811 53.4214 44.6596 53.2505C43.9622 53.0262 43.232 52.9213 42.4996 52.9405H31.6796V45.1205C33.3396 44.7538 35.193 44.4205 37.2396 44.1205C39.6039 43.7785 41.9909 43.618 44.3796 43.6405C46.7737 43.5365 49.1619 43.9527 51.3796 44.8605C52.9926 45.5782 54.2897 46.8576 55.0296 48.4605C55.808 50.3098 56.1797 52.3049 56.1196 54.3105C56.1381 55.8424 55.9154 57.3678 55.4596 58.8305C55.0179 60.1873 54.3776 61.4712 53.5596 62.6405C52.6628 63.9073 51.6592 65.095 50.5596 66.1905L44.0596 72.8505H57.1596V81.6905L31.0696 81.6505ZM77.7296 81.6505V74.6505H61.9996L60.2996 70.2705L71.2296 43.9005H81.2296L71.9996 66.3605H77.6896V60.7705L79.5696 55.8905H87.5696V66.3605H90.5696V73.1605L87.5696 74.6905V81.6905L77.7296 81.6505ZM102.93 16.4105C103.116 16.9149 103.227 17.4438 103.26 17.9805C103.45 19.1843 103.198 20.4163 102.551 21.4492C101.904 22.4821 100.906 23.2462 99.7396 23.6005L86.2696 27.7205C84.99 28.1077 83.6089 27.9707 82.4302 27.3396C81.2515 26.7086 80.3718 25.6351 79.9846 24.3555C79.5974 23.0758 79.7344 21.6947 80.3655 20.5161C80.9965 19.3374 82.07 18.4577 83.3496 18.0705L84.6296 17.6805C81.3958 15.9167 77.9788 14.5117 74.4396 13.4905C67.4011 11.4519 60.0068 10.9488 52.757 12.0153C45.5071 13.0818 38.571 15.693 32.4177 19.6722C26.2644 23.6514 21.0375 28.9058 17.0906 35.0799C13.1438 41.254 10.5691 48.2038 9.54068 55.4591C8.51227 62.7144 9.05415 70.106 11.1297 77.1337C13.2052 84.1615 16.7659 90.6615 21.571 96.194C26.376 101.726 32.3133 106.162 38.9811 109.202C45.649 112.241 52.8918 113.813 60.2196 113.81C61.5543 113.842 62.8898 113.799 64.2196 113.68C66.143 113.546 68.0564 113.295 69.9496 112.93C70.5464 112.788 71.1658 112.769 71.7704 112.873C72.375 112.977 72.9523 113.202 73.4673 113.535C73.9824 113.869 74.4246 114.303 74.7672 114.812C75.1098 115.321 75.3457 115.894 75.4607 116.496C75.5756 117.099 75.5673 117.718 75.4361 118.318C75.305 118.917 75.0537 119.483 74.6975 119.983C74.3414 120.482 73.8876 120.905 73.3638 121.224C72.8399 121.543 72.2568 121.753 71.6496 121.84C69.4084 122.264 67.1447 122.558 64.8696 122.72C64.1796 122.72 60.9596 122.88 60.2396 122.88C51.0263 122.891 41.9335 120.787 33.6607 116.732C25.388 112.676 18.1559 106.777 12.5209 99.4879C6.88597 92.1987 2.99835 83.7139 1.15723 74.6865C-0.683896 65.659 -0.429452 56.3295 1.90098 47.4158C4.23142 38.5021 8.57572 30.2418 14.5996 23.2706C20.6235 16.2994 28.1664 10.8031 36.6479 7.20458C45.1294 3.60607 54.3234 2.00129 63.5224 2.51374C72.7214 3.02619 81.6803 5.64219 89.7096 10.1605L88.4496 6.86047C88.1829 6.23399 88.0454 5.56012 88.0452 4.87923C88.0451 4.19833 88.1824 3.52442 88.4489 2.89785C88.7154 2.27128 89.1057 1.70494 89.5962 1.23275C90.0868 0.760567 90.6676 0.392247 91.3039 0.149852C91.9402 -0.0925433 92.6189 -0.204026 93.2993 -0.17792C93.9796 -0.151814 94.6478 0.0113446 95.2636 0.301783C95.8795 0.592221 96.4304 1.00396 96.8833 1.51235C97.3362 2.02074 97.6819 2.61532 97.8996 3.26046L102.9 16.4105H102.93ZM85.5296 107.26C84.482 107.851 83.7117 108.833 83.3882 109.991C83.0647 111.149 83.2145 112.388 83.8046 113.435C84.3947 114.483 85.3768 115.253 86.5349 115.577C87.6929 115.9 88.932 115.751 89.9796 115.16C92.8428 113.569 95.56 111.729 98.0996 109.66C98.5884 109.295 98.9984 108.835 99.3051 108.307C99.6119 107.779 99.8091 107.195 99.885 106.59C99.9609 105.984 99.914 105.369 99.7469 104.782C99.5798 104.195 99.2961 103.648 98.9127 103.173C98.5293 102.698 98.0541 102.305 97.5154 102.018C96.9768 101.731 96.3859 101.556 95.7779 101.502C95.1699 101.449 94.5573 101.519 93.9769 101.707C93.3964 101.896 92.86 102.2 92.3996 102.6C90.2519 104.354 87.9529 105.913 85.5296 107.26ZM103.4 90.2605C102.763 91.2802 102.558 92.5111 102.829 93.6822C103.1 94.8534 103.825 95.8689 104.845 96.5055C105.864 97.142 107.095 97.3473 108.266 97.0763C109.438 96.8054 110.453 96.0802 111.09 95.0605C112.823 92.289 114.331 89.383 115.6 86.3705C115.859 85.8161 116.003 85.2151 116.024 84.6035C116.045 83.992 115.942 83.3825 115.721 82.8117C115.501 82.2409 115.167 81.7206 114.74 81.282C114.314 80.8435 113.803 80.4957 113.238 80.2596C112.674 80.0236 112.067 79.904 111.455 79.9083C110.843 79.9125 110.239 80.0404 109.677 80.2843C109.116 80.5281 108.61 80.883 108.189 81.3274C107.769 81.7718 107.442 82.2967 107.23 82.8705C106.154 85.4327 104.873 87.904 103.4 90.2605ZM111.17 66.7205C111.178 67.8552 111.612 68.9454 112.386 69.7754C113.16 70.6054 114.217 71.1148 115.348 71.2028C116.48 71.2908 117.603 70.9509 118.496 70.2506C119.388 69.5502 119.986 68.5402 120.17 67.4205C120.43 64.1623 120.43 60.8886 120.17 57.6305C120.181 56.9951 120.06 56.3643 119.812 55.7789C119.565 55.1935 119.197 54.6666 118.734 54.2322C118.27 53.7978 117.72 53.4656 117.119 53.2572C116.519 53.0488 115.882 52.9687 115.248 53.0222C114.615 53.0756 114 53.2615 113.443 53.5676C112.886 53.8738 112.4 54.2935 112.015 54.7995C111.631 55.3055 111.357 55.8866 111.211 56.5052C111.066 57.1238 111.051 57.766 111.17 58.3905C111.39 61.1628 111.39 63.9482 111.17 66.7205Z" fill="#7CB50C"/>
</g>
<defs>
<clipPath id="clip0_1179_2">
<rect width="120.39" height="122.88" fill="white"/>
</clipPath>
</defs>
</svg>
