<svg width="113" height="123" viewBox="0 0 113 123" fill="none" xmlns="http://www.w3.org/2000/svg">
<g clip-path="url(#clip0_1170_17)">
<path fill-rule="evenodd" clip-rule="evenodd" d="M104.41 6.10036C110.67 11.2304 111.34 17.9304 112.03 19.5604L112.37 22.0604C113.27 27.4504 110.72 34.8104 106.79 39.4404L89.1999 59.8404C82.4399 67.6804 71.1599 70.2804 61.7199 66.2104L61.6899 66.2504C65.1399 71.8804 64.8399 75.8904 65.1499 76.8204C66.0499 82.2304 63.4999 89.5604 59.5699 94.2004L41.9699 114.6C33.4399 124.49 18.3899 125.7 8.43987 117.21C3.39987 112.17 0.599874 107.9 0.0698737 100.72C-0.400126 94.4804 1.59987 88.3504 5.65987 83.5404L23.5799 62.7504C28.5899 57.6104 31.0799 56.8904 36.9099 55.2804L39.4099 54.9404L50.0699 56.5004C50.2899 56.5804 50.5099 56.6804 50.7199 56.7704L50.7499 56.7304C45.3999 48.0204 46.1799 36.6204 52.8899 28.7604L70.4799 8.37036C74.5899 3.60036 80.4699 0.660362 86.6299 0.180362C91.9999 -0.709638 99.3999 1.82036 104.01 5.76036L104.41 6.10036ZM74.2299 51.7104L70.5699 55.9504L71.2099 55.9604H71.2299L71.8299 55.9404H71.8399L71.9799 55.9304H71.9999C74.1099 55.7704 76.1899 55.0504 77.9599 53.7904C78.2999 53.5504 78.6399 53.2804 78.9799 52.9704C79.2799 52.7004 79.5999 52.3804 79.9099 52.0204L80.0299 51.8904L97.4799 31.6504C98.9499 29.9504 99.8399 27.9004 100.16 25.7904C100.23 25.3504 100.27 24.9204 100.29 24.5304C100.31 24.1204 100.3 23.6804 100.28 23.2504V23.2004L100.27 23.0904C100.11 20.9804 99.3899 18.9004 98.1299 17.1304C97.8899 16.7904 97.6199 16.4604 97.3499 16.1604L97.3199 16.1204C97.0299 15.8004 96.7099 15.4804 96.3799 15.1804L96.3199 15.1304L96.2699 15.0804L96.1599 15.0004C94.4699 13.5704 92.4599 12.7004 90.3799 12.3904H90.3499C89.9199 12.3304 89.4999 12.2804 89.1099 12.2704C88.6999 12.2504 88.2699 12.2604 87.8399 12.2804H87.7699L87.6699 12.2904C85.5599 12.4504 83.4799 13.1704 81.7099 14.4304C81.3699 14.6704 81.0299 14.9404 80.7299 15.2104L80.6999 15.2404C80.3699 15.5304 80.0599 15.8504 79.7599 16.1904L79.6399 16.3204L62.1999 36.5504C60.7299 38.2504 59.8399 40.3004 59.5199 42.4104C59.4599 42.8404 59.4099 43.2704 59.3999 43.6704C59.3799 44.0804 59.3899 44.5204 59.4099 44.9504L59.4199 45.1004V45.1104V45.1304C59.4499 45.5904 59.5099 46.0404 59.5999 46.5004L63.1799 42.3504L63.2799 42.2304L63.4099 42.0904L63.4299 42.0704C64.7199 40.6804 66.4499 39.8904 68.2199 39.7704C69.9999 39.6404 71.8399 40.1604 73.3199 41.3704L73.3399 41.3804L73.4299 41.4604L73.4499 41.4804L73.4699 41.5004L73.4799 41.5104L73.4999 41.5204L73.5699 41.5804C75.6299 43.4104 76.3899 46.1804 75.7799 48.7104C75.6599 49.2104 75.4799 49.7104 75.2399 50.1904C75.0199 50.6504 74.7299 51.0904 74.4099 51.5004L74.3899 51.5204L74.3599 51.5604L74.3499 51.5804L74.2499 51.7004L74.2299 51.7104ZM40.0599 80.2304C42.3899 82.2404 45.9399 81.9804 47.9499 79.6504L53.5299 73.1804C54.1799 74.6304 54.5699 76.1804 54.6899 77.7504C54.9399 81.1904 53.8999 84.7204 51.4999 87.5004L34.0399 107.74C31.6399 110.53 28.3099 112.08 24.8799 112.33C21.4999 112.58 18.0399 111.58 15.2899 109.28L15.1299 109.14C12.3499 106.74 10.7899 103.41 10.5399 99.9804C10.2899 96.5804 11.2999 93.0904 13.6399 90.3304L13.7299 90.2304L30.9799 70.2304L31.1899 69.9904C33.5899 67.2104 36.9199 65.6504 40.3499 65.4004C41.9299 65.2804 43.5299 65.4404 45.0599 65.8704L39.4799 72.3404C37.4699 74.6704 37.7299 78.2204 40.0599 80.2304Z" fill="white"/>
</g>
<defs>
<clipPath id="clip0_1170_17">
<rect width="112.55" height="122.88" fill="white"/>
</clipPath>
</defs>
</svg>
