<svg width="90" height="123" viewBox="0 0 90 123" fill="none" xmlns="http://www.w3.org/2000/svg">
<g clip-path="url(#clip0_1157_90)">
<path d="M79.128 64.5981H40.069C38.343 64.5981 36.944 63.1841 36.944 61.4411C36.944 59.6971 38.343 58.2831 40.069 58.2831H79.126L66.422 43.7331C65.282 42.4321 65.403 40.4441 66.691 39.2941C67.979 38.1431 69.948 38.2641 71.087 39.5651L88.368 59.3571C89.429 60.5681 89.397 62.3761 88.348 63.5471L71.086 83.3171C69.946 84.6191 67.978 84.7401 66.69 83.5881C65.403 82.4371 65.282 80.4491 66.421 79.1481L79.128 64.5981ZM42.396 116.674C44.085 117.083 45.123 118.784 44.714 120.473C44.305 122.162 42.605 123.201 40.915 122.791C37.114 121.869 33.333 121.12 29.863 120.433C10.426 116.583 0 114.519 0 86.8711V34.1881C0 7.96009 11.08 5.88909 29.431 2.46009C33.003 1.79309 36.879 1.06909 40.915 0.08909C42.604 -0.31991 44.305 0.71809 44.714 2.40809C45.122 4.09709 44.085 5.79809 42.396 6.20709C38.105 7.24809 34.195 7.97809 30.591 8.65209C15.454 11.4801 6.315 13.1881 6.315 34.1881V86.8711C6.315 109.338 14.958 111.05 31.071 114.241C34.453 114.911 38.138 115.642 42.396 116.674Z" fill="white"/>
</g>
<defs>
<clipPath id="clip0_1157_90">
<rect width="89.149" height="122.88" fill="white"/>
</clipPath>
</defs>
</svg>
