<svg width="123" height="121" viewBox="0 0 123 121" fill="none" xmlns="http://www.w3.org/2000/svg">
<g clip-path="url(#clip0_1179_7)">
<path d="M69.66 4.05C69.66 1.82 71.86 0 74.6 0C77.34 0 79.54 1.81 79.54 4.05V21.77C79.54 24 77.34 25.82 74.6 25.82C71.86 25.82 69.66 24.01 69.66 21.77V4.05ZM91.37 57.03C95.63 57.03 99.7 57.88 103.42 59.42C107.29 61.02 110.76 63.36 113.66 66.26C116.56 69.16 118.9 72.64 120.5 76.49C122.04 80.21 122.89 84.28 122.89 88.54C122.89 92.8 122.04 96.87 120.5 100.59C118.9 104.46 116.56 107.93 113.66 110.83C110.76 113.73 107.28 116.07 103.43 117.67C99.71 119.21 95.64 120.06 91.38 120.06C87.12 120.06 83.05 119.21 79.33 117.67C75.46 116.07 71.99 113.73 69.09 110.83C66.19 107.93 63.85 104.45 62.25 100.59C60.71 96.87 59.86 92.8 59.86 88.54C59.86 84.28 60.71 80.21 62.25 76.49C63.85 72.62 66.19 69.15 69.09 66.25C71.99 63.35 75.47 61.01 79.32 59.41C83.04 57.88 87.1 57.03 91.37 57.03ZM89.01 75.37C89.01 74.61 89.32 73.92 89.82 73.42C90.32 72.92 91.01 72.61 91.78 72.61C92.55 72.61 93.24 72.92 93.74 73.42C94.24 73.92 94.55 74.61 94.55 75.38V90.12L105.57 96.66L105.66 96.72C106.27 97.11 106.67 97.7 106.83 98.35C107 99.03 106.92 99.77 106.55 100.41L106.53 100.44C106.51 100.48 106.49 100.51 106.46 100.54C106.07 101.14 105.48 101.54 104.84 101.7C104.16 101.87 103.42 101.79 102.78 101.42L90.46 94.13C90.03 93.9 89.67 93.55 89.41 93.14C89.15 92.72 89 92.23 89 91.71L89.01 75.37ZM109.75 70.16C107.35 67.76 104.49 65.83 101.32 64.52C98.26 63.25 94.9 62.56 91.37 62.56C87.84 62.56 84.48 63.26 81.42 64.52C78.25 65.83 75.39 67.76 72.99 70.16C70.59 72.56 68.66 75.42 67.35 78.59C66.08 81.65 65.39 85.01 65.39 88.54C65.39 92.07 66.09 95.43 67.35 98.49C68.66 101.66 70.59 104.52 72.99 106.92C75.39 109.32 78.25 111.25 81.42 112.56C84.48 113.83 87.84 114.52 91.37 114.52C94.9 114.52 98.26 113.82 101.32 112.56C104.49 111.25 107.35 109.32 109.75 106.92C114.46 102.21 117.36 95.72 117.36 88.54C117.36 85.01 116.66 81.65 115.4 78.59C114.08 75.42 112.15 72.56 109.75 70.16ZM13.45 57.36C13.17 57.36 12.92 56.13 12.92 54.62C12.92 53.11 13.14 51.89 13.45 51.89H26.93C27.21 51.89 27.46 53.12 27.46 54.62C27.46 56.13 27.24 57.36 26.93 57.36H13.45ZM34.94 57.36C34.66 57.36 34.41 56.13 34.41 54.62C34.41 53.11 34.63 51.89 34.94 51.89H48.42C48.7 51.89 48.95 53.12 48.95 54.62C48.95 56.13 48.73 57.36 48.42 57.36H34.94ZM56.43 57.36C56.15 57.36 55.9 56.13 55.9 54.62C55.9 53.11 56.12 51.89 56.43 51.89H69.91C70.19 51.89 70.44 53.11 70.44 54.61C69.09 55.45 67.79 56.37 66.55 57.36H56.43ZM13.48 73.04C13.2 73.04 12.95 71.81 12.95 70.3C12.95 68.79 13.17 67.56 13.48 67.56H26.96C27.24 67.56 27.49 68.79 27.49 70.3C27.49 71.81 27.27 73.04 26.96 73.04H13.48ZM34.97 73.04C34.69 73.04 34.44 71.81 34.44 70.3C34.44 68.79 34.66 67.56 34.97 67.56H48.45C48.73 67.56 48.98 68.79 48.98 70.3C48.98 71.81 48.76 73.04 48.45 73.04H34.97ZM13.51 88.73C13.23 88.73 12.98 87.5 12.98 85.99C12.98 84.48 13.2 83.25 13.51 83.25H26.99C27.27 83.25 27.52 84.48 27.52 85.99C27.52 87.5 27.3 88.73 26.99 88.73H13.51ZM35 88.73C34.72 88.73 34.47 87.5 34.47 85.99C34.47 84.48 34.69 83.25 35 83.25H48.48C48.76 83.25 49.01 84.48 49.01 85.99C49.01 87.5 48.79 88.73 48.48 88.73H35ZM25.29 4.05C25.29 1.82 27.49 0 30.23 0C32.97 0 35.17 1.81 35.17 4.05V21.77C35.17 24 32.96 25.82 30.23 25.82C27.49 25.82 25.29 24.01 25.29 21.77V4.05ZM5.44 38.74H99.52V18.34C99.52 17.64 99.24 17.03 98.79 16.58C98.34 16.13 97.7 15.85 97.03 15.85H88.01C86.5 15.85 85.27 14.62 85.27 13.11C85.27 11.6 86.5 10.37 88.01 10.37H97.03C99.24 10.37 101.22 11.26 102.67 12.71C104.12 14.16 105.01 16.14 105.01 18.35V50.74C103.21 50.12 101.36 49.62 99.46 49.25V44.19H99.52H5.44V97.02C5.44 97.72 5.72 98.33 6.17 98.78C6.62 99.23 7.26 99.51 7.93 99.51H52.64C53.15 101.41 53.79 103.26 54.56 105.04H7.98C5.78 105.04 3.79 104.15 2.34 102.7C0.89 101.26 0 99.28 0 97.07V18.36C0 16.16 0.89 14.17 2.34 12.72C3.79 11.27 5.77 10.38 7.98 10.38H17.61C19.12 10.38 20.35 11.61 20.35 13.12C20.35 14.63 19.12 15.86 17.61 15.86H7.98C7.28 15.86 6.67 16.14 6.22 16.59C5.77 17.04 5.49 17.68 5.49 18.35V38.75H5.44V38.74ZM43.07 15.85C41.56 15.85 40.33 14.62 40.33 13.11C40.33 11.6 41.56 10.37 43.07 10.37H61.43C62.94 10.37 64.17 11.6 64.17 13.11C64.17 14.62 62.94 15.85 61.43 15.85H43.07Z" fill="#0073E6"/>
</g>
<defs>
<clipPath id="clip0_1179_7">
<rect width="122.88" height="120.06" fill="white"/>
</clipPath>
</defs>
</svg>
