<svg width="118" height="123" viewBox="0 0 118 123" fill="none" xmlns="http://www.w3.org/2000/svg">
<g clip-path="url(#clip0_1184_2)">
<path fill-rule="evenodd" clip-rule="evenodd" d="M94.6198 1.99908C93.1598 0.63908 91.4798 -0.0909197 89.5998 0.00908035C87.7198 0.00908035 86.0398 0.73908 84.6798 2.20908L73.5898 13.7191L104.66 43.7491L115.85 32.0291C117.21 30.6691 117.73 28.8891 117.73 27.0091C117.73 25.1291 117 23.3491 115.64 22.0891L94.6198 1.99908ZM41.4398 109.579C37.3598 110.939 33.1798 112.199 29.0898 113.559C25.0098 114.919 20.9298 116.279 16.7398 117.639C7.00979 120.779 1.66979 122.559 0.519788 122.869C-0.630212 123.179 0.0997877 118.689 2.50979 109.269L10.2498 79.6591L10.8898 78.9991L41.4498 109.559L41.4398 109.579ZM22.1998 67.2491L65.1898 22.4291L96.2598 52.3491L52.7498 97.7991L22.1998 67.2491Z" fill="white"/>
</g>
<defs>
<clipPath id="clip0_1184_2">
<rect width="117.74" height="122.88" fill="white"/>
</clipPath>
</defs>
</svg>
