<svg width="82" height="123" viewBox="0 0 82 123" fill="none" xmlns="http://www.w3.org/2000/svg">
<g clip-path="url(#clip0_590_9)">
<path fill-rule="evenodd" clip-rule="evenodd" d="M0 49.17L49.6 0L81.28 31.13L76.17 33.51L54.17 11.92L53.91 11.65C52.9403 10.7238 51.6425 10.2204 50.3019 10.2504C48.9612 10.2804 47.6873 10.8413 46.76 11.81L44.97 13.67L44.91 13.61L36.51 22.51L4.34 53.42L0 49.17ZM13.41 76.85L13.11 78.77C12.32 83.89 11.04 92.21 10.52 95.15C10.4846 95.3264 10.4275 95.4977 10.35 95.66C10.2912 95.8154 10.2029 95.9581 10.09 96.08C9.49565 96.8363 8.95754 97.6351 8.48 98.47C8.1311 99.0572 7.87476 99.6947 7.72 100.36C7.6443 100.689 7.6443 101.031 7.72 101.36C7.80538 101.662 7.97131 101.935 8.2 102.15C13.08 107.05 18.26 112 23 117C23.7103 117.658 24.5577 118.15 25.4812 118.44C26.4046 118.731 27.3811 118.813 28.34 118.68C30.1362 118.449 31.9094 118.064 33.64 117.53C35.52 117.116 37.3707 116.578 39.18 115.92C40.9825 115.227 42.6431 114.21 44.08 112.92L48.16 108.66C48.2154 108.58 48.279 108.506 48.35 108.44V108.44C48.47 108.32 48.82 107.97 49.35 107.5C52.05 104.86 55.35 101.61 53.48 98.91L52.11 97.54L51.11 98.44L49.8 99.53C49.1 100.14 48.45 100.72 47.86 101.3C47.4622 101.698 46.9226 101.921 46.36 101.921C45.7974 101.921 45.2578 101.698 44.86 101.3C44.4622 100.902 44.2387 100.363 44.2387 99.8C44.2387 99.2374 44.4622 98.6978 44.86 98.3C45.49 97.67 46.25 96.99 47.04 96.3L47.14 96.22C49.79 93.87 52.82 91.22 51.34 89.02L49.73 87.41C49.35 87.8 48.95 88.17 48.55 88.54C48.15 88.91 47.55 89.46 47.03 89.9L46.9 90C46.22 90.6 45.58 91.16 44.99 91.75C44.793 91.947 44.5592 92.1032 44.3018 92.2098C44.0444 92.3165 43.7686 92.3713 43.49 92.3713C43.2114 92.3713 42.9356 92.3165 42.6782 92.2098C42.4208 92.1032 42.187 91.947 41.99 91.75C41.793 91.553 41.6368 91.3192 41.5302 91.0618C41.4235 90.8044 41.3687 90.5286 41.3687 90.25C41.3687 89.9714 41.4235 89.6956 41.5302 89.4382C41.6368 89.1808 41.793 88.947 41.99 88.75C42.6 88.14 43.35 87.47 44.14 86.75L44.26 86.64C46.91 84.3 49.94 81.64 48.47 79.44C47.91 78.89 47.34 78.34 46.8 77.77L42.32 82.25C41.9222 82.6478 41.3826 82.8713 40.82 82.8713C40.2574 82.8713 39.7178 82.6478 39.32 82.25C38.9222 81.8522 38.6987 81.3126 38.6987 80.75C38.6987 80.1874 38.9222 79.6478 39.32 79.25L48.32 70.25C49.1646 69.4494 49.8117 68.4635 50.21 67.37C50.5439 66.4709 50.572 65.4867 50.29 64.57C50.1974 64.2933 50.0732 64.0283 49.92 63.78C49.7724 63.5409 49.5979 63.3195 49.4 63.12C49.1993 62.9165 48.9743 62.7385 48.73 62.59C48.4837 62.4423 48.2222 62.3217 47.95 62.23C47.0344 61.9551 46.0536 61.9903 45.16 62.33C44.0446 62.7719 43.0406 63.4548 42.22 64.33L20.59 86.06C20.1922 86.4578 19.6526 86.6813 19.09 86.6813C18.5274 86.6813 17.9878 86.4578 17.59 86.06C17.1922 85.6622 16.9687 85.1226 16.9687 84.56C16.9687 83.9974 17.1922 83.4578 17.59 83.06L18.53 82.13L13.37 76.86L13.41 76.85ZM23.56 77.13L36.42 64.27L36.18 64.2C34.4694 63.6384 32.9616 62.5863 31.8444 61.1744C30.7272 59.7625 30.0498 58.0533 29.8966 56.2594C29.7433 54.4655 30.1209 52.6661 30.9825 51.0852C31.844 49.5043 33.1514 48.2116 34.742 47.368C36.3326 46.5244 38.1361 46.1671 39.9281 46.3407C41.7202 46.5142 43.4216 47.2109 44.8208 48.3441C46.2199 49.4772 47.255 50.9967 47.7971 52.7136C48.3393 54.4305 48.3646 56.2688 47.87 58C48.3487 58.0686 48.8206 58.179 49.28 58.33V58.33C49.8571 58.5199 50.4106 58.7748 50.93 59.09C51.4552 59.4136 51.9417 59.796 52.38 60.23V60.23C52.5704 60.4204 52.7506 60.6207 52.92 60.83L65.12 48.41C64.0248 47.274 63.4212 45.7523 63.4399 44.1745C63.4586 42.5966 64.0982 41.0897 65.22 39.98L54.06 28.58C52.9249 29.6795 51.4018 30.2868 49.8215 30.27C48.2412 30.2531 46.7314 29.6135 45.62 28.49V28.49L15 59.9C16.1084 61.0229 16.7299 62.5372 16.7299 64.115C16.7299 65.6928 16.1084 67.2071 15 68.33L23.61 77.13H23.56ZM54.34 68.55C53.7553 70.3894 52.7247 72.0555 51.34 73.4L49.87 74.86L51.61 76.6L51.77 76.78L51.91 76.97C52.7297 77.9576 53.2205 79.1766 53.3137 80.4567C53.4069 81.7368 53.098 83.014 52.43 84.11H52.48C52.5961 84.1886 52.7064 84.2755 52.81 84.37L54.51 86.08C54.5709 86.1328 54.6247 86.1933 54.67 86.26L54.8 86.43C55.7592 87.6274 56.2623 89.1264 56.22 90.66C56.1405 91.9254 55.7189 93.1455 55 94.19L56.69 95.87L56.85 96.06L56.97 96.23C61.11 101.89 56.29 106.6 52.4 110.4C52.14 110.71 51.71 111.09 51.4 111.4C50.04 112.82 48.4 114.74 47 116C43.08 119.55 39.22 120.5 34.75 121.59C32.7553 122.208 30.7059 122.633 28.63 122.86C27.0841 123.031 25.5196 122.859 24.0473 122.358C22.5749 121.857 21.2308 121.038 20.11 119.96L5.33 105.18C4.58518 104.484 4.03677 103.605 3.74 102.63C3.46649 101.625 3.43905 100.568 3.66 99.55V99.55C3.86309 98.5943 4.19973 97.6719 4.66 96.81C5.19458 95.788 5.81692 94.8143 6.52 93.9C6.9 91.73 7.73 86.2 8.52 81.12C8.97 78.07 9.41 75.2 9.74 73.12L1.43 64.63L50.6 15L78.83 43.85L54.34 68.55Z" fill="#5D85E5"/>
</g>
<defs>
<clipPath id="clip0_590_9">
<rect width="81.28" height="122.88" fill="white"/>
</clipPath>
</defs>
</svg>
