<svg width="512" height="368" viewBox="0 0 512 368" fill="none" xmlns="http://www.w3.org/2000/svg">
<g clip-path="url(#clip0_1170_13)">
<path fill-rule="evenodd" clip-rule="evenodd" d="M0 147.04L119.81 62.08L240.24 147.04H0ZM398.51 125.7H461.74V113.46C458.12 100.07 452.37 91 444.91 85.48C437.47 79.97 427.82 77.61 416.51 77.69L415.33 77.75H228.66C222.28 77.75 217.1 72.57 217.1 66.19C217.1 59.81 222.28 54.63 228.66 54.63L416.21 54.67C432.49 54.53 446.83 58.24 458.62 66.98C459.69 67.77 460.72 68.59 461.74 69.45V62.51C461.74 51.72 457.29 41.86 450.13 34.7C442.99 27.56 433.15 23.11 422.34 23.11H170.76C159.91 23.11 150.05 27.53 142.94 34.65L142.89 34.69C140.39 37.19 138.23 40.03 136.47 43.14L134.24 41.56C128.18 37.31 120.51 35.94 113.37 37.84C116.522 30.5877 121.01 23.993 126.6 18.4L126.65 18.35C138.02 7.02 153.63 0 170.76 0H422.34C439.53 0 455.16 7.05 466.47 18.37C477.81 29.7 484.85 45.35 484.85 62.51V126.36C491.45 127.7 497.39 130.99 502.02 135.6L502.14 135.72C508.22 141.85 512 150.26 512 159.45V235.44C512 245.14 508.04 253.95 501.68 260.31C501.12 260.87 500.54 261.39 499.94 261.86C495.623 265.661 490.443 268.349 484.85 269.69V305.27C484.85 322.4 477.78 338.04 466.44 349.38L465.71 350.04C454.41 361 439.07 367.79 422.34 367.79H170.76C153.67 367.79 138.03 360.74 126.67 349.4L126.62 349.35C115.29 337.99 108.25 322.39 108.25 305.27V302.45H131.36V305.27C131.36 316.1 135.8 325.95 142.91 333.06L142.96 333.1C150.1 340.24 159.96 344.68 170.76 344.68H422.34C432.85 344.68 442.48 340.44 449.57 333.6L450.1 333.04C457.27 325.87 461.74 316.02 461.74 305.27V270.64H398.51C379.04 270.64 361.32 262.66 348.47 249.82L348.39 249.74C335.55 236.89 327.57 219.17 327.57 199.69V196.64C327.57 177.16 335.55 159.45 348.39 146.6V146.52C361.24 133.68 378.99 125.7 398.51 125.7ZM404.37 170.5C411.97 170.5 418.88 173.6 423.9 178.6L423.93 178.64C428.95 183.67 432.04 190.58 432.04 198.17C432.04 205.8 428.94 212.73 423.93 217.74L423.31 218.3C418.34 222.98 411.68 225.84 404.37 225.84C396.74 225.84 389.81 222.75 384.8 217.74C379.79 212.73 376.69 205.8 376.69 198.17C376.69 190.56 379.8 183.64 384.82 178.62C387.381 176.042 390.427 173.997 393.782 172.603C397.138 171.209 400.736 170.495 404.37 170.5ZM4.22 261.7H15.54V255.53H23.41V181.51H7.33V163.78H232.27V181.51H216.22V255.53H224.08V261.7H237.06V277.31H4.22V261.7ZM69.95 261.7V255.53H77.81V181.51H53.01V255.53H60.88V261.7H69.95ZM124.37 261.7V255.53H132.21V181.51H107.41V255.53H115.28V261.7H124.37ZM178.77 261.7V255.53H186.64V181.51H161.81V255.53H169.68V261.7H178.77Z" fill="#CC1583"/>
</g>
<defs>
<clipPath id="clip0_1170_13">
<rect width="512" height="367.79" fill="white"/>
</clipPath>
</defs>
</svg>
