<svg width="123" height="123" viewBox="0 0 123 123" fill="none" xmlns="http://www.w3.org/2000/svg">
<g clip-path="url(#clip0_1155_88)">
<path d="M4.28 120.58C4.28 121.147 4.05454 121.691 3.65321 122.093C3.25188 122.494 2.70756 122.72 2.14 122.72C1.57244 122.72 1.02812 122.494 0.626791 122.093C0.225464 121.691 0 121.147 0 120.58C0 109.92 3.9 104.05 8.93 100.7C13.96 97.3495 19.65 96.6995 23.93 96.2895C28.3847 95.9425 32.6898 94.5258 36.48 92.1595C40.451 89.4266 43.3106 85.3606 44.54 80.6995C40.4 77.1295 37 73.9995 36.21 66.7595C35.2503 66.7413 34.311 66.4798 33.48 65.9995C32.5377 65.3746 31.7307 64.5665 31.1071 63.6234C30.4835 62.6802 30.056 61.6213 29.85 60.5095C29.2313 57.8011 29.0993 55.0042 29.46 52.2495C29.4812 52.0638 29.5283 51.8821 29.6 51.7095C30.49 49.2595 31.77 48.2795 33.43 48.1395L33 47.8495C32.35 39.6895 34.26 25.5395 25.4 22.8495C42.11 2.13951 61.43 -9.1205 75.94 9.2995C93.19 10.2095 100.24 37.2995 87.02 49.2195L86.96 49.7395C87.2887 49.6625 87.6232 49.6124 87.96 49.5895C89.0317 49.4858 90.1107 49.6905 91.07 50.1795C91.5992 50.4577 92.0674 50.8391 92.447 51.3011C92.8265 51.763 93.1098 52.2963 93.28 52.8695C93.6842 54.3164 93.6529 55.8503 93.19 57.2795C92.52 59.3495 91.74 61.5795 90.96 63.6095C90.7287 64.5365 90.2192 65.3705 89.5 65.9995L89.32 66.1295C88.4013 66.7202 87.3025 66.9648 86.22 66.8195H86.11C85.88 72.8795 83.22 76.1295 79.51 79.7495C81.15 85.5295 83.85 89.0795 87.08 91.3395C90.5 93.7195 94.62 94.7395 98.75 95.4295C102.88 96.1195 108.48 97.0895 113.43 100.56C118.38 104.03 122.55 110.07 122.88 120.56C122.865 121.105 122.643 121.624 122.258 122.01C121.874 122.397 121.356 122.622 120.811 122.64C120.266 122.658 119.735 122.467 119.326 122.106C118.916 121.746 118.661 121.242 118.61 120.7C118.33 111.86 115.05 106.93 110.99 104.08C106.93 101.23 101.68 100.28 98.05 99.6695C93.39 98.8895 88.71 97.6695 84.63 94.8695C80.7256 92.0765 77.7977 88.1271 76.26 83.5795L76.16 83.6695C73.7594 85.6478 70.9839 87.1206 68 87.9995C66.0308 88.675 63.9617 89.0131 61.88 88.9995C61.0503 88.9943 60.2218 88.9341 59.4 88.8195C55.1889 88.4578 51.183 86.8415 47.9 84.1795C46.1876 88.8686 43.0378 92.8969 38.9 95.6895C34.5366 98.4424 29.5722 100.1 24.43 100.52C20.6 100.93 15.43 101.52 11.35 104.25C7.27 106.98 4.35 111.65 4.35 120.56L4.28 120.58ZM59.88 84.5795C60.39 84.6295 60.88 84.6495 61.43 84.6495C63.1572 84.6487 64.8762 84.4132 66.54 83.9495C69.1726 82.9951 71.5626 81.4723 73.54 79.4895L74.94 78.1595C79.25 74.0595 82.36 71.0995 81.76 63.9295C81.7279 63.4504 81.8506 62.9736 82.11 62.5695C82.2655 62.3307 82.4671 62.1253 82.703 61.9654C82.9389 61.8056 83.2044 61.6944 83.4838 61.6385C83.7632 61.5826 84.051 61.5831 84.3303 61.64C84.6095 61.6968 84.8746 61.8088 85.11 61.9695C85.3549 62.1331 85.6164 62.2705 85.89 62.3795C86.0789 62.4525 86.2779 62.4963 86.48 62.5095C86.79 62.5095 86.82 62.6395 86.87 62.6295C86.87 62.6295 86.87 62.4795 86.98 62.2395L89.14 56.0995C89.3537 55.4758 89.402 54.8074 89.28 54.1595C89.2546 54.0668 89.1981 53.9856 89.12 53.9295C88.8708 53.8381 88.6026 53.8106 88.34 53.8495C87.3293 53.9622 86.3717 54.3612 85.58 54.9995C85.2377 55.2585 84.8254 55.4085 84.3967 55.4301C83.968 55.4517 83.5427 55.3439 83.1761 55.1207C82.8094 54.8975 82.5184 54.5692 82.3408 54.1784C82.1631 53.7877 82.1071 53.3525 82.18 52.9295C83.73 43.9295 83.03 38.0395 81.12 34.0595C79.625 31.0503 77.2074 28.5976 74.22 27.0595C67.7 31.9995 63.08 32.5995 58.48 33.1695C54.73 33.6295 50.99 34.0895 46.06 37.4995C43.9559 38.8624 42.3438 40.8635 41.46 43.2095C40.6442 45.8259 40.5818 48.6193 41.28 51.2695C41.3629 51.666 41.3352 52.0777 41.2 52.4595C41.0039 52.9931 40.6046 53.4273 40.0892 53.6671C39.5739 53.907 38.9845 53.933 38.45 53.7395L36.91 53.1795C35.26 52.5995 34.08 52.3095 33.66 53.1095C33.4087 55.2367 33.5237 57.3912 34 59.4795C34.1617 60.5898 34.728 61.6013 35.59 62.3195C35.8086 62.4361 36.0522 62.4979 36.3 62.4995C36.7075 62.4902 37.1115 62.4228 37.5 62.2995C37.7062 62.228 37.9219 62.1875 38.14 62.1795C38.4206 62.1729 38.6997 62.2217 38.9613 62.3233C39.2229 62.4249 39.4619 62.5772 39.6644 62.7714C39.867 62.9656 40.0292 63.1979 40.1417 63.455C40.2542 63.7121 40.3148 63.9889 40.32 64.2695C40.5 71.5795 43.77 74.3995 47.74 77.8195L49.44 79.2995C52.3222 82.0556 55.954 83.8994 59.88 84.5995V84.5795Z" fill="white"/>
</g>
<defs>
<clipPath id="clip0_1155_88">
<rect width="122.88" height="122.72" fill="white"/>
</clipPath>
</defs>
</svg>
