<svg width="111" height="123" viewBox="0 0 111 123" fill="none" xmlns="http://www.w3.org/2000/svg">
<g clip-path="url(#clip0_5754_8)">
<path d="M0.05 65.07C0.02 65.88 0 66.7 0 67.52C0 71.34 0.37 75.03 1.1 78.65C1.79 82.2 2.86 85.62 4.29 88.98C4.29 89.02 4.33 89.08 4.35 89.12C5.77 92.47 7.5 95.6 9.47 98.55C11.43 101.51 13.69 104.23 16.18 106.72C18.67 109.24 21.4 111.47 24.35 113.42C27.31 115.41 30.46 117.11 33.78 118.54C37.17 120 40.66 121.06 44.24 121.79C47.81 122.51 51.53 122.88 55.35 122.88C59.17 122.88 62.86 122.51 66.48 121.78C70.03 121.09 73.45 120.02 76.81 118.59C76.85 118.59 76.91 118.55 76.95 118.53C80.27 117.11 83.43 115.38 86.38 113.41C89.34 111.45 92.06 109.19 94.55 106.71C97.07 104.22 99.3 101.49 101.26 98.54C103.25 95.58 104.94 92.43 106.38 89.11C107.84 85.72 108.9 82.23 109.63 78.65C110.36 75.06 110.73 71.34 110.73 67.52C110.73 66.7 110.71 65.89 110.68 65.08C73.91 65.07 36.91 65.07 0.05 65.07ZM4.91 69.94H20.22C20.79 77.51 23.31 85.11 27.79 92.79H11.59C10.56 91 9.63 89.14 8.8 87.18C8.76 87.14 8.76 87.12 8.74 87.08C7.48 84.06 6.48 80.93 5.85 77.68C5.34 75.16 5.02 72.6 4.91 69.94ZM14.74 97.64H30.91C35.52 104.28 41.61 110.96 49.18 117.66C47.82 117.5 46.49 117.29 45.2 117.03C41.91 116.36 38.76 115.4 35.7 114.07C32.61 112.75 29.73 111.18 27.03 109.38C24.34 107.59 21.88 105.56 19.59 103.27C17.83 101.51 16.2 99.65 14.74 97.66V97.64ZM61.54 117.66C69.15 110.95 75.22 104.28 79.81 97.64H95.98C94.52 99.63 92.89 101.5 91.13 103.25C88.84 105.54 86.38 107.57 83.69 109.36C81.03 111.15 78.14 112.71 75.02 114.05C74.98 114.09 74.96 114.09 74.92 114.11C71.9 115.37 68.77 116.37 65.52 117C64.19 117.27 62.86 117.47 61.54 117.63V117.66ZM99.14 92.79H82.93C87.42 85.12 89.94 77.52 90.5 69.94H105.81C105.68 72.6 105.38 75.16 104.88 77.68C104.21 80.97 103.25 84.12 101.92 87.18C101.09 89.13 100.16 91 99.14 92.79ZM57.79 114.51V97.64H73.86C69.64 103.22 64.29 108.83 57.79 114.51ZM57.79 92.79V69.94H85.65C85.02 77.45 82.23 85.05 77.25 92.79H57.79ZM52.94 69.94V92.79H33.48C28.5 85.05 25.71 77.44 25.08 69.94H52.94ZM52.94 97.64V114.51C46.43 108.83 41.08 103.22 36.86 97.64H52.94Z" fill="white"/>
<path fill-rule="evenodd" clip-rule="evenodd" d="M83.42 38.14L85.15 38.1L86.59 38.06C84.9 32.89 85.47 28.14 89.51 24.1C90.19 26.32 91.73 28.15 94.35 29.5C95.6 30.43 96.81 31.55 97.98 32.84C98.19 31.98 97.4 30.95 96.44 29.88C97.33 30.32 98.14 30.93 98.73 32.11C99.41 33.48 99.4 34.64 99.17 36.12C99.06 36.81 98.9 37.45 98.66 38.05H101.05C103.57 32.64 101.97 24.62 96.81 21.23C95.22 20.19 94.09 20.23 92.23 20.23C90.1 20.23 89.01 20.29 87.19 21.5C84.51 23.28 82.86 26.35 82.16 30.62C82.03 32.75 81.93 36.43 83.42 38.14ZM0.959961 57.31C1.16996 51.47 8.16996 51.24 13.64 47.83L17.3 57.31H0.959961ZM24.69 54.1H25.41C26.06 54.1 26.59 53.57 26.59 52.92V51.01C26.59 50.36 26.06 49.83 25.41 49.83H21.14C20.49 49.83 19.96 50.36 19.96 51.01V52.92C19.96 53.57 20.49 54.1 21.14 54.1H21.87L21.24 57.31H25.3L24.69 54.1ZM17.22 43.71C17.36 42.6 14.08 38.95 13.48 36.93C12.2 34.89 11.74 32.78 13.14 30.62C13.7 29.76 13.46 27.45 13.46 26.27C13.46 14.56 33.99 14.55 33.99 26.27C33.99 27.75 33.65 29.68 34.45 30.85C35.79 32.8 35.1 35.13 33.96 36.94C33.24 39.07 29.81 42.51 30.04 43.72C30.25 49.72 17.18 49.52 17.22 43.71ZM50.99 41.41L56.13 56.5L58.72 47.54L57.45 46.16C56.87 45.32 56.75 44.6 57.07 43.97C57.76 42.62 59.17 42.86 60.49 42.86C61.88 42.86 63.6 42.6 64.03 44.34C64.17 44.93 63.99 45.53 63.59 46.16L62.32 47.54L64.91 56.5L69.56 41.41C75.61 46.86 87.8 43.67 89.27 57.3H29.65C31.2 42.95 44.89 46.91 50.99 41.41ZM46.8 21.43C46.83 22.28 47.27 23.39 48.14 24.68L48.16 24.7L51.03 29.26C52.18 31.09 53.37 32.94 54.87 34.3C56.28 35.6 58.02 36.48 60.29 36.48C62.76 36.49 64.55 35.57 66.02 34.2C67.55 32.77 68.77 30.79 69.97 28.82L73.2 23.51C73.86 22.01 74.06 21.1 73.84 20.66C73.72 20.41 73.27 20.32 72.55 20.35C72.05 20.49 71.47 20.49 70.78 20.3L72.09 15.29C61.97 16.33 56.28 6.85999 49.07 14.06L50.01 20C48.84 20.24 46.72 19.48 46.8 21.43ZM74.04 18.64C74.72 18.85 75.21 19.23 75.51 19.84C76 20.81 75.8 22.26 74.89 24.33C74.87 24.37 74.85 24.4 74.84 24.44L71.57 29.82C70.3 31.9 69.02 33.99 67.3 35.6C65.52 37.28 63.3 38.4 60.28 38.38C57.46 38.37 55.33 37.3 53.59 35.7C51.91 34.17 50.64 32.2 49.43 30.28L46.56 25.72C45.5 24.13 44.95 22.68 44.91 21.48C44.89 20.9 44.99 20.39 45.21 19.92C45.44 19.44 45.78 19.03 46.25 18.71C46.48 18.57 46.74 18.43 47.01 18.33C46.83 15.87 46.77 12.82 46.89 10.27C46.95 9.64999 47.07 9.02999 47.24 8.39999C47.97 5.77999 49.82 3.67999 52.09 2.21999C52.89 1.71999 53.77 1.27999 54.7 0.949986C60.2 -1.03001 67.5 0.0599856 71.41 4.28999C73.01 6.00999 74.01 8.29999 74.22 11.33L74.04 18.64ZM90 47.97L91.29 43.48L90.66 42.79C90.37 42.38 90.32 42.01 90.47 41.7C90.81 41.02 91.52 41.15 92.18 41.15C92.87 41.15 93.73 41.01 93.95 41.89C94.02 42.18 93.93 42.48 93.74 42.8L93.1 43.5L94.39 47.99L92.19 49.73L90 47.97ZM101.56 46.41C100.58 44.45 99.34 42.78 97.89 41.22C100.61 42.27 103.4 43.31 105.45 44.61C106.76 45.43 107.44 46.05 107.96 47.04C109.09 49.16 109.21 51.05 109.37 53.35L109.77 57.31H93.87C93.44 55.48 93.2 53.95 92.3 51.92C95.05 49.21 97.98 47.01 101.56 46.41ZM82.05 42.99C83.57 42.32 85.14 41.75 86.51 41.22C85.73 42.07 85.01 42.94 84.36 43.87C83.63 43.57 82.86 43.27 82.05 42.99Z" fill="white"/>
</g>
<defs>
<clipPath id="clip0_5754_8">
<rect width="110.74" height="122.88" fill="white"/>
</clipPath>
</defs>
</svg>
