<svg width="26" height="26" viewBox="0 0 26 26" fill="none" xmlns="http://www.w3.org/2000/svg">
<g clip-path="url(#clip0_1101_13)">
<path d="M4.22769 10.9353C4.11925 11.1461 3.93239 11.3064 3.70691 11.3821C3.4814 11.4578 3.23512 11.443 3.02046 11.3407C2.80581 11.2385 2.63977 11.0569 2.55769 10.8347C2.47561 10.6124 2.48398 10.3671 2.58102 10.1509C2.75696 9.7771 2.95384 9.41342 3.17078 9.06157C3.39169 8.71032 3.63161 8.37124 3.88948 8.04585L3.90216 8.02903C4.15588 7.71167 4.42611 7.40774 4.71175 7.11846C5.00342 6.82165 5.31109 6.54084 5.63338 6.27728C5.8209 6.12763 6.06008 6.05738 6.29923 6.08171C6.4178 6.09357 6.53281 6.12866 6.63766 6.18498C6.7425 6.24128 6.83511 6.31768 6.91013 6.40976C7.06057 6.59632 7.13117 6.83426 7.10671 7.07219C7.09479 7.19015 7.05951 7.30457 7.00292 7.40887C6.94632 7.51318 6.86952 7.60531 6.77696 7.67994C6.50482 7.89959 6.24512 8.13409 5.99907 8.38232C5.2698 9.12923 4.67111 9.9921 4.22769 10.9353ZM1.88347 20.081L1.93631 20.041C2.47956 19.7193 3.30184 19.8034 3.83875 19.4312C3.87787 19.3707 3.91114 19.3066 3.9381 19.2398C3.98883 19.1263 4.03322 19.0022 4.06281 18.9181C3.94338 18.7718 3.83458 18.6172 3.73728 18.4554L3.40753 17.9339C3.30188 17.7942 3.23681 17.6284 3.2194 17.4544C3.21618 17.3953 3.22705 17.3362 3.2511 17.282C3.27503 17.2287 3.31395 17.1834 3.36314 17.1516C3.38835 17.1354 3.41528 17.122 3.44346 17.1116C3.42152 16.7995 3.41657 16.4864 3.42866 16.1737C3.44682 15.984 3.51068 15.8014 3.61481 15.6414C3.71893 15.4815 3.86029 15.3488 4.02688 15.2547C4.17085 15.1626 4.32748 15.0918 4.49192 15.0444C4.59761 15.015 4.40314 14.6827 4.51094 14.6722C5.03517 14.6175 5.88281 15.0928 6.24639 15.4861C6.44648 15.7081 6.56105 15.9934 6.5698 16.2915L6.55078 17.1327C6.59344 17.1437 6.6322 17.1662 6.66279 17.1977C6.69338 17.2293 6.7146 17.2686 6.72411 17.3114C6.74176 17.4665 6.70997 17.6232 6.63322 17.7593L6.25907 18.3755C6.13089 18.6031 5.97622 18.8148 5.79826 19.0064C5.81322 19.031 5.82946 19.0549 5.84688 19.0779C5.91877 19.1903 6.00085 19.2959 6.09208 19.3933C6.51484 19.6983 7.57175 19.7719 7.98184 19.9948H7.99663L8.04736 20.0347C8.6969 19.2687 9.0353 18.2889 8.9962 17.2875C8.95709 16.2861 8.54329 15.3353 7.83598 14.6218L7.82119 14.6449C7.08238 13.9208 6.09193 13.5071 5.05495 13.4895C4.01798 13.4719 3.01395 13.8518 2.25078 14.5505C1.48764 15.2492 1.02384 16.2131 0.955458 17.2427C0.887078 18.2722 1.21935 19.2885 1.88347 20.081ZM4.96753 12.544C5.61973 12.5431 6.26569 12.6705 6.86823 12.9188C7.4708 13.1671 8.01807 13.5314 8.47858 13.9909L8.50606 14.0203C9.42524 14.9492 9.93813 16.2018 9.933 17.5053C9.92784 18.8087 9.40507 20.0573 8.47858 20.9789L8.44899 21.0063C7.86801 21.5745 7.15537 21.9919 6.37396 22.2214C5.59254 22.451 4.76635 22.4857 3.96828 22.3225C3.17019 22.1593 2.42471 21.8033 1.79762 21.2858C1.17053 20.7683 0.681086 20.1052 0.372457 19.355C0.063827 18.6048 -0.0545024 17.7907 0.0279052 16.9842C0.110312 16.1778 0.390926 15.404 0.844991 14.7309C1.29906 14.0579 1.91262 13.5064 2.63156 13.125C3.35052 12.7436 4.15275 12.5441 4.96753 12.544ZM18.0859 20.2114C18.4896 19.8581 19.3542 19.7698 19.8848 19.4585C20.3498 19.1809 20.2695 18.9012 20.2674 18.4428H19.5296C17.6145 18.4428 18.8765 18.5921 19.1365 16.5228C19.5254 13.5997 22.4848 13.5976 22.9223 16.5228C23.2014 18.5143 24.402 18.4428 22.5271 18.4428H21.7724C21.7724 18.9496 21.69 19.2083 22.2184 19.4943C22.6116 19.7046 23.5058 19.8413 23.9349 20.1945C24.654 19.439 25.0505 18.4356 25.0415 17.3952C25.0324 16.3548 24.6183 15.3585 23.8862 14.6154L23.8609 14.5944C23.1079 13.8467 22.0889 13.4247 21.0251 13.42C19.9613 13.4152 18.9385 13.8282 18.1789 14.5692L18.1557 14.5944C17.4105 15.3372 16.9865 16.3403 16.9743 17.3896C16.962 18.439 17.3625 19.4516 18.0901 20.2114H18.0859ZM21.0072 12.4936C21.6598 12.4927 22.306 12.6201 22.9088 12.8684C23.5117 13.1167 24.0594 13.481 24.5204 13.9404L24.5458 13.9698C25.4657 14.8982 25.9794 16.1508 25.9745 17.4544C25.9698 18.758 25.4471 20.0068 24.5204 20.9285L24.4908 20.9558C23.5575 21.8712 22.2983 22.3822 20.9878 22.3772C19.6773 22.3719 18.422 21.8512 17.4961 20.9285L17.4687 20.9011C16.5484 19.9725 16.0347 18.7193 16.0398 17.4151C16.045 16.111 16.5685 14.8619 17.4961 13.9404L17.5236 13.9131C18.4519 13.0024 19.7035 12.4924 21.0072 12.4936ZM10.2986 7.53694L10.3514 7.49488C10.8968 7.17524 11.717 7.25935 12.2539 6.88713C12.2913 6.82566 12.3245 6.76173 12.3532 6.69577C12.4018 6.58221 12.4483 6.45813 12.4758 6.37401C12.3571 6.22719 12.2483 6.07262 12.1503 5.91137L11.8205 5.38984C11.713 5.25144 11.6457 5.08632 11.6261 4.91247C11.6231 4.85401 11.634 4.79567 11.6578 4.74213C11.6825 4.6887 11.7221 4.64344 11.7719 4.61175C11.7966 4.59472 11.8237 4.58126 11.8522 4.57179C11.8292 4.2597 11.8243 3.94655 11.8374 3.63388C11.8446 3.56276 11.8581 3.49238 11.8776 3.42359C11.9702 3.12791 12.1688 2.87642 12.4357 2.717C12.5804 2.62485 12.7377 2.554 12.9028 2.50671C13.0064 2.47726 12.814 2.145 12.9218 2.13238C13.444 2.07981 14.2916 2.55297 14.6573 2.94832C14.8552 3.17086 14.9695 3.45473 14.9807 3.75165L14.9596 4.59282C15.0022 4.60382 15.041 4.62634 15.0716 4.65789C15.1022 4.68943 15.1234 4.72878 15.1329 4.77157C15.1505 4.92667 15.1188 5.08338 15.042 5.2195C15.0425 5.22299 15.0425 5.22652 15.042 5.23002L14.6657 5.84618C14.5383 6.0742 14.3835 6.28603 14.2049 6.47706L14.2535 6.54856C14.3255 6.66027 14.4075 6.76516 14.4987 6.8619V6.87241C14.9215 7.17734 15.9784 7.25094 16.3885 7.47385H16.4033L16.454 7.51381C17.1027 6.74739 17.4405 5.76776 17.4014 4.76663C17.3623 3.76548 16.9491 2.81489 16.2426 2.10084L16.2384 2.10294C15.5007 1.37366 14.5087 0.955539 13.4689 0.935615C12.4291 0.915692 11.4216 1.2955 10.6562 1.99598C9.89087 2.69645 9.42653 3.66364 9.3599 4.69614C9.29327 5.72866 9.6295 6.74695 10.2986 7.53904V7.53694ZM13.3826 4.97208e-06C14.0348 -0.000917152 14.6808 0.126433 15.2834 0.374732C15.8859 0.62303 16.4332 0.987379 16.8937 1.44683L16.9212 1.47627C17.8414 2.40461 18.355 3.65744 18.3499 4.96122C18.3447 6.265 17.8212 7.51379 16.8937 8.4349L16.8662 8.46224C16.2853 9.03047 15.5728 9.44776 14.7914 9.67734C14.0101 9.90689 13.1841 9.94168 12.386 9.77861C11.588 9.61553 10.8426 9.25963 10.2155 8.74226C9.58836 8.2249 9.09884 7.56199 8.7901 6.81195C8.48133 6.06194 8.36283 5.24785 8.44502 4.4415C8.52718 3.63514 8.80754 2.8613 9.26135 2.18819C9.71515 1.51509 10.3285 0.963414 11.0472 0.581808C11.7659 0.200203 12.568 0.00039546 13.3826 4.97208e-06ZM19.5127 7.84187C19.3753 7.72619 19.2753 7.57265 19.2254 7.40059C19.1754 7.22852 19.1776 7.04561 19.2318 6.87481C19.286 6.70403 19.3898 6.553 19.53 6.4407C19.6703 6.32838 19.8408 6.25983 20.02 6.24363C20.2605 6.2242 20.4989 6.29974 20.6838 6.45393L21.0051 6.72941L21.3201 7.02803C21.5315 7.23832 21.7428 7.44862 21.9246 7.65891C22.1064 7.86921 22.2903 8.09212 22.4573 8.31503C22.6243 8.53794 22.7934 8.78188 22.9477 9.02582C23.102 9.26976 23.2479 9.51791 23.3705 9.76606V9.79129C23.4481 9.95024 23.4772 10.1282 23.4544 10.3034C23.4316 10.4786 23.3578 10.6434 23.2422 10.7774C23.1265 10.9115 22.9739 11.009 22.8033 11.058C22.6328 11.1069 22.4516 11.1052 22.2819 11.0531C22.0624 10.9803 21.8798 10.8258 21.7724 10.622C21.6625 10.4117 21.5399 10.2014 21.411 10.0037C21.282 9.80602 21.1425 9.59993 21.0009 9.41276C20.8592 9.2256 20.6944 9.03003 20.5295 8.83235C20.3646 8.63468 20.2082 8.47906 20.0433 8.31713C19.8784 8.15521 19.6945 7.99118 19.5085 7.83346L19.5127 7.84187ZM16.0757 22.9221C16.1887 22.8842 16.3082 22.8689 16.4272 22.8773C16.5462 22.8855 16.6624 22.9172 16.769 22.9704H16.7859C16.9951 23.0789 17.1541 23.2634 17.2298 23.4856C17.3041 23.713 17.2852 23.9603 17.1771 24.1737C17.069 24.3872 16.8806 24.5495 16.6527 24.6254C16.3631 24.7222 16.0714 24.8063 15.7755 24.8799C15.4796 24.9535 15.1921 25.0103 14.8898 25.0586C14.5875 25.107 14.2853 25.1449 13.9872 25.168C13.6892 25.1911 13.3763 25.2059 13.074 25.2059C12.7718 25.2059 12.4568 25.1932 12.1482 25.168C11.8396 25.1428 11.5352 25.1049 11.2266 25.0544C10.9179 25.004 10.6093 24.9388 10.3155 24.8652C10.0217 24.7916 9.71728 24.7011 9.4298 24.6044C9.31616 24.5653 9.21138 24.5043 9.12142 24.425C9.03148 24.3455 8.95813 24.2494 8.90558 24.1418C8.85229 24.0347 8.82092 23.9184 8.81331 23.7992C8.80568 23.6802 8.82195 23.5607 8.86119 23.4478C8.94022 23.22 9.10664 23.0325 9.32411 22.9263C9.43164 22.8733 9.54868 22.8421 9.66843 22.8344C9.7882 22.8268 9.90827 22.843 10.0217 22.8821C10.2605 22.962 10.5079 23.0356 10.7594 23.0924C11.0046 23.1534 11.2519 23.206 11.4971 23.2459C11.7423 23.2859 11.9981 23.3174 12.2602 23.3384C12.5223 23.3595 12.7739 23.37 13.0423 23.37C13.3108 23.37 13.5623 23.3595 13.8118 23.3384C14.0612 23.3174 14.3233 23.288 14.5643 23.248H14.5791C14.8243 23.2081 15.0716 23.1576 15.3168 23.0966C15.562 23.0356 15.8072 22.9662 16.044 22.8863L16.0757 22.9221Z" fill="#5E85E2"/>
</g>
<defs>
<clipPath id="clip0_1101_13">
<rect width="26" height="25.2353" fill="white"/>
</clipPath>
</defs>
</svg>
