<svg width="54" height="55" viewBox="0 0 54 55" fill="none" xmlns="http://www.w3.org/2000/svg">
<g clip-path="url(#clip0_5515_37)">
<path d="M22.4896 20.5892L28.496 16.5609C27.5091 13.6564 27.6195 10.4885 28.8062 7.66068C29.993 4.83283 32.1731 2.54264 34.9312 1.22644C37.6894 -0.089758 40.8328 -0.33999 43.7626 0.52342C46.6925 1.38683 49.204 3.30354 50.8187 5.90839C52.4333 8.51324 53.0384 11.6242 52.5185 14.6486C51.9986 17.6729 50.3901 20.3993 47.9994 22.3084C45.6088 24.2175 42.603 25.1757 39.5549 25.0007C36.5067 24.8256 33.6291 23.5294 31.4703 21.359C31.2789 21.1621 31.0919 20.9607 30.9138 20.7548L24.5333 25.0338C24.7597 25.9868 24.8732 26.9633 24.8717 27.9431C24.871 28.595 24.8204 29.246 24.7203 29.8901L31.9111 34.6167C33.8469 32.2242 36.5983 30.6405 39.6308 30.1734C42.6632 29.7064 45.7601 30.3892 48.3197 32.0893C50.8793 33.7895 52.7188 36.3854 53.4807 39.3727C54.2426 42.3601 53.8725 45.5255 52.4424 48.2539C51.0123 50.9823 48.6243 53.0788 45.7423 54.136C42.8604 55.1933 39.6904 55.1358 36.8483 53.9747C34.0062 52.8136 31.6949 50.6319 30.3637 47.8534C29.0324 45.0749 28.7762 41.8982 29.6448 38.9404L22.9927 34.5495C21.6311 36.7533 19.6212 38.4766 17.2416 39.4805C14.8621 40.4845 12.2308 40.7195 9.71243 40.1528C7.19409 39.5862 4.9135 38.2459 3.1868 36.318C1.4601 34.39 0.37282 31.9698 0.0756895 29.3928C-0.221441 26.8159 0.286295 24.2098 1.52851 21.9359C2.77073 19.662 4.68589 17.8329 7.00852 16.7022C9.33114 15.5715 11.9462 15.1951 14.4911 15.6253C17.036 16.0556 19.3848 17.271 21.2117 19.1032C21.6735 19.5662 22.1006 20.0629 22.4896 20.5892ZM18.4334 33.4977C17.6473 34.2914 16.7131 34.9212 15.6842 35.351C14.6554 35.7808 13.5522 36.002 12.4381 36.002C11.3239 36.002 10.2208 35.7808 9.19194 35.351C8.1631 34.9212 7.22883 34.2914 6.44278 33.4977L5.69921 32.5175L6.23351 32.0967C7.34664 31.4343 9.02523 31.6089 10.1205 30.839C10.1998 30.7099 10.2697 30.5753 10.3298 30.4362C10.4322 30.199 10.5257 29.9438 10.5836 29.7693C10.3409 29.4672 10.1192 29.1487 9.92019 28.8159L9.24786 27.7506C9.03292 27.4638 8.90047 27.1232 8.86494 26.7659C8.85858 26.6444 8.88149 26.5231 8.93173 26.4123C8.98193 26.3025 9.06225 26.2093 9.16326 26.1438C9.21274 26.1085 9.26663 26.0799 9.32355 26.0587C9.2773 25.4153 9.2669 24.7698 9.29238 24.1251C9.30668 23.9736 9.335 23.8238 9.37698 23.6776C9.5633 23.067 9.96771 22.5472 10.5124 22.2184C10.8086 22.0325 11.1293 21.8894 11.4652 21.7932C11.6789 21.735 11.2827 21.0457 11.5053 21.0233C12.5739 20.9114 14.3059 21.8917 15.0673 22.7063C15.4736 23.1655 15.7082 23.7527 15.7307 24.3668L15.6862 26.1214C15.7736 26.1433 15.8532 26.1893 15.9161 26.2541C15.979 26.3189 16.0227 26.4 16.0424 26.4884C16.0795 26.8094 16.014 27.1339 15.8554 27.4149L15.0895 28.6861C14.8285 29.157 14.5115 29.5944 14.1456 29.9886L14.248 30.1363C14.3946 30.3672 14.5615 30.5844 14.7467 30.7853C15.6372 31.4164 17.7789 31.5686 18.607 32.0296H18.6382L19.1814 32.4772C18.9551 32.8144 18.7082 33.1373 18.4423 33.444L18.4334 33.4977ZM19.591 20.7548C17.9365 19.0906 15.7591 18.0546 13.4298 17.8235C11.1006 17.5923 8.76371 18.1802 6.81735 19.4869C4.87099 20.7937 3.43561 22.7385 2.75583 24.99C2.07604 27.2414 2.1939 29.6601 3.08933 31.834C3.98476 34.0079 5.60235 35.8023 7.66644 36.9116C9.73054 38.0209 12.1134 38.3764 14.409 37.9175C16.7046 37.4585 18.7709 36.2136 20.2557 34.3948C21.7405 32.576 22.552 30.296 22.5519 27.9431C22.5538 26.6079 22.2932 25.2855 21.7851 24.0519C21.277 22.8183 20.5313 21.6978 19.591 20.7548ZM47.6819 47.7221C45.1172 50.5823 38.109 50.7792 35.4687 47.9549V47.3551C35.4687 45.8154 38.0155 45.7886 39.3735 44.9695C40.264 44.4279 40.1215 43.8818 40.1171 42.9822H38.67C34.9655 42.9822 37.4055 43.2776 37.9086 39.2269C38.6611 33.5111 44.3915 33.5067 45.2375 39.2269C45.7807 43.1254 48.0871 42.9687 44.4761 42.9687H43.029C43.029 43.9624 42.8687 44.4682 43.8928 45.0276C44.9169 45.5871 47.6774 45.8691 47.6774 47.2656V47.7132L47.6819 47.7221ZM48.7193 35.3104C47.0664 33.6459 44.8906 32.6087 42.5625 32.3755C40.2343 32.1424 37.8978 32.7277 35.9507 34.0318C34.0036 35.3359 32.5664 37.2781 31.8838 39.5278C31.2011 41.7774 31.3153 44.1954 32.2069 46.3699C33.0985 48.5444 34.7123 50.341 36.7736 51.4538C38.8348 52.5666 41.216 52.9267 43.5117 52.4729C45.8074 52.0191 47.8757 50.7793 49.3643 48.9648C50.8528 47.1502 51.6697 44.8731 51.6758 42.5211C51.6777 41.186 51.4171 39.8636 50.9089 38.6299C50.4008 37.3963 49.6552 36.2758 48.7149 35.3328L48.7193 35.3104ZM46.2838 17.4874C45.4978 18.2811 44.5635 18.9109 43.5346 19.3407C42.5058 19.7704 41.4026 19.9916 40.2885 19.9916C39.1744 19.9916 38.0712 19.7704 37.0424 19.3407C36.0135 18.9109 35.0793 18.2811 34.2932 17.4874L33.5496 16.5116L34.0884 16.1133C35.2015 15.4508 36.8801 15.6254 37.9754 14.8555C38.0529 14.7293 38.1213 14.5977 38.1802 14.4617C38.2827 14.2244 38.3717 13.9693 38.434 13.7947C38.1895 13.4931 37.9663 13.1745 37.7662 12.8414L37.0938 11.7672C36.8807 11.4794 36.7484 11.1393 36.7109 10.7825C36.7046 10.6609 36.7275 10.5396 36.7777 10.4289C36.8268 10.3183 36.9074 10.2249 37.0092 10.1603C37.0597 10.124 37.1152 10.0954 37.174 10.0753C37.1255 9.43191 37.1151 8.78625 37.1428 8.14167C37.1556 7.99028 37.1824 7.84044 37.223 7.69407C37.4096 7.08235 37.8159 6.56227 38.3628 6.23493C38.6563 6.03857 38.9775 5.88769 39.3156 5.78734C39.5294 5.72467 39.1331 5.03986 39.3513 5.01748C40.4243 4.90558 42.1519 5.88581 42.9133 6.70042C43.3199 7.1573 43.5533 7.74373 43.5722 8.35651L43.5322 10.1155C43.6185 10.1386 43.6969 10.185 43.7589 10.2497C43.821 10.3144 43.8642 10.395 43.8839 10.4826C43.9205 10.803 43.8567 11.1269 43.7014 11.4091L42.9088 12.7116C42.6493 13.1835 42.3322 13.621 41.9649 14.0141L42.0673 14.1618C42.2154 14.3927 42.3838 14.6099 42.5704 14.8108C43.4609 15.4374 45.607 15.5896 46.4307 16.0551H46.4664L47.0096 16.5027C46.7817 16.8386 46.5334 17.16 46.266 17.465L46.2838 17.4874ZM47.437 5.31289C45.7825 3.6487 43.605 2.61274 41.2758 2.38156C38.9466 2.15037 36.6097 2.73826 34.6633 4.04504C32.717 5.35182 31.2816 7.29664 30.6018 9.54807C29.922 11.7995 30.0399 14.2182 30.9353 16.3921C31.8307 18.566 33.4483 20.3604 35.5124 21.4697C37.5765 22.579 39.9594 22.9345 42.255 22.4756C44.5506 22.0166 46.6169 20.7717 48.1017 18.9529C49.5865 17.1341 50.398 14.8541 50.3979 12.5012C50.3998 11.166 50.1392 9.84362 49.6311 8.61001C49.1229 7.3764 48.3773 6.25589 47.437 5.31289Z" fill="#00F6FF"/>
</g>
<defs>
<clipPath id="clip0_5515_37">
<rect width="54" height="55" fill="white"/>
</clipPath>
</defs>
</svg>
