<svg width="512" height="512" viewBox="0 0 512 512" fill="none" xmlns="http://www.w3.org/2000/svg">
<g clip-path="url(#clip0_1164_9)">
<path d="M256 0C326.68 0 390.7 28.66 437.02 74.98C483.34 121.3 512 185.32 512 256C512 326.68 483.34 390.69 437.02 437.01C390.7 483.33 326.68 511.99 256 511.99C185.32 511.99 121.3 483.33 74.98 437.01C28.66 390.69 0 326.68 0 256C0 185.32 28.66 121.3 74.98 74.98C121.3 28.66 185.32 0 256 0ZM236.84 136.45C236.84 125.88 245.43 117.29 256 117.29C266.57 117.29 275.16 125.88 275.16 136.45V199C275.16 209.57 266.57 218.16 256 218.16C245.43 218.16 236.84 209.57 236.84 199V136.45ZM309.78 188.9C301.61 182.25 300.36 170.21 307 162.03C313.65 153.86 325.7 152.61 333.87 159.26C348.13 170.82 359.75 185.46 367.67 202.1C375.34 218.21 379.64 236.24 379.64 255.22C379.64 289.36 365.79 320.28 343.43 342.64L342.26 343.72C319.95 365.46 289.49 378.85 256 378.85C221.94 378.85 191.01 364.99 168.62 342.59C146.21 320.28 132.36 289.36 132.36 255.22C132.36 236.33 136.65 218.36 144.3 202.25C152.23 185.56 163.83 170.89 178.01 159.35C186.18 152.7 198.23 153.95 204.87 162.12C211.52 170.3 210.27 182.34 202.1 188.99C192.34 196.94 184.34 207.05 178.88 218.56C173.63 229.6 170.68 242.05 170.68 255.22C170.68 278.78 180.25 300.11 195.67 315.54C211.05 331.01 232.39 340.53 256 340.53C279.16 340.53 300.13 331.35 315.44 316.48L316.33 315.54C331.75 300.11 341.32 278.78 341.32 255.22C341.32 242.07 338.36 229.63 333.09 218.56C327.623 207.063 319.659 196.93 309.78 188.9ZM412.75 99.25C372.64 59.15 317.21 34.33 256 34.33C194.79 34.33 139.36 59.15 99.25 99.25C59.15 139.36 34.33 194.79 34.33 256C34.33 317.21 59.15 372.63 99.25 412.74C139.36 452.84 194.79 477.66 256 477.66C317.21 477.66 372.64 452.84 412.75 412.74C452.85 372.63 477.67 317.21 477.67 256C477.67 194.79 452.85 139.36 412.75 99.25Z" fill="white"/>
</g>
<defs>
<clipPath id="clip0_1164_9">
<rect width="512" height="511.99" fill="white"/>
</clipPath>
</defs>
</svg>
