<svg width="121" height="123" viewBox="0 0 121 123" fill="none" xmlns="http://www.w3.org/2000/svg">
<g clip-path="url(#clip0_1170_11)">
<path fill-rule="evenodd" clip-rule="evenodd" d="M55.7501 47.8004L53.1901 36.0704C61.6401 37.6504 74.0001 51.2404 81.8501 62.0004C76.2601 65.5504 72.8501 70.6604 72.8501 76.7204C72.8484 77.5814 72.9186 78.4411 73.0601 79.2904C69.1852 77.9308 65.1064 77.2443 61.0001 77.2604C55.6127 77.1925 50.2864 78.4058 45.4601 80.8004C39.3401 84.0104 35.5401 89.1304 35.5401 95.3704C35.533 97.0753 35.8276 98.768 36.4101 100.37C36.3001 100.69 36.1901 101.02 36.1001 101.37C35.7366 102.622 35.5482 103.917 35.5401 105.22C35.5364 106.873 35.8172 108.513 36.3701 110.07L36.1501 110.75C35.7583 112.048 35.5529 113.395 35.5401 114.75C35.5307 117.645 36.3875 120.476 38.0001 122.88H37.2501C25.3701 122.27 7.00006 122.29 2.25006 110.1C-5.53994 90.3804 8.65006 66.9404 21.5901 52.5904C23.2564 50.7423 25.0188 48.9832 26.8701 47.3204C31.5801 43.1804 36.6601 38.3204 42.7101 36.2204L36.8601 47.1204L45.3601 35.8504H49.8401L55.7501 47.8004ZM75.59 112.36C76.0398 113.084 76.282 113.918 76.2901 114.77C76.2901 119.21 69.4201 122.77 60.9501 122.77C52.4801 122.77 45.6001 119.17 45.6001 114.77C45.6106 113.918 45.8526 113.085 46.3001 112.36C48.3001 115.63 54.0801 118 60.9501 118C67.8201 118 73.65 115.63 75.59 112.36ZM119.7 109.5C120.26 110.401 120.558 111.44 120.56 112.5C120.56 117.94 112.13 122.36 101.75 122.36C91.3701 122.36 83.0001 117.89 83.0001 112.45C83.0005 111.39 83.2984 110.35 83.8601 109.45C86.2501 113.45 93.3801 116.36 101.8 116.36C110.22 116.36 117.36 113.45 119.8 109.45L119.7 109.5ZM119.7 97.5804C120.257 98.4822 120.555 99.5203 120.56 100.58C120.56 106.02 112.13 110.44 101.75 110.44C91.3701 110.44 83.0001 106 83.0001 100.53C83.0031 99.47 83.3009 98.4313 83.8601 97.5304C86.2501 101.53 93.3801 104.44 101.8 104.44C110.22 104.44 117.36 101.53 119.8 97.5304L119.7 97.5804ZM108.54 72.7404L108.32 75.1904L99.1001 74.3904C99.864 75.3677 100.403 76.5011 100.68 77.7104L98.4601 77.5104C98.245 76.7351 97.9074 75.9991 97.4601 75.3304C97.0024 74.585 96.3391 73.9878 95.5501 73.6104L95.7201 71.6104L108.55 72.7204L108.54 72.7404ZM101.75 68.9104C110.28 68.9104 117.2 71.6304 117.2 74.9704C117.2 78.3104 110.28 81.0004 101.75 81.0004C93.2201 81.0004 86.3001 78.3104 86.3001 75.0004C86.3001 71.6904 93.2201 68.9404 101.75 68.9404V68.9104ZM101.75 66.9104C112.13 66.9104 120.56 71.3304 120.56 76.7704C120.56 82.2104 112.13 86.6304 101.75 86.6304C91.3701 86.6304 83.0001 82.2004 83.0001 76.7604C83.0001 71.3204 91.4201 66.9004 101.8 66.9004L101.75 66.9104ZM119.75 86.0204C120.26 86.8773 120.536 87.8532 120.55 88.8504C120.55 94.2904 112.12 98.7104 101.74 98.7104C91.3601 98.7104 83.0001 94.2804 83.0001 88.8404C82.9874 87.8445 83.243 86.8635 83.7401 86.0004C86.0601 90.0604 93.2401 93.0004 101.74 93.0004C110.24 93.0004 117.43 90.0004 119.74 86.0004L119.75 86.0204ZM66.4901 92.0904L66.3101 94.0904L58.7801 93.4304C59.4026 94.2288 59.8429 95.1538 60.0701 96.1404L58.2601 96.0004C58.0861 95.3661 57.8091 94.7648 57.4401 94.2204C57.0624 93.616 56.5216 93.1307 55.8801 92.8204L56.0001 91.1804L66.4701 92.0904H66.4901ZM61.0001 89.0004C68.0001 89.0004 73.6101 91.2204 73.6101 94.0004C73.6101 96.7804 67.9601 99.0004 61.0001 99.0004C54.0401 99.0004 48.3901 96.7804 48.3901 94.0004C48.3901 91.2204 54.0001 89.0004 61.0001 89.0004ZM61.0001 87.3604C69.4701 87.3604 76.34 90.9704 76.34 95.4104C76.34 99.8504 69.4701 103.41 61.0001 103.41C52.5301 103.41 45.6501 99.8104 45.6501 95.4104C45.6501 91.0104 52.4801 87.3204 61.0001 87.3204V87.3604ZM75.6901 102.96C76.1077 103.659 76.3321 104.456 76.34 105.27C76.34 109.7 69.4701 113.27 61.0001 113.27C52.5301 113.27 45.6501 109.66 45.6501 105.27C45.6566 104.456 45.881 103.659 46.3001 102.96C48.1901 106.27 54.0501 108.69 61.0001 108.69C67.9501 108.69 73.8001 106.27 75.6901 102.96ZM42.3401 20.3004C40.5201 14.9304 38.8801 9.50037 37.5001 4.00037C42.6601 -1.65963 62.6001 -0.909628 68.3301 3.91037L63.0001 16.5204C65.8601 12.7604 66.8201 11.2204 68.5201 9.13037C69.2246 9.60356 69.8931 10.1283 70.5201 10.7004C72.0301 12.0704 73.3801 13.5804 73.6501 15.7004C73.7345 16.4579 73.65 17.2248 73.4028 17.9458C73.1555 18.6668 72.7516 19.3241 72.2201 19.8704L60.0901 34.0504C58.5286 33.8008 56.9926 33.4126 55.5001 32.8904C56.1901 31.2604 57.0301 29.4704 57.7201 27.8904L53.2801 32.6804C49.3042 31.6815 45.099 32.1946 41.4801 34.1204L29.1301 19.2504C28.4649 18.5214 28.085 17.5769 28.0601 16.5904C28.0601 13.0104 33.4101 9.92037 36.2101 8.75037L42.3401 20.3004Z" fill="white"/>
</g>
<defs>
<clipPath id="clip0_1170_11">
<rect width="120.56" height="122.88" fill="white"/>
</clipPath>
</defs>
</svg>
