<svg width="108" height="123" viewBox="0 0 108 123" fill="none" xmlns="http://www.w3.org/2000/svg">
<g clip-path="url(#clip0_1151_7)">
<path fill-rule="evenodd" clip-rule="evenodd" d="M55.59 102.9C57.38 103.36 58.98 104.29 60.25 105.56L60.26 105.57C60.39 105.7 60.52 105.83 60.64 105.97L87.48 89.35C87.27 88.54 87.16 87.69 87.16 86.81C87.16 84.02 88.3 81.48 90.13 79.65L90.14 79.64C91.37 78.41 92.92 77.49 94.65 77.02V45.48C92.57 45.11 90.71 44.1 89.27 42.67L89.26 42.66L89.25 42.67C89.05 42.47 88.85 42.26 88.67 42.04L62.36 57.72C62.8 58.84 63.04 60.05 63.04 61.32C63.04 64.07 61.93 66.55 60.12 68.36C58.89 69.59 57.33 70.51 55.59 70.96V102.9ZM53.08 54.55C56.82 54.55 59.86 57.59 59.86 61.33C59.86 65.07 56.82 68.11 53.08 68.11C49.34 68.11 46.3 65.07 46.3 61.33C46.3 57.59 49.34 54.55 53.08 54.55ZM62.87 110.02C63.11 110.88 63.24 111.79 63.24 112.73C63.24 115.53 62.1 118.07 60.27 119.9C58.44 121.73 55.9 122.87 53.1 122.87C50.31 122.87 47.77 121.73 45.94 119.9L45.93 119.89L45.92 119.9C44.08 118.06 42.95 115.53 42.95 112.73C42.95 111.73 43.1 110.77 43.37 109.86L17.52 93.83C17.46 93.9 17.39 93.96 17.33 94.03C15.48 95.86 12.95 97 10.15 97C7.36 97 4.82 95.86 2.99 94.03L2.98 94.02L2.97 94.03C1.14 92.19 0 89.66 0 86.85C0 84.06 1.14 81.52 2.97 79.69L2.98 79.68C4 78.66 5.25 77.85 6.63 77.34V45.01C5.25 44.5 4.01 43.69 2.98 42.67L2.97 42.66L2.96 42.67C1.14 40.83 0 38.3 0 35.49C0 32.7 1.14 30.16 2.97 28.33L2.98 28.32C4.82 26.48 7.35 25.35 10.14 25.35C12.52 25.35 14.72 26.18 16.45 27.56L43.29 12.8C43.06 11.95 42.94 11.06 42.94 10.15C42.94 7.36 44.08 4.82 45.91 2.99L45.92 2.98C47.76 1.14 50.29 0 53.09 0C55.88 0 58.42 1.14 60.25 2.97L60.26 2.98C62.1 4.82 63.23 7.35 63.23 10.14C63.23 11.1 63.1 12.03 62.85 12.91L89.73 27.88C91.52 26.3 93.86 25.34 96.43 25.34C99.22 25.34 101.76 26.48 103.59 28.31L103.6 28.32C105.44 30.16 106.57 32.69 106.57 35.48C106.57 38.28 105.43 40.82 103.6 42.65C102.47 43.78 101.08 44.64 99.53 45.14V76.9C101.43 77.33 103.12 78.29 104.45 79.62L104.46 79.63C106.3 81.47 107.43 84 107.43 86.79C107.43 89.59 106.29 92.13 104.46 93.96C102.63 95.79 100.09 96.93 97.29 96.93C94.5 96.93 91.96 95.79 90.13 93.96L90.12 93.95L90.11 93.96C90 93.85 89.9 93.75 89.8 93.63L62.87 110.02ZM45.65 105.85C45.74 105.76 45.83 105.66 45.92 105.57L45.93 105.56C47.23 104.26 48.88 103.31 50.72 102.87V70.99C48.93 70.55 47.33 69.62 46.07 68.36L46.06 68.35L46.05 68.36C44.25 66.56 43.13 64.07 43.13 61.32C43.13 59.99 43.39 58.73 43.86 57.57L18.04 41.87C17.81 42.15 17.57 42.42 17.32 42.67C15.79 44.2 13.77 45.25 11.51 45.55V76.8C13.76 77.1 15.77 78.15 17.31 79.68L17.32 79.69C19.16 81.53 20.29 84.06 20.29 86.85C20.29 87.8 20.16 88.71 19.92 89.58L45.65 105.85ZM46.28 11.32C46.3 11.42 46.32 11.52 46.34 11.61L46.35 11.64L46.38 11.76L46.39 11.78C46.41 11.88 46.44 11.97 46.47 12.07L46.49 12.14L46.51 12.21L46.53 12.28L46.57 12.41L46.58 12.43L46.61 12.5L46.64 12.57L46.67 12.64L46.7 12.71L46.73 12.78L46.76 12.85L46.79 12.92L46.84 13.04L46.86 13.07L46.89 13.13L46.92 13.2L46.95 13.27L46.98 13.33L47.02 13.4L47.05 13.45L47.06 13.47L47.1 13.54L47.14 13.6L47.18 13.66L47.21 13.7L47.22 13.72L47.28 13.81L47.31 13.86L47.37 13.94L47.41 14L47.43 14.03L47.47 14.09L47.48 14.11L47.49 14.12L47.57 14.22L47.61 14.27L47.66 14.33L47.67 14.34L47.71 14.39L47.76 14.45V14.46L47.8 14.51L47.85 14.57L47.9 14.63L47.91 14.64L47.99 14.73L48 14.75L48.01 14.76L48.1 14.86L48.11 14.87L48.21 14.98L48.23 15L48.33 15.1L48.34 15.11L48.45 15.21H48.46L48.56 15.3C49.77 16.36 51.36 17 53.1 17C54.79 17 56.34 16.39 57.54 15.39L57.6 15.34L57.65 15.29L57.71 15.24L57.75 15.21L57.77 15.19L57.86 15.11L57.87 15.1L57.88 15.09L57.96 15.01L58 15L58.08 14.92L58.09 14.91L58.13 14.87L58.18 14.81L58.22 14.77L58.23 14.76L58.28 14.7L58.33 14.64L58.38 14.58L58.47 14.47C58.53 14.4 58.59 14.32 58.64 14.25L58.65 14.24L58.69 14.18L58.73 14.12L58.77 14.06L58.81 14L58.85 13.94L58.89 13.88L58.93 13.82L58.94 13.8L59 13.7L59.01 13.69L59.08 13.57V13.56L59.12 13.49L59.15 13.43L59.16 13.42L59.2 13.35L59.24 13.28L59.27 13.21L59.3 13.14L59.33 13.07L59.39 12.93L59.45 12.8L59.46 12.78L59.51 12.65L59.54 12.58L59.57 12.51L59.6 12.44L59.63 12.37L59.65 12.3V12.29C59.68 12.2 59.71 12.1 59.73 12L59.75 11.92L59.77 11.85L59.79 11.77L59.81 11.7L59.83 11.62C59.85 11.52 59.87 11.42 59.89 11.32C59.95 10.95 59.98 10.57 59.98 10.18C59.98 6.37 56.89 3.27 53.07 3.27C49.25 3.27 46.16 6.36 46.16 10.18C46.16 10.53 46.19 10.87 46.24 11.2L46.25 11.28L46.28 11.32ZM45.66 17.05L19.77 32.28C20.11 33.29 20.29 34.37 20.29 35.49C20.29 36.06 20.24 36.61 20.15 37.16L46.83 53.6C48.54 52.21 50.72 51.37 53.09 51.37C55.52 51.37 57.74 52.25 59.47 53.7L86.47 37.4C86.35 36.78 86.29 36.14 86.29 35.49C86.29 34.55 86.42 33.64 86.66 32.78L60.42 17.16C60.37 17.21 60.32 17.27 60.27 17.32C58.43 19.16 55.9 20.29 53.1 20.29C50.31 20.29 47.77 19.15 45.94 17.32L45.93 17.31L45.92 17.32C45.83 17.23 45.74 17.14 45.66 17.05ZM6.63 41.44V41.41C7.35 41.84 8.15 42.15 9 42.3C9.37 42.36 9.75 42.39 10.14 42.39C13.95 42.39 17.05 39.3 17.05 35.48C17.05 31.66 13.96 28.57 10.14 28.57C6.33 28.57 3.23 31.66 3.23 35.48C3.24 38.03 4.6 40.24 6.63 41.44ZM14.68 92.07L14.62 92.04C15.23 91.53 15.77 90.91 16.19 90.18C16.29 90 16.39 89.81 16.48 89.63C16.85 88.78 17.06 87.85 17.06 86.87C17.06 83.05 13.97 79.96 10.15 79.96C6.34 79.96 3.24 83.05 3.24 86.87C3.24 90.68 6.33 93.78 10.15 93.78C11.88 93.76 13.46 93.12 14.68 92.07ZM59.9 11.28V11.27L62.85 12.91L59.9 11.28ZM92.82 29.61C92.26 29.96 91.75 30.38 91.31 30.87L91.25 30.94L91.19 31L91.18 31.01L91.12 31.08L91.1 31.1L91.09 31.12L91 31.23C90.08 32.4 89.53 33.89 89.53 35.49C89.53 39.3 92.62 42.4 96.44 42.4C100.26 42.4 103.35 39.31 103.35 35.49C103.35 31.67 100.26 28.58 96.44 28.58C95.11 28.59 93.87 28.96 92.82 29.61ZM97.3 79.9C101.12 79.9 104.21 82.99 104.21 86.81C104.21 90.63 101.12 93.72 97.3 93.72C93.49 93.72 90.39 90.63 90.39 86.81C90.39 82.99 93.49 79.9 97.3 79.9ZM53.09 105.83C56.9 105.83 60 108.92 60 112.74C60 116.56 56.91 119.65 53.09 119.65C49.27 119.65 46.18 116.56 46.18 112.74C46.18 108.92 49.27 105.83 53.09 105.83Z" fill="white"/>
</g>
<defs>
<clipPath id="clip0_1151_7">
<rect width="107.45" height="122.88" fill="white"/>
</clipPath>
</defs>
</svg>
