<svg width="123" height="102" viewBox="0 0 123 102" fill="none" xmlns="http://www.w3.org/2000/svg">
<g clip-path="url(#clip0_1150_4)">
<path fill-rule="evenodd" clip-rule="evenodd" d="M90.62 33.32H109.02V30.53C106.14 19.8 98.82 19.87 89.77 19.96C88.28 19.98 86.93 19.99 86.85 19.99H18.07C16.49 19.99 15.21 18.71 15.21 17.13C15.21 15.55 16.49 14.27 18.07 14.27H86.85C88.88 14.27 89.31 14.27 89.72 14.26C97.46 14.18 104.22 14.11 109.02 18.64V17.33C109.02 14.13 107.71 11.23 105.6 9.12C103.49 7.01 100.58 5.7 97.39 5.7H17.34C14.14 5.7 11.24 7.01 9.13 9.12C7.02 11.23 5.71 14.14 5.71 17.33V83.97C5.71 87.17 7.02 90.07 9.13 92.18C11.24 94.29 14.15 95.6 17.34 95.6H97.38C100.58 95.6 103.48 94.29 105.59 92.18C107.7 90.07 109.01 87.16 109.01 83.97V74.51H90.61C85.06 74.51 80.01 72.24 76.36 68.59C72.71 64.94 70.44 59.89 70.44 54.34V53.47C70.44 47.92 72.71 42.87 76.36 39.22C80.02 35.59 85.06 33.32 90.62 33.32ZM114.73 33.43C116.8 33.74 118.65 34.72 120.06 36.14C121.8 37.88 122.87 40.28 122.87 42.92V64.52C122.87 67.28 121.75 69.78 119.94 71.59C118.55 72.98 116.74 73.97 114.73 74.35V83.98C114.73 88.75 112.78 93.09 109.64 96.23C106.5 99.37 102.16 101.32 97.39 101.32H17.34C12.57 101.32 8.23 99.37 5.09 96.23C1.95 93.1 0 88.76 0 83.99V17.34C0 12.57 1.95 8.23 5.09 5.09C8.23 1.95 12.57 0 17.34 0H97.38C102.15 0 106.49 1.95 109.63 5.09C112.77 8.23 114.72 12.57 114.72 17.34V33.43H114.73ZM88.14 46.11C92.19 46.11 95.47 49.39 95.47 53.44C95.47 57.49 92.19 60.77 88.14 60.77C84.09 60.77 80.81 57.49 80.81 53.44C80.81 49.39 84.09 46.11 88.14 46.11Z" fill="white"/>
</g>
<defs>
<clipPath id="clip0_1150_4">
<rect width="122.88" height="101.33" fill="white"/>
</clipPath>
</defs>
</svg>
