<svg width="88" height="62" viewBox="0 0 88 62" fill="none" xmlns="http://www.w3.org/2000/svg">
<g clip-path="url(#clip0_2041_11)">
<path fill-rule="evenodd" clip-rule="evenodd" d="M82.099 26.2563V60.9595C82.099 61.5283 81.629 62 81.0619 62H72.1195C71.5524 62 71.0824 61.5319 71.0824 60.9595V35.1461C72.9077 33.3547 75.1513 31.1876 77.4405 28.977L81.0528 25.4847C81.3819 25.7678 81.7316 26.0257 82.099 26.2563ZM33.8618 16.1267L40.7469 10.0824C45.9788 15.2253 51.0514 21.4421 56.2305 26.5764L75.1111 7.54162L69.0303 1.43975L88.0002 0L86.9335 19.3971L81.1004 13.5426C76.9129 17.7996 67.0096 27.1809 62.8167 31.3887C57.5204 36.7042 54.9909 36.8001 49.6925 31.4833L40.7469 21.493L39.01 23.0386C38.7415 22.4555 38.4469 21.885 38.1271 21.3286C37.4619 20.1724 36.6984 19.0991 35.8523 18.1255L35.8638 18.1155C35.2631 17.4233 34.5933 16.7577 33.8618 16.1267ZM21.7077 16.3317C19.7375 16.1957 17.7599 16.4514 15.8885 17.0842L15.8488 17.099C13.9896 17.7336 12.272 18.7267 10.7926 20.0225C9.30196 21.3284 8.08232 22.9162 7.2033 24.6951C6.32627 26.4697 5.80685 28.4004 5.67482 30.3767C5.57573 31.8345 5.6877 33.299 6.00722 34.7246C6.28545 35.9637 6.71923 37.1625 7.29818 38.2921L0.22466 45.0872C0.0861405 45.2194 0.00552087 45.4012 0.000494059 45.593C-0.00453275 45.7847 0.0664439 45.9705 0.197847 46.1098L4.20236 50.3126C4.33393 50.4508 4.51475 50.531 4.70516 50.5355C4.89556 50.5401 5.07998 50.4687 5.21797 50.337L12.0249 43.7436C13.0588 44.4774 14.1814 45.0765 15.3658 45.5265C16.7471 46.0495 18.1976 46.3658 19.6706 46.4651C21.6398 46.6009 23.6164 46.3455 25.487 45.7135C27.3625 45.0794 29.0951 44.0808 30.5859 42.7746C32.076 41.469 33.2954 39.8817 34.1744 38.1034C35.03 36.3766 35.5665 34.4573 35.7043 32.4197C35.842 30.3822 35.5685 28.4077 34.9546 26.5805L34.9398 26.5407C34.3064 24.6758 33.316 22.9531 32.0243 21.4693C30.7251 19.9729 29.1442 18.7487 27.3723 17.867C25.6517 17.0085 23.7382 16.4699 21.7077 16.3317ZM19.2483 37.285C18.4554 37.2295 17.4457 37.0334 16.6683 36.8244V34.3776C17.7002 34.4614 20.2414 34.6789 21.1783 34.4662C21.8813 34.306 21.8034 33.1922 21.3404 33.0527C20.783 32.8787 19.6163 33.0875 18.678 32.8149C18.1992 32.6755 17.7951 32.4655 17.4658 32.1848C17.1294 31.8968 16.8776 31.5153 16.7123 31.0414C16.5509 30.5802 16.4696 30.0309 16.4696 29.394V28.5555C16.4696 26.7627 17.4548 25.6948 19.2483 25.394V24.1088H21.8034V25.344C22.5959 25.4074 23.5821 25.6106 24.3686 25.8019V28.2526C23.2963 28.1579 21.2625 27.9655 20.2453 28.1509C20.1621 28.1652 20.081 28.1903 20.004 28.2254C19.5864 28.424 19.603 29.5703 20.1147 29.706C20.4494 29.7941 21.1357 29.7476 21.5016 29.7476C21.8718 29.7476 22.2152 29.7839 22.5304 29.8555C22.8484 29.9281 23.1363 30.038 23.3913 30.1842C24.4614 30.7961 24.9334 31.8754 24.9334 33.0674V33.9068C24.9334 34.4048 24.8889 34.8495 24.8012 35.2382C24.4518 36.7802 23.2599 37.1129 21.8034 37.2728V38.6589H19.2483V37.285ZM12.7915 22.3205C13.9738 21.2858 15.3543 20.4811 16.8553 19.9742C18.3033 19.4844 19.8741 19.2668 21.5016 19.3773C23.1289 19.488 24.6567 19.917 26.0241 20.5977C27.4445 21.3043 28.7031 22.2882 29.7349 23.4741L29.7715 23.5129C30.7929 24.698 31.5751 26.0708 32.0748 27.5552L32.0879 27.5912C32.5659 29.0322 32.7783 30.5956 32.669 32.214C32.5588 33.8454 32.1319 35.3779 31.4543 36.7492C30.7504 38.1675 29.7758 39.4333 28.5858 40.4748C27.4039 41.5101 26.0234 42.315 24.5225 42.8222C23.076 43.3112 21.5043 43.5292 19.8767 43.4185C18.2514 43.3079 16.7253 42.8795 15.3576 42.1986L15.3218 42.1822C12.4897 40.7628 10.3154 38.2505 9.30413 35.2418L9.29107 35.2059C8.81308 33.7646 8.60064 32.2014 8.70996 30.5825C8.8203 28.9499 9.24758 27.4174 9.92614 26.0449C10.6282 24.6266 11.6018 23.361 12.7915 22.3205ZM28.1306 50.1631V60.9595C28.1306 61.5299 27.6621 62 27.0935 62H18.1511C17.5825 62 17.114 61.5319 17.114 60.9595V51.2848C17.8288 51.4125 18.569 51.504 19.3325 51.5561C20.6281 51.6437 21.9426 51.597 23.2554 51.4273C24.5623 51.2604 25.8495 50.9647 27.0985 50.5443C27.4457 50.427 27.7896 50.3002 28.1306 50.1631ZM46.1199 39.6792V60.9595C46.1199 61.5293 45.6504 62 45.0825 62H36.1403C35.5725 62 35.1029 61.5319 35.1029 60.9595V45.4925C36.5711 43.9815 37.795 42.2496 38.7303 40.3594C39.3179 39.1755 39.7875 37.9362 40.1323 36.6597C40.3549 35.8314 40.5238 34.9896 40.6381 34.1394L43.0255 36.8042C43.1247 36.9149 43.2269 37.0229 43.3319 37.1281C44.2846 38.0841 45.2081 38.9342 46.1199 39.6792ZM64.1091 41.2638V60.9595C64.1091 61.5293 63.64 62 63.0721 62H54.1295C53.5618 62 53.0926 61.5319 53.0926 60.9595V43.32C54.1365 43.5526 55.218 43.662 56.358 43.648C59.2082 43.6133 61.6715 42.8167 64.1091 41.2638Z" fill="white"/>
</g>
<defs>
<clipPath id="clip0_2041_11">
<rect width="88" height="62" fill="white"/>
</clipPath>
</defs>
</svg>
