<svg width="93" height="123" viewBox="0 0 93 123" fill="none" xmlns="http://www.w3.org/2000/svg">
<g clip-path="url(#clip0_5834_23)">
<path d="M47.4899 116.85C53.7999 112.84 59.4699 107.98 64.4099 102.56C75.1399 90.8101 82.3799 76.4501 85.2799 62.3601C88.1599 48.4501 86.7999 34.8201 80.4299 24.3001C78.6199 21.2801 76.3499 18.5201 73.6499 16.0401C65.9099 8.99006 57.0499 5.63006 48.1299 5.54006C38.7599 5.47006 29.2599 8.99006 20.8599 15.6801C17.2799 18.5401 14.3299 21.8301 12.0399 25.4601C6.13992 34.7401 4.34992 46.2601 6.29992 58.3101C8.26992 70.5401 14.0799 83.3301 23.3399 94.9201C29.7799 103 37.8799 110.5 47.5199 116.83L47.4899 116.85ZM46.1299 21.1601C53.1799 21.1601 59.5799 24.0201 64.1899 28.6501C68.8199 33.2801 71.6799 39.6501 71.6799 46.7101C71.6799 53.7601 68.8199 60.1601 64.1899 64.7701C59.5599 69.4001 53.1899 72.2601 46.1299 72.2601C39.0799 72.2601 32.6799 69.4001 28.0699 64.7701C23.4399 60.1401 20.5799 53.7701 20.5799 46.7101C20.5799 39.6601 23.4399 33.2601 28.0699 28.6501C32.6999 24.0201 39.0699 21.1601 46.1299 21.1601ZM60.5099 32.3301C56.8399 28.6601 51.7299 26.3601 46.1299 26.3601C40.4999 26.3601 35.4199 28.6301 31.7499 32.3301C28.0799 36.0001 25.7799 41.1101 25.7799 46.7101C25.7799 52.3401 28.0499 57.4201 31.7499 61.0901C35.4199 64.7601 40.5299 67.0601 46.1299 67.0601C51.7599 67.0601 56.8399 64.7901 60.5099 61.0901C64.1799 57.4201 66.4799 52.3101 66.4799 46.7101C66.4699 41.0801 64.2099 36.0001 60.5099 32.3301ZM68.5199 106.27C62.9199 112.39 56.4299 117.88 49.0999 122.33C48.2199 122.99 46.9699 123.08 45.9699 122.44C35.1699 115.57 26.1199 107.31 18.9799 98.3501C9.14992 86.0201 2.93992 72.3401 0.829919 59.1601C-1.32008 45.8001 0.689919 32.9601 7.33992 22.4801C9.96992 18.3501 13.3099 14.5901 17.4099 11.3401C26.7799 3.88006 37.5099 -0.06994 48.1699 6.00237e-05C58.4499 0.09006 68.5899 3.90006 77.3899 11.9301C80.4799 14.7401 83.0599 17.9201 85.1699 21.4101C92.3199 33.1801 93.8599 48.2201 90.7299 63.4201C87.6199 78.4601 79.9299 93.7501 68.5499 106.22L68.5199 106.27Z" fill="#00F6FF"/>
</g>
<defs>
<clipPath id="clip0_5834_23">
<rect width="92.26" height="122.88" fill="white"/>
</clipPath>
</defs>
</svg>
