<svg width="123" height="123" viewBox="0 0 123 123" fill="none" xmlns="http://www.w3.org/2000/svg">
<g clip-path="url(#clip0_5834_20)">
<path d="M33.8221 50.2909C37.9591 57.7329 42.7201 64.8949 48.8961 71.4239C55.1001 77.9839 62.7821 83.9619 72.7711 89.0299L72.7811 89.0349L72.7831 89.0299C73.5111 89.4009 74.2041 89.3919 74.8551 89.1479C75.7991 88.7949 76.7821 88.0109 77.7381 87.0619C78.4671 86.3359 79.3811 85.1379 80.3691 83.8389C84.2151 78.7849 88.9701 72.5379 95.6831 75.6459C95.8251 75.7109 95.9591 75.7869 96.0851 75.8719L118.458 88.7239C118.538 88.7699 118.615 88.8189 118.688 88.8709C121.654 90.9069 122.865 94.0429 122.878 97.5539C122.892 101.175 121.549 105.228 119.604 108.655C117.039 113.172 113.217 116.157 108.843 118.18C104.673 120.108 100.045 121.134 95.5761 121.788C88.5871 122.813 81.9981 122.162 75.2881 120.096C68.7381 118.079 62.1121 114.711 54.8881 110.236L54.3621 109.91C51.0361 107.85 47.4561 105.634 43.9731 103.006C31.1081 93.2959 18.0071 79.2829 9.51207 63.9039C2.36107 50.9579 -1.55193 36.9949 0.581074 23.6809C1.75007 16.3749 4.90107 9.74294 10.3331 5.34994C15.0951 1.49694 21.5211 -0.590059 29.7811 0.146941C30.7541 0.230941 31.5741 0.785941 32.0361 1.56594L32.0421 1.56294L46.3661 25.8329C48.4761 28.5509 48.7101 31.2479 47.5691 33.9289C46.6261 36.1469 44.6771 38.1799 42.0931 40.0969C41.3071 40.7469 40.3851 41.4219 39.4341 42.1179C36.2361 44.4589 32.5781 47.1359 33.8221 50.2909ZM44.6701 75.4219C38.0661 68.4399 33.0351 60.8799 28.6951 53.0649C28.6191 52.9419 28.5511 52.8119 28.4931 52.6749C25.3191 45.2159 31.0131 41.0499 35.9861 37.4129C36.8311 36.7949 37.6491 36.1959 38.3871 35.5839L38.3891 35.5869C38.4321 35.5509 38.4771 35.5159 38.5241 35.4819C40.3671 34.1279 41.6951 32.8349 42.2021 31.6449C42.4911 30.9659 42.3841 30.2189 41.7361 29.3799C41.6251 29.2509 41.5231 29.1089 41.4331 28.9569L27.7951 5.85194C21.9261 5.61094 17.3761 7.17294 14.0111 9.89594C9.77207 13.3249 7.28807 18.6549 6.33707 24.5949C4.43207 36.4889 8.05307 49.1889 14.6291 61.0949C22.7071 75.7179 35.2041 89.0719 47.4931 98.3449C50.8721 100.895 54.2691 102.998 57.4251 104.952L57.9511 105.278C64.7691 109.501 70.9681 112.664 77.0031 114.522C82.8791 116.331 88.6371 116.902 94.7321 116.008C98.7411 115.421 102.845 114.523 106.4 112.879C109.751 111.329 112.648 109.094 114.534 105.775C116.03 103.138 117.064 100.122 117.055 97.5529C117.049 95.9229 116.583 94.5239 115.45 93.7089L93.2001 80.9299C90.7391 79.8489 87.5711 84.0109 85.0071 87.3799C83.9031 88.8319 82.8821 90.1719 81.8511 91.1969C80.3741 92.6629 78.7331 93.9199 76.8891 94.6079C74.7531 95.4069 72.4941 95.4419 70.1341 94.2379L70.1361 94.2339C59.5221 88.8489 51.3231 82.4569 44.6701 75.4219Z" fill="#00F6FF"/>
</g>
<defs>
<clipPath id="clip0_5834_20">
<rect width="122.88" height="122.267" fill="white"/>
</clipPath>
</defs>
</svg>
